<?xml version="1.0" encoding="utf-8" standalone="no"?>
<!DOCTYPE svg PUBLIC "-//W3C//DTD SVG 1.1//EN"
  "http://www.w3.org/Graphics/SVG/1.1/DTD/svg11.dtd">
<svg xmlns:xlink="http://www.w3.org/1999/xlink" width="667.694297pt" height="430.288931pt" viewBox="0 0 667.694297 430.288931" xmlns="http://www.w3.org/2000/svg" version="1.1">
 <metadata>
  <rdf:RDF xmlns:dc="http://purl.org/dc/elements/1.1/" xmlns:cc="http://creativecommons.org/ns#" xmlns:rdf="http://www.w3.org/1999/02/22-rdf-syntax-ns#">
   <cc:Work>
    <dc:type rdf:resource="http://purl.org/dc/dcmitype/StillImage"/>
    <dc:date>2026-06-28T15:45:51.333510</dc:date>
    <dc:format>image/svg+xml</dc:format>
    <dc:creator>
     <cc:Agent>
      <dc:title>Matplotlib v3.11.0, https://matplotlib.org/</dc:title>
     </cc:Agent>
    </dc:creator>
   </cc:Work>
  </rdf:RDF>
 </metadata>
 <defs>
  <style type="text/css">*{stroke-linejoin: round; stroke-linecap: butt}</style>
 </defs>
 <g id="figure_1">
  <g id="patch_1">
   <path d="M 0 430.288931 
L 667.694297 430.288931 
L 667.694297 0 
L 0 0 
z
" style="fill: #ffffff"/>
  </g>
  <g id="axes_1">
   <g id="patch_2">
    <path d="M 46.694297 390.088931 
L 660.494297 390.088931 
L 660.494297 46.360931 
L 46.694297 46.360931 
z
" style="fill: #ffffff"/>
   </g>
   <g id="matplotlib.axis_1">
    <g id="xtick_1">
     <g id="line2d_1">
      <path d="M 90.094297 390.088931 
L 90.094297 46.360931 
" clip-path="url(#p8d7e6164a2)" style="fill: none; stroke: #e6e6e6; stroke-width: 0.7; stroke-linecap: square"/>
     </g>
     <g id="line2d_2">
      <defs>
       <path id="m77e05b81d4" d="M 0 0 
L 0 3.5 
" style="stroke: #000000; stroke-width: 0.8"/>
      </defs>
      <g>
       <use xlink:href="#m77e05b81d4" x="90.094297" y="390.088931" style="stroke: #000000; stroke-width: 0.8"/>
      </g>
     </g>
     <g id="text_1">
      <!-- 2007.5 -->
      <g transform="translate(70.849453 405.446353) scale(0.11 -0.11)">
       <defs>
        <path id="DejaVuSans-15" d="M 1228 531 
L 3431 531 
L 3431 0 
L 469 0 
L 469 531 
Q 828 903 1448 1529 
Q 2069 2156 2228 2338 
Q 2531 2678 2651 2914 
Q 2772 3150 2772 3378 
Q 2772 3750 2511 3984 
Q 2250 4219 1831 4219 
Q 1534 4219 1204 4116 
Q 875 4013 500 3803 
L 500 4441 
Q 881 4594 1212 4672 
Q 1544 4750 1819 4750 
Q 2544 4750 2975 4387 
Q 3406 4025 3406 3419 
Q 3406 3131 3298 2873 
Q 3191 2616 2906 2266 
Q 2828 2175 2409 1742 
Q 1991 1309 1228 531 
z
" transform="scale(0.015625)"/>
        <path id="DejaVuSans-13" d="M 2034 4250 
Q 1547 4250 1301 3770 
Q 1056 3291 1056 2328 
Q 1056 1369 1301 889 
Q 1547 409 2034 409 
Q 2525 409 2770 889 
Q 3016 1369 3016 2328 
Q 3016 3291 2770 3770 
Q 2525 4250 2034 4250 
z
M 2034 4750 
Q 2819 4750 3233 4129 
Q 3647 3509 3647 2328 
Q 3647 1150 3233 529 
Q 2819 -91 2034 -91 
Q 1250 -91 836 529 
Q 422 1150 422 2328 
Q 422 3509 836 4129 
Q 1250 4750 2034 4750 
z
" transform="scale(0.015625)"/>
        <path id="DejaVuSans-1a" d="M 525 4666 
L 3525 4666 
L 3525 4397 
L 1831 0 
L 1172 0 
L 2766 4134 
L 525 4134 
L 525 4666 
z
" transform="scale(0.015625)"/>
        <path id="DejaVuSans-11" d="M 684 794 
L 1344 794 
L 1344 0 
L 684 0 
L 684 794 
z
" transform="scale(0.015625)"/>
        <path id="DejaVuSans-18" d="M 691 4666 
L 3169 4666 
L 3169 4134 
L 1269 4134 
L 1269 2991 
Q 1406 3038 1543 3061 
Q 1681 3084 1819 3084 
Q 2600 3084 3056 2656 
Q 3513 2228 3513 1497 
Q 3513 744 3044 326 
Q 2575 -91 1722 -91 
Q 1428 -91 1123 -41 
Q 819 9 494 109 
L 494 744 
Q 775 591 1075 516 
Q 1375 441 1709 441 
Q 2250 441 2565 725 
Q 2881 1009 2881 1497 
Q 2881 1984 2565 2268 
Q 2250 2553 1709 2553 
Q 1456 2553 1204 2497 
Q 953 2441 691 2322 
L 691 4666 
z
" transform="scale(0.015625)"/>
       </defs>
       <use xlink:href="#DejaVuSans-15"/>
       <use xlink:href="#DejaVuSans-13" transform="translate(63.625 0)"/>
       <use xlink:href="#DejaVuSans-13" transform="translate(127.25 0)"/>
       <use xlink:href="#DejaVuSans-1a" transform="translate(190.875 0)"/>
       <use xlink:href="#DejaVuSans-11" transform="translate(254.5 0)"/>
       <use xlink:href="#DejaVuSans-18" transform="translate(286.28125 0)"/>
      </g>
     </g>
    </g>
    <g id="xtick_2">
     <g id="line2d_3">
      <path d="M 167.594297 390.088931 
L 167.594297 46.360931 
" clip-path="url(#p8d7e6164a2)" style="fill: none; stroke: #e6e6e6; stroke-width: 0.7; stroke-linecap: square"/>
     </g>
     <g id="line2d_4">
      <g>
       <use xlink:href="#m77e05b81d4" x="167.594297" y="390.088931" style="stroke: #000000; stroke-width: 0.8"/>
      </g>
     </g>
     <g id="text_2">
      <!-- 2010.0 -->
      <g transform="translate(148.349453 405.446353) scale(0.11 -0.11)">
       <defs>
        <path id="DejaVuSans-14" d="M 794 531 
L 1825 531 
L 1825 4091 
L 703 3866 
L 703 4441 
L 1819 4666 
L 2450 4666 
L 2450 531 
L 3481 531 
L 3481 0 
L 794 0 
L 794 531 
z
" transform="scale(0.015625)"/>
       </defs>
       <use xlink:href="#DejaVuSans-15"/>
       <use xlink:href="#DejaVuSans-13" transform="translate(63.625 0)"/>
       <use xlink:href="#DejaVuSans-14" transform="translate(127.25 0)"/>
       <use xlink:href="#DejaVuSans-13" transform="translate(190.875 0)"/>
       <use xlink:href="#DejaVuSans-11" transform="translate(254.5 0)"/>
       <use xlink:href="#DejaVuSans-13" transform="translate(286.28125 0)"/>
      </g>
     </g>
    </g>
    <g id="xtick_3">
     <g id="line2d_5">
      <path d="M 245.094297 390.088931 
L 245.094297 46.360931 
" clip-path="url(#p8d7e6164a2)" style="fill: none; stroke: #e6e6e6; stroke-width: 0.7; stroke-linecap: square"/>
     </g>
     <g id="line2d_6">
      <g>
       <use xlink:href="#m77e05b81d4" x="245.094297" y="390.088931" style="stroke: #000000; stroke-width: 0.8"/>
      </g>
     </g>
     <g id="text_3">
      <!-- 2012.5 -->
      <g transform="translate(225.849453 405.446353) scale(0.11 -0.11)">
       <use xlink:href="#DejaVuSans-15"/>
       <use xlink:href="#DejaVuSans-13" transform="translate(63.625 0)"/>
       <use xlink:href="#DejaVuSans-14" transform="translate(127.25 0)"/>
       <use xlink:href="#DejaVuSans-15" transform="translate(190.875 0)"/>
       <use xlink:href="#DejaVuSans-11" transform="translate(254.5 0)"/>
       <use xlink:href="#DejaVuSans-18" transform="translate(286.28125 0)"/>
      </g>
     </g>
    </g>
    <g id="xtick_4">
     <g id="line2d_7">
      <path d="M 322.594297 390.088931 
L 322.594297 46.360931 
" clip-path="url(#p8d7e6164a2)" style="fill: none; stroke: #e6e6e6; stroke-width: 0.7; stroke-linecap: square"/>
     </g>
     <g id="line2d_8">
      <g>
       <use xlink:href="#m77e05b81d4" x="322.594297" y="390.088931" style="stroke: #000000; stroke-width: 0.8"/>
      </g>
     </g>
     <g id="text_4">
      <!-- 2015.0 -->
      <g transform="translate(303.349453 405.446353) scale(0.11 -0.11)">
       <use xlink:href="#DejaVuSans-15"/>
       <use xlink:href="#DejaVuSans-13" transform="translate(63.625 0)"/>
       <use xlink:href="#DejaVuSans-14" transform="translate(127.25 0)"/>
       <use xlink:href="#DejaVuSans-18" transform="translate(190.875 0)"/>
       <use xlink:href="#DejaVuSans-11" transform="translate(254.5 0)"/>
       <use xlink:href="#DejaVuSans-13" transform="translate(286.28125 0)"/>
      </g>
     </g>
    </g>
    <g id="xtick_5">
     <g id="line2d_9">
      <path d="M 400.094297 390.088931 
L 400.094297 46.360931 
" clip-path="url(#p8d7e6164a2)" style="fill: none; stroke: #e6e6e6; stroke-width: 0.7; stroke-linecap: square"/>
     </g>
     <g id="line2d_10">
      <g>
       <use xlink:href="#m77e05b81d4" x="400.094297" y="390.088931" style="stroke: #000000; stroke-width: 0.8"/>
      </g>
     </g>
     <g id="text_5">
      <!-- 2017.5 -->
      <g transform="translate(380.849453 405.446353) scale(0.11 -0.11)">
       <use xlink:href="#DejaVuSans-15"/>
       <use xlink:href="#DejaVuSans-13" transform="translate(63.625 0)"/>
       <use xlink:href="#DejaVuSans-14" transform="translate(127.25 0)"/>
       <use xlink:href="#DejaVuSans-1a" transform="translate(190.875 0)"/>
       <use xlink:href="#DejaVuSans-11" transform="translate(254.5 0)"/>
       <use xlink:href="#DejaVuSans-18" transform="translate(286.28125 0)"/>
      </g>
     </g>
    </g>
    <g id="xtick_6">
     <g id="line2d_11">
      <path d="M 477.594297 390.088931 
L 477.594297 46.360931 
" clip-path="url(#p8d7e6164a2)" style="fill: none; stroke: #e6e6e6; stroke-width: 0.7; stroke-linecap: square"/>
     </g>
     <g id="line2d_12">
      <g>
       <use xlink:href="#m77e05b81d4" x="477.594297" y="390.088931" style="stroke: #000000; stroke-width: 0.8"/>
      </g>
     </g>
     <g id="text_6">
      <!-- 2020.0 -->
      <g transform="translate(458.349453 405.446353) scale(0.11 -0.11)">
       <use xlink:href="#DejaVuSans-15"/>
       <use xlink:href="#DejaVuSans-13" transform="translate(63.625 0)"/>
       <use xlink:href="#DejaVuSans-15" transform="translate(127.25 0)"/>
       <use xlink:href="#DejaVuSans-13" transform="translate(190.875 0)"/>
       <use xlink:href="#DejaVuSans-11" transform="translate(254.5 0)"/>
       <use xlink:href="#DejaVuSans-13" transform="translate(286.28125 0)"/>
      </g>
     </g>
    </g>
    <g id="xtick_7">
     <g id="line2d_13">
      <path d="M 555.094297 390.088931 
L 555.094297 46.360931 
" clip-path="url(#p8d7e6164a2)" style="fill: none; stroke: #e6e6e6; stroke-width: 0.7; stroke-linecap: square"/>
     </g>
     <g id="line2d_14">
      <g>
       <use xlink:href="#m77e05b81d4" x="555.094297" y="390.088931" style="stroke: #000000; stroke-width: 0.8"/>
      </g>
     </g>
     <g id="text_7">
      <!-- 2022.5 -->
      <g transform="translate(535.849453 405.446353) scale(0.11 -0.11)">
       <use xlink:href="#DejaVuSans-15"/>
       <use xlink:href="#DejaVuSans-13" transform="translate(63.625 0)"/>
       <use xlink:href="#DejaVuSans-15" transform="translate(127.25 0)"/>
       <use xlink:href="#DejaVuSans-15" transform="translate(190.875 0)"/>
       <use xlink:href="#DejaVuSans-11" transform="translate(254.5 0)"/>
       <use xlink:href="#DejaVuSans-18" transform="translate(286.28125 0)"/>
      </g>
     </g>
    </g>
    <g id="xtick_8">
     <g id="line2d_15">
      <path d="M 632.594297 390.088931 
L 632.594297 46.360931 
" clip-path="url(#p8d7e6164a2)" style="fill: none; stroke: #e6e6e6; stroke-width: 0.7; stroke-linecap: square"/>
     </g>
     <g id="line2d_16">
      <g>
       <use xlink:href="#m77e05b81d4" x="632.594297" y="390.088931" style="stroke: #000000; stroke-width: 0.8"/>
      </g>
     </g>
     <g id="text_8">
      <!-- 2025.0 -->
      <g transform="translate(613.349453 405.446353) scale(0.11 -0.11)">
       <use xlink:href="#DejaVuSans-15"/>
       <use xlink:href="#DejaVuSans-13" transform="translate(63.625 0)"/>
       <use xlink:href="#DejaVuSans-15" transform="translate(127.25 0)"/>
       <use xlink:href="#DejaVuSans-18" transform="translate(190.875 0)"/>
       <use xlink:href="#DejaVuSans-11" transform="translate(254.5 0)"/>
       <use xlink:href="#DejaVuSans-13" transform="translate(286.28125 0)"/>
      </g>
     </g>
    </g>
    <g id="text_9">
     <!-- year -->
     <g transform="translate(341.323281 420.446353) scale(0.11 -0.11)">
      <defs>
       <path id="DejaVuSans-5c" d="M 2059 -325 
Q 1816 -950 1584 -1140 
Q 1353 -1331 966 -1331 
L 506 -1331 
L 506 -850 
L 844 -850 
Q 1081 -850 1212 -737 
Q 1344 -625 1503 -206 
L 1606 56 
L 191 3500 
L 800 3500 
L 1894 763 
L 2988 3500 
L 3597 3500 
L 2059 -325 
z
" transform="scale(0.015625)"/>
       <path id="DejaVuSans-48" d="M 3597 1894 
L 3597 1613 
L 953 1613 
Q 991 1019 1311 708 
Q 1631 397 2203 397 
Q 2534 397 2845 478 
Q 3156 559 3463 722 
L 3463 178 
Q 3153 47 2828 -22 
Q 2503 -91 2169 -91 
Q 1331 -91 842 396 
Q 353 884 353 1716 
Q 353 2575 817 3079 
Q 1281 3584 2069 3584 
Q 2775 3584 3186 3129 
Q 3597 2675 3597 1894 
z
M 3022 2063 
Q 3016 2534 2758 2815 
Q 2500 3097 2075 3097 
Q 1594 3097 1305 2825 
Q 1016 2553 972 2059 
L 3022 2063 
z
" transform="scale(0.015625)"/>
       <path id="DejaVuSans-44" d="M 2194 1759 
Q 1497 1759 1228 1600 
Q 959 1441 959 1056 
Q 959 750 1161 570 
Q 1363 391 1709 391 
Q 2188 391 2477 730 
Q 2766 1069 2766 1631 
L 2766 1759 
L 2194 1759 
z
M 3341 1997 
L 3341 0 
L 2766 0 
L 2766 531 
Q 2569 213 2275 61 
Q 1981 -91 1556 -91 
Q 1019 -91 701 211 
Q 384 513 384 1019 
Q 384 1609 779 1909 
Q 1175 2209 1959 2209 
L 2766 2209 
L 2766 2266 
Q 2766 2663 2505 2880 
Q 2244 3097 1772 3097 
Q 1472 3097 1187 3025 
Q 903 2953 641 2809 
L 641 3341 
Q 956 3463 1253 3523 
Q 1550 3584 1831 3584 
Q 2591 3584 2966 3190 
Q 3341 2797 3341 1997 
z
" transform="scale(0.015625)"/>
       <path id="DejaVuSans-55" d="M 2631 2963 
Q 2534 3019 2420 3045 
Q 2306 3072 2169 3072 
Q 1681 3072 1420 2755 
Q 1159 2438 1159 1844 
L 1159 0 
L 581 0 
L 581 3500 
L 1159 3500 
L 1159 2956 
Q 1341 3275 1631 3429 
Q 1922 3584 2338 3584 
Q 2397 3584 2469 3576 
Q 2541 3569 2628 3553 
L 2631 2963 
z
" transform="scale(0.015625)"/>
      </defs>
      <use xlink:href="#DejaVuSans-5c"/>
      <use xlink:href="#DejaVuSans-48" transform="translate(59.1875 0)"/>
      <use xlink:href="#DejaVuSans-44" transform="translate(120.71875 0)"/>
      <use xlink:href="#DejaVuSans-55" transform="translate(182 0)"/>
     </g>
    </g>
   </g>
   <g id="matplotlib.axis_2">
    <g id="ytick_1">
     <g id="line2d_17">
      <path d="M 46.694297 374.464931 
L 660.494297 374.464931 
" clip-path="url(#p8d7e6164a2)" style="fill: none; stroke: #e6e6e6; stroke-width: 0.7; stroke-linecap: square"/>
     </g>
     <g id="line2d_18">
      <defs>
       <path id="m4b17a1567e" d="M 0 0 
L -3.5 0 
" style="stroke: #000000; stroke-width: 0.8"/>
      </defs>
      <g>
       <use xlink:href="#m4b17a1567e" x="46.694297" y="374.464931" style="stroke: #000000; stroke-width: 0.8"/>
      </g>
     </g>
     <g id="text_10">
      <!-- 0.0 -->
      <g transform="translate(22.200859 378.643642) scale(0.11 -0.11)">
       <use xlink:href="#DejaVuSans-13"/>
       <use xlink:href="#DejaVuSans-11" transform="translate(63.625 0)"/>
       <use xlink:href="#DejaVuSans-13" transform="translate(95.40625 0)"/>
      </g>
     </g>
    </g>
    <g id="ytick_2">
     <g id="line2d_19">
      <path d="M 46.694297 326.067977 
L 660.494297 326.067977 
" clip-path="url(#p8d7e6164a2)" style="fill: none; stroke: #e6e6e6; stroke-width: 0.7; stroke-linecap: square"/>
     </g>
     <g id="line2d_20">
      <g>
       <use xlink:href="#m4b17a1567e" x="46.694297" y="326.067977" style="stroke: #000000; stroke-width: 0.8"/>
      </g>
     </g>
     <g id="text_11">
      <!-- 0.5 -->
      <g transform="translate(22.200859 330.246688) scale(0.11 -0.11)">
       <use xlink:href="#DejaVuSans-13"/>
       <use xlink:href="#DejaVuSans-11" transform="translate(63.625 0)"/>
       <use xlink:href="#DejaVuSans-18" transform="translate(95.40625 0)"/>
      </g>
     </g>
    </g>
    <g id="ytick_3">
     <g id="line2d_21">
      <path d="M 46.694297 277.671024 
L 660.494297 277.671024 
" clip-path="url(#p8d7e6164a2)" style="fill: none; stroke: #e6e6e6; stroke-width: 0.7; stroke-linecap: square"/>
     </g>
     <g id="line2d_22">
      <g>
       <use xlink:href="#m4b17a1567e" x="46.694297" y="277.671024" style="stroke: #000000; stroke-width: 0.8"/>
      </g>
     </g>
     <g id="text_12">
      <!-- 1.0 -->
      <g transform="translate(22.200859 281.849735) scale(0.11 -0.11)">
       <use xlink:href="#DejaVuSans-14"/>
       <use xlink:href="#DejaVuSans-11" transform="translate(63.625 0)"/>
       <use xlink:href="#DejaVuSans-13" transform="translate(95.40625 0)"/>
      </g>
     </g>
    </g>
    <g id="ytick_4">
     <g id="line2d_23">
      <path d="M 46.694297 229.27407 
L 660.494297 229.27407 
" clip-path="url(#p8d7e6164a2)" style="fill: none; stroke: #e6e6e6; stroke-width: 0.7; stroke-linecap: square"/>
     </g>
     <g id="line2d_24">
      <g>
       <use xlink:href="#m4b17a1567e" x="46.694297" y="229.27407" style="stroke: #000000; stroke-width: 0.8"/>
      </g>
     </g>
     <g id="text_13">
      <!-- 1.5 -->
      <g transform="translate(22.200859 233.452781) scale(0.11 -0.11)">
       <use xlink:href="#DejaVuSans-14"/>
       <use xlink:href="#DejaVuSans-11" transform="translate(63.625 0)"/>
       <use xlink:href="#DejaVuSans-18" transform="translate(95.40625 0)"/>
      </g>
     </g>
    </g>
    <g id="ytick_5">
     <g id="line2d_25">
      <path d="M 46.694297 180.877117 
L 660.494297 180.877117 
" clip-path="url(#p8d7e6164a2)" style="fill: none; stroke: #e6e6e6; stroke-width: 0.7; stroke-linecap: square"/>
     </g>
     <g id="line2d_26">
      <g>
       <use xlink:href="#m4b17a1567e" x="46.694297" y="180.877117" style="stroke: #000000; stroke-width: 0.8"/>
      </g>
     </g>
     <g id="text_14">
      <!-- 2.0 -->
      <g transform="translate(22.200859 185.055828) scale(0.11 -0.11)">
       <use xlink:href="#DejaVuSans-15"/>
       <use xlink:href="#DejaVuSans-11" transform="translate(63.625 0)"/>
       <use xlink:href="#DejaVuSans-13" transform="translate(95.40625 0)"/>
      </g>
     </g>
    </g>
    <g id="ytick_6">
     <g id="line2d_27">
      <path d="M 46.694297 132.480163 
L 660.494297 132.480163 
" clip-path="url(#p8d7e6164a2)" style="fill: none; stroke: #e6e6e6; stroke-width: 0.7; stroke-linecap: square"/>
     </g>
     <g id="line2d_28">
      <g>
       <use xlink:href="#m4b17a1567e" x="46.694297" y="132.480163" style="stroke: #000000; stroke-width: 0.8"/>
      </g>
     </g>
     <g id="text_15">
      <!-- 2.5 -->
      <g transform="translate(22.200859 136.658874) scale(0.11 -0.11)">
       <use xlink:href="#DejaVuSans-15"/>
       <use xlink:href="#DejaVuSans-11" transform="translate(63.625 0)"/>
       <use xlink:href="#DejaVuSans-18" transform="translate(95.40625 0)"/>
      </g>
     </g>
    </g>
    <g id="ytick_7">
     <g id="line2d_29">
      <path d="M 46.694297 84.08321 
L 660.494297 84.08321 
" clip-path="url(#p8d7e6164a2)" style="fill: none; stroke: #e6e6e6; stroke-width: 0.7; stroke-linecap: square"/>
     </g>
     <g id="line2d_30">
      <g>
       <use xlink:href="#m4b17a1567e" x="46.694297" y="84.08321" style="stroke: #000000; stroke-width: 0.8"/>
      </g>
     </g>
     <g id="text_16">
      <!-- 3.0 -->
      <g transform="translate(22.200859 88.261921) scale(0.11 -0.11)">
       <defs>
        <path id="DejaVuSans-16" d="M 2597 2516 
Q 3050 2419 3304 2112 
Q 3559 1806 3559 1356 
Q 3559 666 3084 287 
Q 2609 -91 1734 -91 
Q 1441 -91 1130 -33 
Q 819 25 488 141 
L 488 750 
Q 750 597 1062 519 
Q 1375 441 1716 441 
Q 2309 441 2620 675 
Q 2931 909 2931 1356 
Q 2931 1769 2642 2001 
Q 2353 2234 1838 2234 
L 1294 2234 
L 1294 2753 
L 1863 2753 
Q 2328 2753 2575 2939 
Q 2822 3125 2822 3475 
Q 2822 3834 2567 4026 
Q 2313 4219 1838 4219 
Q 1578 4219 1281 4162 
Q 984 4106 628 3988 
L 628 4550 
Q 988 4650 1302 4700 
Q 1616 4750 1894 4750 
Q 2613 4750 3031 4423 
Q 3450 4097 3450 3541 
Q 3450 3153 3228 2886 
Q 3006 2619 2597 2516 
z
" transform="scale(0.015625)"/>
       </defs>
       <use xlink:href="#DejaVuSans-16"/>
       <use xlink:href="#DejaVuSans-11" transform="translate(63.625 0)"/>
       <use xlink:href="#DejaVuSans-13" transform="translate(95.40625 0)"/>
      </g>
     </g>
    </g>
    <g id="text_17">
     <!-- mentions per 10k words -->
     <g transform="translate(15.558281 284.801572) rotate(-90) scale(0.11 -0.11)">
      <defs>
       <path id="DejaVuSans-50" d="M 3328 2828 
Q 3544 3216 3844 3400 
Q 4144 3584 4550 3584 
Q 5097 3584 5394 3201 
Q 5691 2819 5691 2113 
L 5691 0 
L 5113 0 
L 5113 2094 
Q 5113 2597 4934 2840 
Q 4756 3084 4391 3084 
Q 3944 3084 3684 2787 
Q 3425 2491 3425 1978 
L 3425 0 
L 2847 0 
L 2847 2094 
Q 2847 2600 2669 2842 
Q 2491 3084 2119 3084 
Q 1678 3084 1418 2786 
Q 1159 2488 1159 1978 
L 1159 0 
L 581 0 
L 581 3500 
L 1159 3500 
L 1159 2956 
Q 1356 3278 1631 3431 
Q 1906 3584 2284 3584 
Q 2666 3584 2933 3390 
Q 3200 3197 3328 2828 
z
" transform="scale(0.015625)"/>
       <path id="DejaVuSans-51" d="M 3513 2113 
L 3513 0 
L 2938 0 
L 2938 2094 
Q 2938 2591 2744 2837 
Q 2550 3084 2163 3084 
Q 1697 3084 1428 2787 
Q 1159 2491 1159 1978 
L 1159 0 
L 581 0 
L 581 3500 
L 1159 3500 
L 1159 2956 
Q 1366 3272 1645 3428 
Q 1925 3584 2291 3584 
Q 2894 3584 3203 3211 
Q 3513 2838 3513 2113 
z
" transform="scale(0.015625)"/>
       <path id="DejaVuSans-57" d="M 1172 4494 
L 1172 3500 
L 2356 3500 
L 2356 3053 
L 1172 3053 
L 1172 1153 
Q 1172 725 1289 603 
Q 1406 481 1766 481 
L 2356 481 
L 2356 0 
L 1766 0 
Q 1100 0 847 248 
Q 594 497 594 1153 
L 594 3053 
L 172 3053 
L 172 3500 
L 594 3500 
L 594 4494 
L 1172 4494 
z
" transform="scale(0.015625)"/>
       <path id="DejaVuSans-4c" d="M 603 3500 
L 1178 3500 
L 1178 0 
L 603 0 
L 603 3500 
z
M 603 4863 
L 1178 4863 
L 1178 4134 
L 603 4134 
L 603 4863 
z
" transform="scale(0.015625)"/>
       <path id="DejaVuSans-52" d="M 1959 3097 
Q 1497 3097 1228 2736 
Q 959 2375 959 1747 
Q 959 1119 1226 758 
Q 1494 397 1959 397 
Q 2419 397 2687 759 
Q 2956 1122 2956 1747 
Q 2956 2369 2687 2733 
Q 2419 3097 1959 3097 
z
M 1959 3584 
Q 2709 3584 3137 3096 
Q 3566 2609 3566 1747 
Q 3566 888 3137 398 
Q 2709 -91 1959 -91 
Q 1206 -91 779 398 
Q 353 888 353 1747 
Q 353 2609 779 3096 
Q 1206 3584 1959 3584 
z
" transform="scale(0.015625)"/>
       <path id="DejaVuSans-56" d="M 2834 3397 
L 2834 2853 
Q 2591 2978 2328 3040 
Q 2066 3103 1784 3103 
Q 1356 3103 1142 2972 
Q 928 2841 928 2578 
Q 928 2378 1081 2264 
Q 1234 2150 1697 2047 
L 1894 2003 
Q 2506 1872 2764 1633 
Q 3022 1394 3022 966 
Q 3022 478 2636 193 
Q 2250 -91 1575 -91 
Q 1294 -91 989 -36 
Q 684 19 347 128 
L 347 722 
Q 666 556 975 473 
Q 1284 391 1588 391 
Q 1994 391 2212 530 
Q 2431 669 2431 922 
Q 2431 1156 2273 1281 
Q 2116 1406 1581 1522 
L 1381 1569 
Q 847 1681 609 1914 
Q 372 2147 372 2553 
Q 372 3047 722 3315 
Q 1072 3584 1716 3584 
Q 2034 3584 2315 3537 
Q 2597 3491 2834 3397 
z
" transform="scale(0.015625)"/>
       <path id="DejaVuSans-3" transform="scale(0.015625)"/>
       <path id="DejaVuSans-53" d="M 1159 525 
L 1159 -1331 
L 581 -1331 
L 581 3500 
L 1159 3500 
L 1159 2969 
Q 1341 3281 1617 3432 
Q 1894 3584 2278 3584 
Q 2916 3584 3314 3078 
Q 3713 2572 3713 1747 
Q 3713 922 3314 415 
Q 2916 -91 2278 -91 
Q 1894 -91 1617 61 
Q 1341 213 1159 525 
z
M 3116 1747 
Q 3116 2381 2855 2742 
Q 2594 3103 2138 3103 
Q 1681 3103 1420 2742 
Q 1159 2381 1159 1747 
Q 1159 1113 1420 752 
Q 1681 391 2138 391 
Q 2594 391 2855 752 
Q 3116 1113 3116 1747 
z
" transform="scale(0.015625)"/>
       <path id="DejaVuSans-4e" d="M 581 4863 
L 1159 4863 
L 1159 1991 
L 2875 3500 
L 3609 3500 
L 1753 1863 
L 3688 0 
L 2938 0 
L 1159 1709 
L 1159 0 
L 581 0 
L 581 4863 
z
" transform="scale(0.015625)"/>
       <path id="DejaVuSans-5a" d="M 269 3500 
L 844 3500 
L 1563 769 
L 2278 3500 
L 2956 3500 
L 3675 769 
L 4391 3500 
L 4966 3500 
L 4050 0 
L 3372 0 
L 2619 2869 
L 1863 0 
L 1184 0 
L 269 3500 
z
" transform="scale(0.015625)"/>
       <path id="DejaVuSans-47" d="M 2906 2969 
L 2906 4863 
L 3481 4863 
L 3481 0 
L 2906 0 
L 2906 525 
Q 2725 213 2448 61 
Q 2172 -91 1784 -91 
Q 1150 -91 751 415 
Q 353 922 353 1747 
Q 353 2572 751 3078 
Q 1150 3584 1784 3584 
Q 2172 3584 2448 3432 
Q 2725 3281 2906 2969 
z
M 947 1747 
Q 947 1113 1208 752 
Q 1469 391 1925 391 
Q 2381 391 2643 752 
Q 2906 1113 2906 1747 
Q 2906 2381 2643 2742 
Q 2381 3103 1925 3103 
Q 1469 3103 1208 2742 
Q 947 2381 947 1747 
z
" transform="scale(0.015625)"/>
      </defs>
      <use xlink:href="#DejaVuSans-50"/>
      <use xlink:href="#DejaVuSans-48" transform="translate(97.40625 0)"/>
      <use xlink:href="#DejaVuSans-51" transform="translate(158.9375 0)"/>
      <use xlink:href="#DejaVuSans-57" transform="translate(222.3125 0)"/>
      <use xlink:href="#DejaVuSans-4c" transform="translate(261.515625 0)"/>
      <use xlink:href="#DejaVuSans-52" transform="translate(289.296875 0)"/>
      <use xlink:href="#DejaVuSans-51" transform="translate(350.484375 0)"/>
      <use xlink:href="#DejaVuSans-56" transform="translate(413.859375 0)"/>
      <use xlink:href="#DejaVuSans-3" transform="translate(465.953125 0)"/>
      <use xlink:href="#DejaVuSans-53" transform="translate(497.734375 0)"/>
      <use xlink:href="#DejaVuSans-48" transform="translate(561.21875 0)"/>
      <use xlink:href="#DejaVuSans-55" transform="translate(622.75 0)"/>
      <use xlink:href="#DejaVuSans-3" transform="translate(663.859375 0)"/>
      <use xlink:href="#DejaVuSans-14" transform="translate(695.640625 0)"/>
      <use xlink:href="#DejaVuSans-13" transform="translate(759.265625 0)"/>
      <use xlink:href="#DejaVuSans-4e" transform="translate(822.890625 0)"/>
      <use xlink:href="#DejaVuSans-3" transform="translate(880.796875 0)"/>
      <use xlink:href="#DejaVuSans-5a" transform="translate(912.578125 0)"/>
      <use xlink:href="#DejaVuSans-52" transform="translate(994.359375 0)"/>
      <use xlink:href="#DejaVuSans-55" transform="translate(1055.546875 0)"/>
      <use xlink:href="#DejaVuSans-47" transform="translate(1094.90625 0)"/>
      <use xlink:href="#DejaVuSans-56" transform="translate(1158.390625 0)"/>
     </g>
    </g>
   </g>
   <g id="line2d_31">
    <path d="M 74.594297 374.464931 
L 105.594297 374.464931 
L 136.594297 374.464931 
L 167.594297 370.403191 
L 198.594297 370.403191 
L 229.594297 370.403191 
L 260.594297 374.464931 
L 291.594297 374.464931 
L 322.594297 374.464931 
L 353.594297 374.464931 
L 384.594297 374.464931 
L 415.594297 374.464931 
L 446.594297 374.464931 
L 477.594297 374.464931 
L 508.594297 374.464931 
L 539.594297 371.496785 
L 570.594297 337.189736 
L 601.594297 299.488872 
L 632.594297 266.453061 
" clip-path="url(#p8d7e6164a2)" style="fill: none; stroke: #2e86ab; stroke-width: 2; stroke-linecap: square"/>
   </g>
   <g id="line2d_32">
    <path d="M 74.594297 270.385422 
L 105.594297 259.237458 
L 136.594297 255.045809 
L 167.594297 243.622113 
L 198.594297 234.093005 
L 229.594297 232.909124 
L 260.594297 218.996823 
L 291.594297 211.232541 
L 322.594297 240.051884 
L 353.594297 220.025848 
L 384.594297 233.320043 
L 415.594297 207.068953 
L 446.594297 218.270714 
L 477.594297 122.809208 
L 508.594297 124.54299 
L 539.594297 61.984931 
L 570.594297 121.519144 
L 601.594297 62.193332 
L 632.594297 79.694063 
" clip-path="url(#p8d7e6164a2)" style="fill: none; stroke: #d1495b; stroke-width: 2; stroke-linecap: square"/>
   </g>
   <g id="line2d_33">
    <path d="M 74.594297 299.536007 
L 105.594297 319.81066 
L 136.594297 312.18354 
L 167.594297 328.611718 
L 198.594297 333.313372 
L 229.594297 335.235153 
L 260.594297 356.192105 
L 291.594297 319.363633 
L 322.594297 317.408488 
L 353.594297 316.221878 
L 384.594297 328.130186 
L 415.594297 305.571141 
L 446.594297 272.618562 
L 477.594297 235.785447 
L 508.594297 223.738495 
L 539.594297 201.928257 
L 570.594297 252.245854 
L 601.594297 178.782217 
L 632.594297 169.985235 
" clip-path="url(#p8d7e6164a2)" style="fill: none; stroke: #e8a33d; stroke-width: 2; stroke-linecap: square"/>
   </g>
   <g id="line2d_34">
    <path d="M 74.594297 374.464931 
L 105.594297 374.464931 
L 136.594297 374.464931 
L 167.594297 374.464931 
L 198.594297 374.464931 
L 229.594297 374.464931 
L 260.594297 364.224465 
L 291.594297 361.59386 
L 322.594297 331.327793 
L 353.594297 334.668111 
L 384.594297 304.902502 
L 415.594297 311.544453 
L 446.594297 280.891923 
L 477.594297 298.757953 
L 508.594297 230.967886 
L 539.594297 238.839107 
L 570.594297 173.31951 
L 601.594297 234.10174 
L 632.594297 208.442332 
" clip-path="url(#p8d7e6164a2)" style="fill: none; stroke: #3c896d; stroke-width: 2; stroke-linecap: square"/>
   </g>
   <g id="line2d_35">
    <path d="M 74.594297 374.464931 
L 105.594297 374.464931 
L 136.594297 374.464931 
L 167.594297 374.464931 
L 198.594297 374.464931 
L 229.594297 374.464931 
L 260.594297 374.464931 
L 291.594297 374.464931 
L 322.594297 374.464931 
L 353.594297 374.464931 
L 384.594297 374.464931 
L 415.594297 374.464931 
L 446.594297 374.464931 
L 477.594297 374.464931 
L 508.594297 374.464931 
L 539.594297 374.464931 
L 570.594297 374.464931 
L 601.594297 369.752323 
L 632.594297 367.396019 
" clip-path="url(#p8d7e6164a2)" style="fill: none; stroke: #6a4c93; stroke-width: 2; stroke-linecap: square"/>
   </g>
   <g id="line2d_36">
    <path d="M 74.594297 319.738133 
L 105.594297 333.278744 
L 136.594297 330.99206 
L 167.594297 322.252029 
L 198.594297 291.358528 
L 229.594297 303.528285 
L 260.594297 319.040878 
L 291.594297 352.005429 
L 322.594297 348.192867 
L 353.594297 343.519596 
L 384.594297 308.769955 
L 415.594297 292.116939 
L 446.594297 269.193898 
L 477.594297 288.411416 
L 508.594297 270.458435 
L 539.594297 263.327682 
L 570.594297 275.77257 
L 601.594297 298.917399 
L 632.594297 323.474696 
" clip-path="url(#p8d7e6164a2)" style="fill: none; stroke: #1b998b; stroke-width: 2; stroke-linecap: square"/>
   </g>
   <g id="line2d_37">
    <path d="M 74.594297 184.313955 
L 105.594297 212.435203 
L 136.594297 281.853619 
L 167.594297 265.824119 
L 198.594297 285.266461 
L 229.594297 245.364175 
L 260.594297 265.976664 
L 291.594297 250.229471 
L 322.594297 244.715976 
L 353.594297 247.690436 
L 384.594297 226.925352 
L 415.594297 239.38949 
L 446.594297 211.943805 
L 477.594297 195.25778 
L 508.594297 185.179504 
L 539.594297 218.408332 
L 570.594297 235.96613 
L 601.594297 256.754655 
L 632.594297 251.326143 
" clip-path="url(#p8d7e6164a2)" style="fill: none; stroke: #c1666b; stroke-width: 2; stroke-linecap: square"/>
   </g>
   <g id="line2d_38">
    <path d="M 74.594297 374.464931 
L 105.594297 374.464931 
L 136.594297 374.464931 
L 167.594297 372.434061 
L 198.594297 372.434061 
L 229.594297 372.434061 
L 260.594297 374.464931 
L 291.594297 374.464931 
L 322.594297 374.464931 
L 353.594297 374.464931 
L 384.594297 374.464931 
L 415.594297 374.464931 
L 446.594297 374.464931 
L 477.594297 374.464931 
L 508.594297 351.611385 
L 539.594297 351.611385 
L 570.594297 351.611385 
L 601.594297 365.039715 
L 632.594297 360.327107 
" clip-path="url(#p8d7e6164a2)" style="fill: none; stroke: #8d99ae; stroke-width: 2; stroke-linecap: square"/>
   </g>
   <g id="line2d_39">
    <path d="M 74.594297 374.464931 
L 105.594297 373.289517 
L 136.594297 373.289517 
L 167.594297 371.258647 
L 198.594297 372.434061 
L 229.594297 372.434061 
L 260.594297 374.464931 
L 291.594297 374.464931 
L 322.594297 367.739138 
L 353.594297 367.739138 
L 384.594297 367.739138 
L 415.594297 372.496255 
L 446.594297 372.496255 
L 477.594297 372.496255 
L 508.594297 374.464931 
L 539.594297 365.560493 
L 570.594297 354.124811 
L 601.594297 332.918074 
L 632.594297 325.501302 
" clip-path="url(#p8d7e6164a2)" style="fill: none; stroke: #587291; stroke-width: 2; stroke-linecap: square"/>
   </g>
   <g id="patch_3">
    <path d="M 46.694297 390.088931 
L 46.694297 46.360931 
" style="fill: none; stroke: #444444; stroke-width: 0.8; stroke-linejoin: miter; stroke-linecap: square"/>
   </g>
   <g id="patch_4">
    <path d="M 46.694297 390.088931 
L 660.494297 390.088931 
" style="fill: none; stroke: #444444; stroke-width: 0.8; stroke-linejoin: miter; stroke-linecap: square"/>
   </g>
   <g id="patch_5">
    <path d="M 497.01966 32.636462 
Q 548.905665 151.173296 600.34335 268.685918 
" style="fill: none; stroke: #d1495b; stroke-linecap: round"/>
    <path d="M 600.548741 264.66624 
L 600.34335 268.685918 
L 597.250842 266.109798 
" style="fill: none; stroke: #d1495b; stroke-linecap: round"/>
   </g>
   <g id="text_18">
    <!-- LLMs appear -->
    <g style="fill: #d1495b" transform="translate(462.094297 14.93877) scale(0.09 -0.09)">
     <defs>
      <path id="DejaVuSans-2f" d="M 628 4666 
L 1259 4666 
L 1259 531 
L 3531 531 
L 3531 0 
L 628 0 
L 628 4666 
z
" transform="scale(0.015625)"/>
      <path id="DejaVuSans-30" d="M 628 4666 
L 1569 4666 
L 2759 1491 
L 3956 4666 
L 4897 4666 
L 4897 0 
L 4281 0 
L 4281 4097 
L 3078 897 
L 2444 897 
L 1241 4097 
L 1241 0 
L 628 0 
L 628 4666 
z
" transform="scale(0.015625)"/>
     </defs>
     <use xlink:href="#DejaVuSans-2f"/>
     <use xlink:href="#DejaVuSans-2f" transform="translate(55.71875 0)"/>
     <use xlink:href="#DejaVuSans-30" transform="translate(111.4375 0)"/>
     <use xlink:href="#DejaVuSans-56" transform="translate(197.71875 0)"/>
     <use xlink:href="#DejaVuSans-3" transform="translate(249.8125 0)"/>
     <use xlink:href="#DejaVuSans-44" transform="translate(281.59375 0)"/>
     <use xlink:href="#DejaVuSans-53" transform="translate(342.875 0)"/>
     <use xlink:href="#DejaVuSans-53" transform="translate(406.359375 0)"/>
     <use xlink:href="#DejaVuSans-48" transform="translate(469.84375 0)"/>
     <use xlink:href="#DejaVuSans-44" transform="translate(531.375 0)"/>
     <use xlink:href="#DejaVuSans-55" transform="translate(592.65625 0)"/>
    </g>
    <!-- (2023→) -->
    <g style="fill: #d1495b" transform="translate(462.094297 25.740527) scale(0.09 -0.09)">
     <defs>
      <path id="DejaVuSans-b" d="M 1984 4856 
Q 1566 4138 1362 3434 
Q 1159 2731 1159 2009 
Q 1159 1288 1364 580 
Q 1569 -128 1984 -844 
L 1484 -844 
Q 1016 -109 783 600 
Q 550 1309 550 2009 
Q 550 2706 781 3412 
Q 1013 4119 1484 4856 
L 1984 4856 
z
" transform="scale(0.015625)"/>
      <path id="DejaVuSans-c1c" d="M 5050 2147 
L 5050 1866 
L 3822 638 
L 3447 1013 
L 4175 1741 
L 366 1741 
L 366 2272 
L 4175 2272 
L 3447 3000 
L 3822 3375 
L 5050 2147 
z
" transform="scale(0.015625)"/>
      <path id="DejaVuSans-c" d="M 513 4856 
L 1013 4856 
Q 1481 4119 1714 3412 
Q 1947 2706 1947 2009 
Q 1947 1309 1714 600 
Q 1481 -109 1013 -844 
L 513 -844 
Q 928 -128 1133 580 
Q 1338 1288 1338 2009 
Q 1338 2731 1133 3434 
Q 928 4138 513 4856 
z
" transform="scale(0.015625)"/>
     </defs>
     <use xlink:href="#DejaVuSans-b"/>
     <use xlink:href="#DejaVuSans-15" transform="translate(39.015625 0)"/>
     <use xlink:href="#DejaVuSans-13" transform="translate(102.640625 0)"/>
     <use xlink:href="#DejaVuSans-15" transform="translate(166.265625 0)"/>
     <use xlink:href="#DejaVuSans-16" transform="translate(229.890625 0)"/>
     <use xlink:href="#DejaVuSans-c1c" transform="translate(293.515625 0)"/>
     <use xlink:href="#DejaVuSans-c" transform="translate(377.3125 0)"/>
    </g>
   </g>
   <g id="text_19">
    <!-- The AI/ML wave at CNS (2007–2025) -->
    <g transform="translate(221.582344 40.360931) scale(0.13 -0.13)">
     <defs>
      <path id="DejaVuSans-Bold-37" d="M 31 4666 
L 4331 4666 
L 4331 3756 
L 2784 3756 
L 2784 0 
L 1581 0 
L 1581 3756 
L 31 3756 
L 31 4666 
z
" transform="scale(0.015625)"/>
      <path id="DejaVuSans-Bold-4b" d="M 4056 2131 
L 4056 0 
L 2931 0 
L 2931 347 
L 2931 1625 
Q 2931 2084 2911 2256 
Q 2891 2428 2841 2509 
Q 2775 2619 2662 2680 
Q 2550 2741 2406 2741 
Q 2056 2741 1856 2470 
Q 1656 2200 1656 1722 
L 1656 0 
L 538 0 
L 538 4863 
L 1656 4863 
L 1656 2988 
Q 1909 3294 2193 3439 
Q 2478 3584 2822 3584 
Q 3428 3584 3742 3212 
Q 4056 2841 4056 2131 
z
" transform="scale(0.015625)"/>
      <path id="DejaVuSans-Bold-48" d="M 4031 1759 
L 4031 1441 
L 1416 1441 
Q 1456 1047 1700 850 
Q 1944 653 2381 653 
Q 2734 653 3104 758 
Q 3475 863 3866 1075 
L 3866 213 
Q 3469 63 3072 -14 
Q 2675 -91 2278 -91 
Q 1328 -91 801 392 
Q 275 875 275 1747 
Q 275 2603 792 3093 
Q 1309 3584 2216 3584 
Q 3041 3584 3536 3087 
Q 4031 2591 4031 1759 
z
M 2881 2131 
Q 2881 2450 2695 2645 
Q 2509 2841 2209 2841 
Q 1884 2841 1681 2658 
Q 1478 2475 1428 2131 
L 2881 2131 
z
" transform="scale(0.015625)"/>
      <path id="DejaVuSans-Bold-3" transform="scale(0.015625)"/>
      <path id="DejaVuSans-Bold-24" d="M 3419 850 
L 1538 850 
L 1241 0 
L 31 0 
L 1759 4666 
L 3194 4666 
L 4922 0 
L 3713 0 
L 3419 850 
z
M 1838 1716 
L 3116 1716 
L 2478 3572 
L 1838 1716 
z
" transform="scale(0.015625)"/>
      <path id="DejaVuSans-Bold-2c" d="M 588 4666 
L 1791 4666 
L 1791 0 
L 588 0 
L 588 4666 
z
" transform="scale(0.015625)"/>
      <path id="DejaVuSans-Bold-12" d="M 1644 4666 
L 2338 4666 
L 691 -594 
L 0 -594 
L 1644 4666 
z
" transform="scale(0.015625)"/>
      <path id="DejaVuSans-Bold-30" d="M 588 4666 
L 2119 4666 
L 3181 2169 
L 4250 4666 
L 5778 4666 
L 5778 0 
L 4641 0 
L 4641 3413 
L 3566 897 
L 2803 897 
L 1728 3413 
L 1728 0 
L 588 0 
L 588 4666 
z
" transform="scale(0.015625)"/>
      <path id="DejaVuSans-Bold-2f" d="M 588 4666 
L 1791 4666 
L 1791 909 
L 3903 909 
L 3903 0 
L 588 0 
L 588 4666 
z
" transform="scale(0.015625)"/>
      <path id="DejaVuSans-Bold-5a" d="M 225 3500 
L 1313 3500 
L 1900 1088 
L 2491 3500 
L 3425 3500 
L 4013 1113 
L 4603 3500 
L 5691 3500 
L 4769 0 
L 3547 0 
L 2956 2406 
L 2369 0 
L 1147 0 
L 225 3500 
z
" transform="scale(0.015625)"/>
      <path id="DejaVuSans-Bold-44" d="M 2106 1575 
Q 1756 1575 1579 1456 
Q 1403 1338 1403 1106 
Q 1403 894 1545 773 
Q 1688 653 1941 653 
Q 2256 653 2472 879 
Q 2688 1106 2688 1447 
L 2688 1575 
L 2106 1575 
z
M 3816 1997 
L 3816 0 
L 2688 0 
L 2688 519 
Q 2463 200 2181 54 
Q 1900 -91 1497 -91 
Q 953 -91 614 226 
Q 275 544 275 1050 
Q 275 1666 698 1953 
Q 1122 2241 2028 2241 
L 2688 2241 
L 2688 2328 
Q 2688 2594 2478 2717 
Q 2269 2841 1825 2841 
Q 1466 2841 1156 2769 
Q 847 2697 581 2553 
L 581 3406 
Q 941 3494 1303 3539 
Q 1666 3584 2028 3584 
Q 2975 3584 3395 3211 
Q 3816 2838 3816 1997 
z
" transform="scale(0.015625)"/>
      <path id="DejaVuSans-Bold-59" d="M 97 3500 
L 1216 3500 
L 2088 1081 
L 2956 3500 
L 4078 3500 
L 2700 0 
L 1472 0 
L 97 3500 
z
" transform="scale(0.015625)"/>
      <path id="DejaVuSans-Bold-57" d="M 1759 4494 
L 1759 3500 
L 2913 3500 
L 2913 2700 
L 1759 2700 
L 1759 1216 
Q 1759 972 1856 886 
Q 1953 800 2241 800 
L 2816 800 
L 2816 0 
L 1856 0 
Q 1194 0 917 276 
Q 641 553 641 1216 
L 641 2700 
L 84 2700 
L 84 3500 
L 641 3500 
L 641 4494 
L 1759 4494 
z
" transform="scale(0.015625)"/>
      <path id="DejaVuSans-Bold-26" d="M 4288 256 
Q 3956 84 3597 -3 
Q 3238 -91 2847 -91 
Q 1681 -91 1000 561 
Q 319 1213 319 2328 
Q 319 3447 1000 4098 
Q 1681 4750 2847 4750 
Q 3238 4750 3597 4662 
Q 3956 4575 4288 4403 
L 4288 3438 
Q 3953 3666 3628 3772 
Q 3303 3878 2944 3878 
Q 2300 3878 1931 3465 
Q 1563 3053 1563 2328 
Q 1563 1606 1931 1193 
Q 2300 781 2944 781 
Q 3303 781 3628 887 
Q 3953 994 4288 1222 
L 4288 256 
z
" transform="scale(0.015625)"/>
      <path id="DejaVuSans-Bold-31" d="M 588 4666 
L 1931 4666 
L 3628 1466 
L 3628 4666 
L 4769 4666 
L 4769 0 
L 3425 0 
L 1728 3200 
L 1728 0 
L 588 0 
L 588 4666 
z
" transform="scale(0.015625)"/>
      <path id="DejaVuSans-Bold-36" d="M 3834 4519 
L 3834 3531 
Q 3450 3703 3084 3790 
Q 2719 3878 2394 3878 
Q 1963 3878 1756 3759 
Q 1550 3641 1550 3391 
Q 1550 3203 1689 3098 
Q 1828 2994 2194 2919 
L 2706 2816 
Q 3484 2659 3812 2340 
Q 4141 2022 4141 1434 
Q 4141 663 3683 286 
Q 3225 -91 2284 -91 
Q 1841 -91 1394 -6 
Q 947 78 500 244 
L 500 1259 
Q 947 1022 1364 901 
Q 1781 781 2169 781 
Q 2563 781 2772 912 
Q 2981 1044 2981 1288 
Q 2981 1506 2839 1625 
Q 2697 1744 2272 1838 
L 1806 1941 
Q 1106 2091 782 2419 
Q 459 2747 459 3303 
Q 459 4000 909 4375 
Q 1359 4750 2203 4750 
Q 2588 4750 2994 4692 
Q 3400 4634 3834 4519 
z
" transform="scale(0.015625)"/>
      <path id="DejaVuSans-Bold-b" d="M 2413 -844 
L 1484 -844 
Q 1006 -72 778 623 
Q 550 1319 550 2003 
Q 550 2688 779 3389 
Q 1009 4091 1484 4856 
L 2413 4856 
Q 2013 4116 1813 3408 
Q 1613 2700 1613 2009 
Q 1613 1319 1811 609 
Q 2009 -100 2413 -844 
z
" transform="scale(0.015625)"/>
      <path id="DejaVuSans-Bold-15" d="M 1844 884 
L 3897 884 
L 3897 0 
L 506 0 
L 506 884 
L 2209 2388 
Q 2438 2594 2547 2791 
Q 2656 2988 2656 3200 
Q 2656 3528 2436 3728 
Q 2216 3928 1850 3928 
Q 1569 3928 1234 3808 
Q 900 3688 519 3450 
L 519 4475 
Q 925 4609 1322 4679 
Q 1719 4750 2100 4750 
Q 2938 4750 3402 4381 
Q 3866 4013 3866 3353 
Q 3866 2972 3669 2642 
Q 3472 2313 2841 1759 
L 1844 884 
z
" transform="scale(0.015625)"/>
      <path id="DejaVuSans-Bold-13" d="M 2944 2338 
Q 2944 3213 2780 3570 
Q 2616 3928 2228 3928 
Q 1841 3928 1675 3570 
Q 1509 3213 1509 2338 
Q 1509 1453 1675 1090 
Q 1841 728 2228 728 
Q 2613 728 2778 1090 
Q 2944 1453 2944 2338 
z
M 4147 2328 
Q 4147 1169 3647 539 
Q 3147 -91 2228 -91 
Q 1306 -91 806 539 
Q 306 1169 306 2328 
Q 306 3491 806 4120 
Q 1306 4750 2228 4750 
Q 3147 4750 3647 4120 
Q 4147 3491 4147 2328 
z
" transform="scale(0.015625)"/>
      <path id="DejaVuSans-Bold-1a" d="M 428 4666 
L 3944 4666 
L 3944 3988 
L 2125 0 
L 953 0 
L 2675 3781 
L 428 3781 
L 428 4666 
z
" transform="scale(0.015625)"/>
      <path id="DejaVuSans-Bold-af5" d="M 344 2156 
L 2856 2156 
L 2856 1350 
L 344 1350 
L 344 2156 
z
" transform="scale(0.015625)"/>
      <path id="DejaVuSans-Bold-18" d="M 678 4666 
L 3669 4666 
L 3669 3781 
L 1638 3781 
L 1638 3059 
Q 1775 3097 1914 3117 
Q 2053 3138 2203 3138 
Q 3056 3138 3531 2711 
Q 4006 2284 4006 1522 
Q 4006 766 3489 337 
Q 2972 -91 2053 -91 
Q 1656 -91 1267 -14 
Q 878 63 494 219 
L 494 1166 
Q 875 947 1217 837 
Q 1559 728 1863 728 
Q 2300 728 2551 942 
Q 2803 1156 2803 1522 
Q 2803 1891 2551 2103 
Q 2300 2316 1863 2316 
Q 1603 2316 1309 2248 
Q 1016 2181 678 2041 
L 678 4666 
z
" transform="scale(0.015625)"/>
      <path id="DejaVuSans-Bold-c" d="M 513 -844 
Q 913 -100 1113 609 
Q 1313 1319 1313 2009 
Q 1313 2700 1113 3408 
Q 913 4116 513 4856 
L 1441 4856 
Q 1916 4091 2145 3389 
Q 2375 2688 2375 2003 
Q 2375 1319 2147 623 
Q 1919 -72 1441 -844 
L 513 -844 
z
" transform="scale(0.015625)"/>
     </defs>
     <use xlink:href="#DejaVuSans-Bold-37"/>
     <use xlink:href="#DejaVuSans-Bold-4b" transform="translate(68.21875 0)"/>
     <use xlink:href="#DejaVuSans-Bold-48" transform="translate(139.40625 0)"/>
     <use xlink:href="#DejaVuSans-Bold-3" transform="translate(207.234375 0)"/>
     <use xlink:href="#DejaVuSans-Bold-24" transform="translate(242.046875 0)"/>
     <use xlink:href="#DejaVuSans-Bold-2c" transform="translate(319.4375 0)"/>
     <use xlink:href="#DejaVuSans-Bold-12" transform="translate(356.640625 0)"/>
     <use xlink:href="#DejaVuSans-Bold-30" transform="translate(393.171875 0)"/>
     <use xlink:href="#DejaVuSans-Bold-2f" transform="translate(492.6875 0)"/>
     <use xlink:href="#DejaVuSans-Bold-3" transform="translate(556.40625 0)"/>
     <use xlink:href="#DejaVuSans-Bold-5a" transform="translate(591.21875 0)"/>
     <use xlink:href="#DejaVuSans-Bold-44" transform="translate(683.609375 0)"/>
     <use xlink:href="#DejaVuSans-Bold-59" transform="translate(751.09375 0)"/>
     <use xlink:href="#DejaVuSans-Bold-48" transform="translate(816.28125 0)"/>
     <use xlink:href="#DejaVuSans-Bold-3" transform="translate(884.109375 0)"/>
     <use xlink:href="#DejaVuSans-Bold-44" transform="translate(918.921875 0)"/>
     <use xlink:href="#DejaVuSans-Bold-57" transform="translate(986.40625 0)"/>
     <use xlink:href="#DejaVuSans-Bold-3" transform="translate(1034.203125 0)"/>
     <use xlink:href="#DejaVuSans-Bold-26" transform="translate(1069.015625 0)"/>
     <use xlink:href="#DejaVuSans-Bold-31" transform="translate(1142.40625 0)"/>
     <use xlink:href="#DejaVuSans-Bold-36" transform="translate(1226.09375 0)"/>
     <use xlink:href="#DejaVuSans-Bold-3" transform="translate(1298.109375 0)"/>
     <use xlink:href="#DejaVuSans-Bold-b" transform="translate(1332.921875 0)"/>
     <use xlink:href="#DejaVuSans-Bold-15" transform="translate(1378.625 0)"/>
     <use xlink:href="#DejaVuSans-Bold-13" transform="translate(1448.203125 0)"/>
     <use xlink:href="#DejaVuSans-Bold-13" transform="translate(1517.78125 0)"/>
     <use xlink:href="#DejaVuSans-Bold-1a" transform="translate(1587.359375 0)"/>
     <use xlink:href="#DejaVuSans-Bold-af5" transform="translate(1656.9375 0)"/>
     <use xlink:href="#DejaVuSans-Bold-15" transform="translate(1706.9375 0)"/>
     <use xlink:href="#DejaVuSans-Bold-13" transform="translate(1776.515625 0)"/>
     <use xlink:href="#DejaVuSans-Bold-15" transform="translate(1846.09375 0)"/>
     <use xlink:href="#DejaVuSans-Bold-18" transform="translate(1915.671875 0)"/>
     <use xlink:href="#DejaVuSans-Bold-c" transform="translate(1985.25 0)"/>
    </g>
   </g>
   <g id="legend_1">
    <g id="line2d_40">
     <path d="M 53.894297 56.839681 
L 61.894297 56.839681 
L 69.894297 56.839681 
" style="fill: none; stroke: #2e86ab; stroke-width: 2; stroke-linecap: square"/>
    </g>
    <g id="text_20">
     <!-- LLM -->
     <g transform="translate(76.294297 59.639681) scale(0.08 -0.08)">
      <use xlink:href="#DejaVuSans-2f"/>
      <use xlink:href="#DejaVuSans-2f" transform="translate(55.71875 0)"/>
      <use xlink:href="#DejaVuSans-30" transform="translate(111.4375 0)"/>
     </g>
    </g>
    <g id="line2d_41">
     <path d="M 53.894297 68.840306 
L 61.894297 68.840306 
L 69.894297 68.840306 
" style="fill: none; stroke: #d1495b; stroke-width: 2; stroke-linecap: square"/>
    </g>
    <g id="text_21">
     <!-- RNN -->
     <g transform="translate(76.294297 71.640306) scale(0.08 -0.08)">
      <defs>
       <path id="DejaVuSans-35" d="M 2841 2188 
Q 3044 2119 3236 1894 
Q 3428 1669 3622 1275 
L 4263 0 
L 3584 0 
L 2988 1197 
Q 2756 1666 2539 1819 
Q 2322 1972 1947 1972 
L 1259 1972 
L 1259 0 
L 628 0 
L 628 4666 
L 2053 4666 
Q 2853 4666 3247 4331 
Q 3641 3997 3641 3322 
Q 3641 2881 3436 2590 
Q 3231 2300 2841 2188 
z
M 1259 4147 
L 1259 2491 
L 2053 2491 
Q 2509 2491 2742 2702 
Q 2975 2913 2975 3322 
Q 2975 3731 2742 3939 
Q 2509 4147 2053 4147 
L 1259 4147 
z
" transform="scale(0.015625)"/>
       <path id="DejaVuSans-31" d="M 628 4666 
L 1478 4666 
L 3547 763 
L 3547 4666 
L 4159 4666 
L 4159 0 
L 3309 0 
L 1241 3903 
L 1241 0 
L 628 0 
L 628 4666 
z
" transform="scale(0.015625)"/>
      </defs>
      <use xlink:href="#DejaVuSans-35"/>
      <use xlink:href="#DejaVuSans-31" transform="translate(69.484375 0)"/>
      <use xlink:href="#DejaVuSans-31" transform="translate(144.296875 0)"/>
     </g>
    </g>
    <g id="line2d_42">
     <path d="M 53.894297 80.840931 
L 61.894297 80.840931 
L 69.894297 80.840931 
" style="fill: none; stroke: #e8a33d; stroke-width: 2; stroke-linecap: square"/>
    </g>
    <g id="text_22">
     <!-- backpropagation -->
     <g transform="translate(76.294297 83.640931) scale(0.08 -0.08)">
      <defs>
       <path id="DejaVuSans-45" d="M 3116 1747 
Q 3116 2381 2855 2742 
Q 2594 3103 2138 3103 
Q 1681 3103 1420 2742 
Q 1159 2381 1159 1747 
Q 1159 1113 1420 752 
Q 1681 391 2138 391 
Q 2594 391 2855 752 
Q 3116 1113 3116 1747 
z
M 1159 2969 
Q 1341 3281 1617 3432 
Q 1894 3584 2278 3584 
Q 2916 3584 3314 3078 
Q 3713 2572 3713 1747 
Q 3713 922 3314 415 
Q 2916 -91 2278 -91 
Q 1894 -91 1617 61 
Q 1341 213 1159 525 
L 1159 0 
L 581 0 
L 581 4863 
L 1159 4863 
L 1159 2969 
z
" transform="scale(0.015625)"/>
       <path id="DejaVuSans-46" d="M 3122 3366 
L 3122 2828 
Q 2878 2963 2633 3030 
Q 2388 3097 2138 3097 
Q 1578 3097 1268 2742 
Q 959 2388 959 1747 
Q 959 1106 1268 751 
Q 1578 397 2138 397 
Q 2388 397 2633 464 
Q 2878 531 3122 666 
L 3122 134 
Q 2881 22 2623 -34 
Q 2366 -91 2075 -91 
Q 1284 -91 818 406 
Q 353 903 353 1747 
Q 353 2603 823 3093 
Q 1294 3584 2113 3584 
Q 2378 3584 2631 3529 
Q 2884 3475 3122 3366 
z
" transform="scale(0.015625)"/>
       <path id="DejaVuSans-4a" d="M 2906 1791 
Q 2906 2416 2648 2759 
Q 2391 3103 1925 3103 
Q 1463 3103 1205 2759 
Q 947 2416 947 1791 
Q 947 1169 1205 825 
Q 1463 481 1925 481 
Q 2391 481 2648 825 
Q 2906 1169 2906 1791 
z
M 3481 434 
Q 3481 -459 3084 -895 
Q 2688 -1331 1869 -1331 
Q 1566 -1331 1297 -1286 
Q 1028 -1241 775 -1147 
L 775 -588 
Q 1028 -725 1275 -790 
Q 1522 -856 1778 -856 
Q 2344 -856 2625 -561 
Q 2906 -266 2906 331 
L 2906 616 
Q 2728 306 2450 153 
Q 2172 0 1784 0 
Q 1141 0 747 490 
Q 353 981 353 1791 
Q 353 2603 747 3093 
Q 1141 3584 1784 3584 
Q 2172 3584 2450 3431 
Q 2728 3278 2906 2969 
L 2906 3500 
L 3481 3500 
L 3481 434 
z
" transform="scale(0.015625)"/>
      </defs>
      <use xlink:href="#DejaVuSans-45"/>
      <use xlink:href="#DejaVuSans-44" transform="translate(63.484375 0)"/>
      <use xlink:href="#DejaVuSans-46" transform="translate(124.765625 0)"/>
      <use xlink:href="#DejaVuSans-4e" transform="translate(179.75 0)"/>
      <use xlink:href="#DejaVuSans-53" transform="translate(237.65625 0)"/>
      <use xlink:href="#DejaVuSans-55" transform="translate(301.140625 0)"/>
      <use xlink:href="#DejaVuSans-52" transform="translate(340.046875 0)"/>
      <use xlink:href="#DejaVuSans-53" transform="translate(401.234375 0)"/>
      <use xlink:href="#DejaVuSans-44" transform="translate(464.71875 0)"/>
      <use xlink:href="#DejaVuSans-4a" transform="translate(526 0)"/>
      <use xlink:href="#DejaVuSans-44" transform="translate(589.484375 0)"/>
      <use xlink:href="#DejaVuSans-57" transform="translate(650.765625 0)"/>
      <use xlink:href="#DejaVuSans-4c" transform="translate(689.96875 0)"/>
      <use xlink:href="#DejaVuSans-52" transform="translate(717.75 0)"/>
      <use xlink:href="#DejaVuSans-51" transform="translate(778.9375 0)"/>
     </g>
    </g>
    <g id="line2d_43">
     <path d="M 53.894297 92.841556 
L 61.894297 92.841556 
L 69.894297 92.841556 
" style="fill: none; stroke: #3c896d; stroke-width: 2; stroke-linecap: square"/>
    </g>
    <g id="text_23">
     <!-- deep learning -->
     <g transform="translate(76.294297 95.641556) scale(0.08 -0.08)">
      <defs>
       <path id="DejaVuSans-4f" d="M 603 4863 
L 1178 4863 
L 1178 0 
L 603 0 
L 603 4863 
z
" transform="scale(0.015625)"/>
      </defs>
      <use xlink:href="#DejaVuSans-47"/>
      <use xlink:href="#DejaVuSans-48" transform="translate(63.484375 0)"/>
      <use xlink:href="#DejaVuSans-48" transform="translate(125.015625 0)"/>
      <use xlink:href="#DejaVuSans-53" transform="translate(186.546875 0)"/>
      <use xlink:href="#DejaVuSans-3" transform="translate(250.03125 0)"/>
      <use xlink:href="#DejaVuSans-4f" transform="translate(281.8125 0)"/>
      <use xlink:href="#DejaVuSans-48" transform="translate(309.59375 0)"/>
      <use xlink:href="#DejaVuSans-44" transform="translate(371.125 0)"/>
      <use xlink:href="#DejaVuSans-55" transform="translate(432.40625 0)"/>
      <use xlink:href="#DejaVuSans-51" transform="translate(471.765625 0)"/>
      <use xlink:href="#DejaVuSans-4c" transform="translate(535.140625 0)"/>
      <use xlink:href="#DejaVuSans-51" transform="translate(562.921875 0)"/>
      <use xlink:href="#DejaVuSans-4a" transform="translate(626.296875 0)"/>
     </g>
    </g>
    <g id="line2d_44">
     <path d="M 53.894297 104.842181 
L 61.894297 104.842181 
L 69.894297 104.842181 
" style="fill: none; stroke: #6a4c93; stroke-width: 2; stroke-linecap: square"/>
    </g>
    <g id="text_24">
     <!-- foundation model -->
     <g transform="translate(76.294297 107.642181) scale(0.08 -0.08)">
      <defs>
       <path id="DejaVuSans-49" d="M 2375 4863 
L 2375 4384 
L 1825 4384 
Q 1516 4384 1395 4259 
Q 1275 4134 1275 3809 
L 1275 3500 
L 2222 3500 
L 2222 3053 
L 1275 3053 
L 1275 0 
L 697 0 
L 697 3053 
L 147 3053 
L 147 3500 
L 697 3500 
L 697 3744 
Q 697 4328 969 4595 
Q 1241 4863 1831 4863 
L 2375 4863 
z
" transform="scale(0.015625)"/>
       <path id="DejaVuSans-58" d="M 544 1381 
L 544 3500 
L 1119 3500 
L 1119 1403 
Q 1119 906 1312 657 
Q 1506 409 1894 409 
Q 2359 409 2629 706 
Q 2900 1003 2900 1516 
L 2900 3500 
L 3475 3500 
L 3475 0 
L 2900 0 
L 2900 538 
Q 2691 219 2414 64 
Q 2138 -91 1772 -91 
Q 1169 -91 856 284 
Q 544 659 544 1381 
z
M 1991 3584 
L 1991 3584 
z
" transform="scale(0.015625)"/>
      </defs>
      <use xlink:href="#DejaVuSans-49"/>
      <use xlink:href="#DejaVuSans-52" transform="translate(35.203125 0)"/>
      <use xlink:href="#DejaVuSans-58" transform="translate(96.390625 0)"/>
      <use xlink:href="#DejaVuSans-51" transform="translate(159.765625 0)"/>
      <use xlink:href="#DejaVuSans-47" transform="translate(223.140625 0)"/>
      <use xlink:href="#DejaVuSans-44" transform="translate(286.625 0)"/>
      <use xlink:href="#DejaVuSans-57" transform="translate(347.90625 0)"/>
      <use xlink:href="#DejaVuSans-4c" transform="translate(387.109375 0)"/>
      <use xlink:href="#DejaVuSans-52" transform="translate(414.890625 0)"/>
      <use xlink:href="#DejaVuSans-51" transform="translate(476.078125 0)"/>
      <use xlink:href="#DejaVuSans-3" transform="translate(539.453125 0)"/>
      <use xlink:href="#DejaVuSans-50" transform="translate(571.234375 0)"/>
      <use xlink:href="#DejaVuSans-52" transform="translate(668.640625 0)"/>
      <use xlink:href="#DejaVuSans-47" transform="translate(729.828125 0)"/>
      <use xlink:href="#DejaVuSans-48" transform="translate(793.3125 0)"/>
      <use xlink:href="#DejaVuSans-4f" transform="translate(854.84375 0)"/>
     </g>
    </g>
    <g id="line2d_45">
     <path d="M 162.904297 56.839681 
L 170.904297 56.839681 
L 178.904297 56.839681 
" style="fill: none; stroke: #1b998b; stroke-width: 2; stroke-linecap: square"/>
    </g>
    <g id="text_25">
     <!-- generative model -->
     <g transform="translate(185.304297 59.639681) scale(0.08 -0.08)">
      <defs>
       <path id="DejaVuSans-59" d="M 191 3500 
L 800 3500 
L 1894 563 
L 2988 3500 
L 3597 3500 
L 2284 0 
L 1503 0 
L 191 3500 
z
" transform="scale(0.015625)"/>
      </defs>
      <use xlink:href="#DejaVuSans-4a"/>
      <use xlink:href="#DejaVuSans-48" transform="translate(63.484375 0)"/>
      <use xlink:href="#DejaVuSans-51" transform="translate(125.015625 0)"/>
      <use xlink:href="#DejaVuSans-48" transform="translate(188.390625 0)"/>
      <use xlink:href="#DejaVuSans-55" transform="translate(249.921875 0)"/>
      <use xlink:href="#DejaVuSans-44" transform="translate(291.03125 0)"/>
      <use xlink:href="#DejaVuSans-57" transform="translate(352.3125 0)"/>
      <use xlink:href="#DejaVuSans-4c" transform="translate(391.515625 0)"/>
      <use xlink:href="#DejaVuSans-59" transform="translate(419.296875 0)"/>
      <use xlink:href="#DejaVuSans-48" transform="translate(478.484375 0)"/>
      <use xlink:href="#DejaVuSans-3" transform="translate(540.015625 0)"/>
      <use xlink:href="#DejaVuSans-50" transform="translate(571.796875 0)"/>
      <use xlink:href="#DejaVuSans-52" transform="translate(669.203125 0)"/>
      <use xlink:href="#DejaVuSans-47" transform="translate(730.390625 0)"/>
      <use xlink:href="#DejaVuSans-48" transform="translate(793.875 0)"/>
      <use xlink:href="#DejaVuSans-4f" transform="translate(855.40625 0)"/>
     </g>
    </g>
    <g id="line2d_46">
     <path d="M 162.904297 68.840306 
L 170.904297 68.840306 
L 178.904297 68.840306 
" style="fill: none; stroke: #c1666b; stroke-width: 2; stroke-linecap: square"/>
    </g>
    <g id="text_26">
     <!-- reinforcement learning -->
     <g transform="translate(185.304297 71.640306) scale(0.08 -0.08)">
      <use xlink:href="#DejaVuSans-55"/>
      <use xlink:href="#DejaVuSans-48" transform="translate(38.90625 0)"/>
      <use xlink:href="#DejaVuSans-4c" transform="translate(100.4375 0)"/>
      <use xlink:href="#DejaVuSans-51" transform="translate(128.21875 0)"/>
      <use xlink:href="#DejaVuSans-49" transform="translate(191.59375 0)"/>
      <use xlink:href="#DejaVuSans-52" transform="translate(226.796875 0)"/>
      <use xlink:href="#DejaVuSans-55" transform="translate(287.984375 0)"/>
      <use xlink:href="#DejaVuSans-46" transform="translate(326.890625 0)"/>
      <use xlink:href="#DejaVuSans-48" transform="translate(381.875 0)"/>
      <use xlink:href="#DejaVuSans-50" transform="translate(443.40625 0)"/>
      <use xlink:href="#DejaVuSans-48" transform="translate(540.8125 0)"/>
      <use xlink:href="#DejaVuSans-51" transform="translate(602.34375 0)"/>
      <use xlink:href="#DejaVuSans-57" transform="translate(665.71875 0)"/>
      <use xlink:href="#DejaVuSans-3" transform="translate(704.921875 0)"/>
      <use xlink:href="#DejaVuSans-4f" transform="translate(736.703125 0)"/>
      <use xlink:href="#DejaVuSans-48" transform="translate(764.484375 0)"/>
      <use xlink:href="#DejaVuSans-44" transform="translate(826.015625 0)"/>
      <use xlink:href="#DejaVuSans-55" transform="translate(887.296875 0)"/>
      <use xlink:href="#DejaVuSans-51" transform="translate(926.65625 0)"/>
      <use xlink:href="#DejaVuSans-4c" transform="translate(990.03125 0)"/>
      <use xlink:href="#DejaVuSans-51" transform="translate(1017.8125 0)"/>
      <use xlink:href="#DejaVuSans-4a" transform="translate(1081.1875 0)"/>
     </g>
    </g>
    <g id="line2d_47">
     <path d="M 162.904297 80.840931 
L 170.904297 80.840931 
L 178.904297 80.840931 
" style="fill: none; stroke: #8d99ae; stroke-width: 2; stroke-linecap: square"/>
    </g>
    <g id="text_27">
     <!-- self-supervised -->
     <g transform="translate(185.304297 83.640931) scale(0.08 -0.08)">
      <defs>
       <path id="DejaVuSans-10" d="M 313 2009 
L 1997 2009 
L 1997 1497 
L 313 1497 
L 313 2009 
z
" transform="scale(0.015625)"/>
      </defs>
      <use xlink:href="#DejaVuSans-56"/>
      <use xlink:href="#DejaVuSans-48" transform="translate(52.09375 0)"/>
      <use xlink:href="#DejaVuSans-4f" transform="translate(113.625 0)"/>
      <use xlink:href="#DejaVuSans-49" transform="translate(141.40625 0)"/>
      <use xlink:href="#DejaVuSans-10" transform="translate(171.140625 0)"/>
      <use xlink:href="#DejaVuSans-56" transform="translate(207.21875 0)"/>
      <use xlink:href="#DejaVuSans-58" transform="translate(259.3125 0)"/>
      <use xlink:href="#DejaVuSans-53" transform="translate(322.6875 0)"/>
      <use xlink:href="#DejaVuSans-48" transform="translate(386.171875 0)"/>
      <use xlink:href="#DejaVuSans-55" transform="translate(447.703125 0)"/>
      <use xlink:href="#DejaVuSans-59" transform="translate(488.8125 0)"/>
      <use xlink:href="#DejaVuSans-4c" transform="translate(548 0)"/>
      <use xlink:href="#DejaVuSans-56" transform="translate(575.78125 0)"/>
      <use xlink:href="#DejaVuSans-48" transform="translate(627.875 0)"/>
      <use xlink:href="#DejaVuSans-47" transform="translate(689.40625 0)"/>
     </g>
    </g>
    <g id="line2d_48">
     <path d="M 162.904297 92.841556 
L 170.904297 92.841556 
L 178.904297 92.841556 
" style="fill: none; stroke: #587291; stroke-width: 2; stroke-linecap: square"/>
    </g>
    <g id="text_28">
     <!-- transformer -->
     <g transform="translate(185.304297 95.641556) scale(0.08 -0.08)">
      <use xlink:href="#DejaVuSans-57"/>
      <use xlink:href="#DejaVuSans-55" transform="translate(39.203125 0)"/>
      <use xlink:href="#DejaVuSans-44" transform="translate(80.3125 0)"/>
      <use xlink:href="#DejaVuSans-51" transform="translate(141.59375 0)"/>
      <use xlink:href="#DejaVuSans-56" transform="translate(204.96875 0)"/>
      <use xlink:href="#DejaVuSans-49" transform="translate(257.0625 0)"/>
      <use xlink:href="#DejaVuSans-52" transform="translate(292.265625 0)"/>
      <use xlink:href="#DejaVuSans-55" transform="translate(353.453125 0)"/>
      <use xlink:href="#DejaVuSans-50" transform="translate(392.8125 0)"/>
      <use xlink:href="#DejaVuSans-48" transform="translate(490.21875 0)"/>
      <use xlink:href="#DejaVuSans-55" transform="translate(551.75 0)"/>
     </g>
    </g>
   </g>
  </g>
 </g>
 <defs>
  <clipPath id="p8d7e6164a2">
   <rect x="46.694297" y="46.360931" width="613.8" height="343.728"/>
  </clipPath>
 </defs>
</svg>
