<?xml version="1.0" encoding="utf-8" standalone="no"?>
<!DOCTYPE svg PUBLIC "-//W3C//DTD SVG 1.1//EN"
  "http://www.w3.org/Graphics/SVG/1.1/DTD/svg11.dtd">
<svg xmlns:xlink="http://www.w3.org/1999/xlink" width="654.296719pt" height="562.238828pt" viewBox="0 0 654.296719 562.238828" xmlns="http://www.w3.org/2000/svg" version="1.1">
 <metadata>
  <rdf:RDF xmlns:dc="http://purl.org/dc/elements/1.1/" xmlns:cc="http://creativecommons.org/ns#" xmlns:rdf="http://www.w3.org/1999/02/22-rdf-syntax-ns#">
   <cc:Work>
    <dc:type rdf:resource="http://purl.org/dc/dcmitype/StillImage"/>
    <dc:date>2026-06-28T15:46:43.113454</dc:date>
    <dc:format>image/svg+xml</dc:format>
    <dc:creator>
     <cc:Agent>
      <dc:title>Matplotlib v3.11.0, https://matplotlib.org/</dc:title>
     </cc:Agent>
    </dc:creator>
   </cc:Work>
  </rdf:RDF>
 </metadata>
 <defs>
  <style type="text/css">*{stroke-linejoin: round; stroke-linecap: butt}</style>
 </defs>
 <g id="figure_1">
  <g id="patch_1">
   <path d="M 0 562.238828 
L 654.296719 562.238828 
L 654.296719 0 
L 0 0 
z
" style="fill: #ffffff"/>
  </g>
  <g id="axes_1">
   <g id="patch_2">
    <path d="M 116.996719 522.037969 
L 647.096719 522.037969 
L 647.096719 23.077969 
L 116.996719 23.077969 
z
" style="fill: #ffffff"/>
   </g>
   <g id="patch_3">
    <path d="M 477.029505 499.357969 
L 141.092173 499.357969 
L 141.092173 484.11091 
L 477.029505 484.11091 
z
" clip-path="url(#pacb3313ce5)" style="fill: #d1495b"/>
   </g>
   <g id="patch_4">
    <path d="M 477.029505 480.299145 
L 341.948 480.299145 
L 341.948 465.052086 
L 477.029505 465.052086 
z
" clip-path="url(#pacb3313ce5)" style="fill: #d1495b"/>
   </g>
   <g id="patch_5">
    <path d="M 477.029505 461.240322 
L 370.299365 461.240322 
L 370.299365 445.993263 
L 477.029505 445.993263 
z
" clip-path="url(#pacb3313ce5)" style="fill: #d1495b"/>
   </g>
   <g id="patch_6">
    <path d="M 477.029505 442.181498 
L 388.629945 442.181498 
L 388.629945 426.934439 
L 477.029505 426.934439 
z
" clip-path="url(#pacb3313ce5)" style="fill: #d1495b"/>
   </g>
   <g id="patch_7">
    <path d="M 477.029505 423.122675 
L 401.575202 423.122675 
L 401.575202 407.875616 
L 477.029505 407.875616 
z
" clip-path="url(#pacb3313ce5)" style="fill: #d1495b"/>
   </g>
   <g id="patch_8">
    <path d="M 477.029505 404.063851 
L 418.857458 404.063851 
L 418.857458 388.816792 
L 477.029505 388.816792 
z
" clip-path="url(#pacb3313ce5)" style="fill: #d1495b"/>
   </g>
   <g id="patch_9">
    <path d="M 477.029505 385.005028 
L 419.831404 385.005028 
L 419.831404 369.757969 
L 477.029505 369.757969 
z
" clip-path="url(#pacb3313ce5)" style="fill: #d1495b"/>
   </g>
   <g id="patch_10">
    <path d="M 477.029505 365.946204 
L 424.927782 365.946204 
L 424.927782 350.699145 
L 477.029505 350.699145 
z
" clip-path="url(#pacb3313ce5)" style="fill: #d1495b"/>
   </g>
   <g id="patch_11">
    <path d="M 477.029505 346.887381 
L 432.497532 346.887381 
L 432.497532 331.640322 
L 477.029505 331.640322 
z
" clip-path="url(#pacb3313ce5)" style="fill: #d1495b"/>
   </g>
   <g id="patch_12">
    <path d="M 477.029505 327.828557 
L 433.037812 327.828557 
L 433.037812 312.581498 
L 477.029505 312.581498 
z
" clip-path="url(#pacb3313ce5)" style="fill: #d1495b"/>
   </g>
   <g id="patch_13">
    <path d="M 477.029505 308.769733 
L 437.577075 308.769733 
L 437.577075 293.522675 
L 477.029505 293.522675 
z
" clip-path="url(#pacb3313ce5)" style="fill: #d1495b"/>
   </g>
   <g id="patch_14">
    <path d="M 477.029505 289.71091 
L 440.373163 289.71091 
L 440.373163 274.463851 
L 477.029505 274.463851 
z
" clip-path="url(#pacb3313ce5)" style="fill: #d1495b"/>
   </g>
   <g id="patch_15">
    <path d="M 477.029505 270.652086 
L 477.032401 270.652086 
L 477.032401 255.405028 
L 477.029505 255.405028 
z
" clip-path="url(#pacb3313ce5)" style="fill: #2e86ab"/>
   </g>
   <g id="patch_16">
    <path d="M 477.029505 251.593263 
L 488.721515 251.593263 
L 488.721515 236.346204 
L 477.029505 236.346204 
z
" clip-path="url(#pacb3313ce5)" style="fill: #2e86ab"/>
   </g>
   <g id="patch_17">
    <path d="M 477.029505 232.534439 
L 495.87202 232.534439 
L 495.87202 217.287381 
L 477.029505 217.287381 
z
" clip-path="url(#pacb3313ce5)" style="fill: #2e86ab"/>
   </g>
   <g id="patch_18">
    <path d="M 477.029505 213.475616 
L 495.995036 213.475616 
L 495.995036 198.228557 
L 477.029505 198.228557 
z
" clip-path="url(#pacb3313ce5)" style="fill: #2e86ab"/>
   </g>
   <g id="patch_19">
    <path d="M 477.029505 194.416792 
L 499.224243 194.416792 
L 499.224243 179.169733 
L 477.029505 179.169733 
z
" clip-path="url(#pacb3313ce5)" style="fill: #2e86ab"/>
   </g>
   <g id="patch_20">
    <path d="M 477.029505 175.357969 
L 499.825189 175.357969 
L 499.825189 160.11091 
L 477.029505 160.11091 
z
" clip-path="url(#pacb3313ce5)" style="fill: #2e86ab"/>
   </g>
   <g id="patch_21">
    <path d="M 477.029505 156.299145 
L 510.126776 156.299145 
L 510.126776 141.052086 
L 477.029505 141.052086 
z
" clip-path="url(#pacb3313ce5)" style="fill: #2e86ab"/>
   </g>
   <g id="patch_22">
    <path d="M 477.029505 137.240322 
L 539.051197 137.240322 
L 539.051197 121.993263 
L 477.029505 121.993263 
z
" clip-path="url(#pacb3313ce5)" style="fill: #2e86ab"/>
   </g>
   <g id="patch_23">
    <path d="M 477.029505 118.181498 
L 557.793462 118.181498 
L 557.793462 102.934439 
L 477.029505 102.934439 
z
" clip-path="url(#pacb3313ce5)" style="fill: #2e86ab"/>
   </g>
   <g id="patch_24">
    <path d="M 477.029505 99.122675 
L 574.74267 99.122675 
L 574.74267 83.875616 
L 477.029505 83.875616 
z
" clip-path="url(#pacb3313ce5)" style="fill: #2e86ab"/>
   </g>
   <g id="patch_25">
    <path d="M 477.029505 80.063851 
L 619.147572 80.063851 
L 619.147572 64.816792 
L 477.029505 64.816792 
z
" clip-path="url(#pacb3313ce5)" style="fill: #2e86ab"/>
   </g>
   <g id="patch_26">
    <path d="M 477.029505 61.005028 
L 623.001264 61.005028 
L 623.001264 45.757969 
L 477.029505 45.757969 
z
" clip-path="url(#pacb3313ce5)" style="fill: #2e86ab"/>
   </g>
   <g id="matplotlib.axis_1">
    <g id="xtick_1">
     <g id="line2d_1">
      <path d="M 163.123993 522.037969 
L 163.123993 23.077969 
" clip-path="url(#pacb3313ce5)" style="fill: none; stroke: #e6e6e6; stroke-width: 0.7; stroke-linecap: square"/>
     </g>
     <g id="line2d_2">
      <defs>
       <path id="mf58fed943d" d="M 0 0 
L 0 3.5 
" style="stroke: #000000; stroke-width: 0.8"/>
      </defs>
      <g>
       <use xlink:href="#mf58fed943d" x="163.123993" y="522.037969" style="stroke: #000000; stroke-width: 0.8"/>
      </g>
     </g>
     <g id="text_1">
      <!-- −20 -->
      <g transform="translate(151.516415 537.395391) scale(0.11 -0.11)">
       <defs>
        <path id="DejaVuSans-c9c" d="M 678 2272 
L 4684 2272 
L 4684 1741 
L 678 1741 
L 678 2272 
z
" transform="scale(0.015625)"/>
        <path id="DejaVuSans-15" d="M 1228 531 
L 3431 531 
L 3431 0 
L 469 0 
L 469 531 
Q 828 903 1448 1529 
Q 2069 2156 2228 2338 
Q 2531 2678 2651 2914 
Q 2772 3150 2772 3378 
Q 2772 3750 2511 3984 
Q 2250 4219 1831 4219 
Q 1534 4219 1204 4116 
Q 875 4013 500 3803 
L 500 4441 
Q 881 4594 1212 4672 
Q 1544 4750 1819 4750 
Q 2544 4750 2975 4387 
Q 3406 4025 3406 3419 
Q 3406 3131 3298 2873 
Q 3191 2616 2906 2266 
Q 2828 2175 2409 1742 
Q 1991 1309 1228 531 
z
" transform="scale(0.015625)"/>
        <path id="DejaVuSans-13" d="M 2034 4250 
Q 1547 4250 1301 3770 
Q 1056 3291 1056 2328 
Q 1056 1369 1301 889 
Q 1547 409 2034 409 
Q 2525 409 2770 889 
Q 3016 1369 3016 2328 
Q 3016 3291 2770 3770 
Q 2525 4250 2034 4250 
z
M 2034 4750 
Q 2819 4750 3233 4129 
Q 3647 3509 3647 2328 
Q 3647 1150 3233 529 
Q 2819 -91 2034 -91 
Q 1250 -91 836 529 
Q 422 1150 422 2328 
Q 422 3509 836 4129 
Q 1250 4750 2034 4750 
z
" transform="scale(0.015625)"/>
       </defs>
       <use xlink:href="#DejaVuSans-c9c"/>
       <use xlink:href="#DejaVuSans-15" transform="translate(83.796875 0)"/>
       <use xlink:href="#DejaVuSans-13" transform="translate(147.421875 0)"/>
      </g>
     </g>
    </g>
    <g id="xtick_2">
     <g id="line2d_3">
      <path d="M 241.600371 522.037969 
L 241.600371 23.077969 
" clip-path="url(#pacb3313ce5)" style="fill: none; stroke: #e6e6e6; stroke-width: 0.7; stroke-linecap: square"/>
     </g>
     <g id="line2d_4">
      <g>
       <use xlink:href="#mf58fed943d" x="241.600371" y="522.037969" style="stroke: #000000; stroke-width: 0.8"/>
      </g>
     </g>
     <g id="text_2">
      <!-- −15 -->
      <g transform="translate(229.992793 537.395391) scale(0.11 -0.11)">
       <defs>
        <path id="DejaVuSans-14" d="M 794 531 
L 1825 531 
L 1825 4091 
L 703 3866 
L 703 4441 
L 1819 4666 
L 2450 4666 
L 2450 531 
L 3481 531 
L 3481 0 
L 794 0 
L 794 531 
z
" transform="scale(0.015625)"/>
        <path id="DejaVuSans-18" d="M 691 4666 
L 3169 4666 
L 3169 4134 
L 1269 4134 
L 1269 2991 
Q 1406 3038 1543 3061 
Q 1681 3084 1819 3084 
Q 2600 3084 3056 2656 
Q 3513 2228 3513 1497 
Q 3513 744 3044 326 
Q 2575 -91 1722 -91 
Q 1428 -91 1123 -41 
Q 819 9 494 109 
L 494 744 
Q 775 591 1075 516 
Q 1375 441 1709 441 
Q 2250 441 2565 725 
Q 2881 1009 2881 1497 
Q 2881 1984 2565 2268 
Q 2250 2553 1709 2553 
Q 1456 2553 1204 2497 
Q 953 2441 691 2322 
L 691 4666 
z
" transform="scale(0.015625)"/>
       </defs>
       <use xlink:href="#DejaVuSans-c9c"/>
       <use xlink:href="#DejaVuSans-14" transform="translate(83.796875 0)"/>
       <use xlink:href="#DejaVuSans-18" transform="translate(147.421875 0)"/>
      </g>
     </g>
    </g>
    <g id="xtick_3">
     <g id="line2d_5">
      <path d="M 320.076749 522.037969 
L 320.076749 23.077969 
" clip-path="url(#pacb3313ce5)" style="fill: none; stroke: #e6e6e6; stroke-width: 0.7; stroke-linecap: square"/>
     </g>
     <g id="line2d_6">
      <g>
       <use xlink:href="#mf58fed943d" x="320.076749" y="522.037969" style="stroke: #000000; stroke-width: 0.8"/>
      </g>
     </g>
     <g id="text_3">
      <!-- −10 -->
      <g transform="translate(308.469171 537.395391) scale(0.11 -0.11)">
       <use xlink:href="#DejaVuSans-c9c"/>
       <use xlink:href="#DejaVuSans-14" transform="translate(83.796875 0)"/>
       <use xlink:href="#DejaVuSans-13" transform="translate(147.421875 0)"/>
      </g>
     </g>
    </g>
    <g id="xtick_4">
     <g id="line2d_7">
      <path d="M 398.553127 522.037969 
L 398.553127 23.077969 
" clip-path="url(#pacb3313ce5)" style="fill: none; stroke: #e6e6e6; stroke-width: 0.7; stroke-linecap: square"/>
     </g>
     <g id="line2d_8">
      <g>
       <use xlink:href="#mf58fed943d" x="398.553127" y="522.037969" style="stroke: #000000; stroke-width: 0.8"/>
      </g>
     </g>
     <g id="text_4">
      <!-- −5 -->
      <g transform="translate(390.444924 537.395391) scale(0.11 -0.11)">
       <use xlink:href="#DejaVuSans-c9c"/>
       <use xlink:href="#DejaVuSans-18" transform="translate(83.796875 0)"/>
      </g>
     </g>
    </g>
    <g id="xtick_5">
     <g id="line2d_9">
      <path d="M 477.029505 522.037969 
L 477.029505 23.077969 
" clip-path="url(#pacb3313ce5)" style="fill: none; stroke: #e6e6e6; stroke-width: 0.7; stroke-linecap: square"/>
     </g>
     <g id="line2d_10">
      <g>
       <use xlink:href="#mf58fed943d" x="477.029505" y="522.037969" style="stroke: #000000; stroke-width: 0.8"/>
      </g>
     </g>
     <g id="text_5">
      <!-- 0 -->
      <g transform="translate(473.53013 537.395391) scale(0.11 -0.11)">
       <use xlink:href="#DejaVuSans-13"/>
      </g>
     </g>
    </g>
    <g id="xtick_6">
     <g id="line2d_11">
      <path d="M 555.505883 522.037969 
L 555.505883 23.077969 
" clip-path="url(#pacb3313ce5)" style="fill: none; stroke: #e6e6e6; stroke-width: 0.7; stroke-linecap: square"/>
     </g>
     <g id="line2d_12">
      <g>
       <use xlink:href="#mf58fed943d" x="555.505883" y="522.037969" style="stroke: #000000; stroke-width: 0.8"/>
      </g>
     </g>
     <g id="text_6">
      <!-- 5 -->
      <g transform="translate(552.006508 537.395391) scale(0.11 -0.11)">
       <use xlink:href="#DejaVuSans-18"/>
      </g>
     </g>
    </g>
    <g id="xtick_7">
     <g id="line2d_13">
      <path d="M 633.982261 522.037969 
L 633.982261 23.077969 
" clip-path="url(#pacb3313ce5)" style="fill: none; stroke: #e6e6e6; stroke-width: 0.7; stroke-linecap: square"/>
     </g>
     <g id="line2d_14">
      <g>
       <use xlink:href="#mf58fed943d" x="633.982261" y="522.037969" style="stroke: #000000; stroke-width: 0.8"/>
      </g>
     </g>
     <g id="text_7">
      <!-- 10 -->
      <g transform="translate(626.983511 537.395391) scale(0.11 -0.11)">
       <use xlink:href="#DejaVuSans-14"/>
       <use xlink:href="#DejaVuSans-13" transform="translate(63.625 0)"/>
      </g>
     </g>
    </g>
    <g id="text_8">
     <!-- Δ mentions per 10k words  (CNS − CoSyNe) -->
     <g transform="translate(261.16875 552.39625) scale(0.11 -0.11)">
      <defs>
       <path id="DejaVuSans-329" d="M 2188 4044 
L 906 525 
L 3472 525 
L 2188 4044 
z
M 50 0 
L 1831 4666 
L 2547 4666 
L 4325 0 
L 50 0 
z
" transform="scale(0.015625)"/>
       <path id="DejaVuSans-3" transform="scale(0.015625)"/>
       <path id="DejaVuSans-50" d="M 3328 2828 
Q 3544 3216 3844 3400 
Q 4144 3584 4550 3584 
Q 5097 3584 5394 3201 
Q 5691 2819 5691 2113 
L 5691 0 
L 5113 0 
L 5113 2094 
Q 5113 2597 4934 2840 
Q 4756 3084 4391 3084 
Q 3944 3084 3684 2787 
Q 3425 2491 3425 1978 
L 3425 0 
L 2847 0 
L 2847 2094 
Q 2847 2600 2669 2842 
Q 2491 3084 2119 3084 
Q 1678 3084 1418 2786 
Q 1159 2488 1159 1978 
L 1159 0 
L 581 0 
L 581 3500 
L 1159 3500 
L 1159 2956 
Q 1356 3278 1631 3431 
Q 1906 3584 2284 3584 
Q 2666 3584 2933 3390 
Q 3200 3197 3328 2828 
z
" transform="scale(0.015625)"/>
       <path id="DejaVuSans-48" d="M 3597 1894 
L 3597 1613 
L 953 1613 
Q 991 1019 1311 708 
Q 1631 397 2203 397 
Q 2534 397 2845 478 
Q 3156 559 3463 722 
L 3463 178 
Q 3153 47 2828 -22 
Q 2503 -91 2169 -91 
Q 1331 -91 842 396 
Q 353 884 353 1716 
Q 353 2575 817 3079 
Q 1281 3584 2069 3584 
Q 2775 3584 3186 3129 
Q 3597 2675 3597 1894 
z
M 3022 2063 
Q 3016 2534 2758 2815 
Q 2500 3097 2075 3097 
Q 1594 3097 1305 2825 
Q 1016 2553 972 2059 
L 3022 2063 
z
" transform="scale(0.015625)"/>
       <path id="DejaVuSans-51" d="M 3513 2113 
L 3513 0 
L 2938 0 
L 2938 2094 
Q 2938 2591 2744 2837 
Q 2550 3084 2163 3084 
Q 1697 3084 1428 2787 
Q 1159 2491 1159 1978 
L 1159 0 
L 581 0 
L 581 3500 
L 1159 3500 
L 1159 2956 
Q 1366 3272 1645 3428 
Q 1925 3584 2291 3584 
Q 2894 3584 3203 3211 
Q 3513 2838 3513 2113 
z
" transform="scale(0.015625)"/>
       <path id="DejaVuSans-57" d="M 1172 4494 
L 1172 3500 
L 2356 3500 
L 2356 3053 
L 1172 3053 
L 1172 1153 
Q 1172 725 1289 603 
Q 1406 481 1766 481 
L 2356 481 
L 2356 0 
L 1766 0 
Q 1100 0 847 248 
Q 594 497 594 1153 
L 594 3053 
L 172 3053 
L 172 3500 
L 594 3500 
L 594 4494 
L 1172 4494 
z
" transform="scale(0.015625)"/>
       <path id="DejaVuSans-4c" d="M 603 3500 
L 1178 3500 
L 1178 0 
L 603 0 
L 603 3500 
z
M 603 4863 
L 1178 4863 
L 1178 4134 
L 603 4134 
L 603 4863 
z
" transform="scale(0.015625)"/>
       <path id="DejaVuSans-52" d="M 1959 3097 
Q 1497 3097 1228 2736 
Q 959 2375 959 1747 
Q 959 1119 1226 758 
Q 1494 397 1959 397 
Q 2419 397 2687 759 
Q 2956 1122 2956 1747 
Q 2956 2369 2687 2733 
Q 2419 3097 1959 3097 
z
M 1959 3584 
Q 2709 3584 3137 3096 
Q 3566 2609 3566 1747 
Q 3566 888 3137 398 
Q 2709 -91 1959 -91 
Q 1206 -91 779 398 
Q 353 888 353 1747 
Q 353 2609 779 3096 
Q 1206 3584 1959 3584 
z
" transform="scale(0.015625)"/>
       <path id="DejaVuSans-56" d="M 2834 3397 
L 2834 2853 
Q 2591 2978 2328 3040 
Q 2066 3103 1784 3103 
Q 1356 3103 1142 2972 
Q 928 2841 928 2578 
Q 928 2378 1081 2264 
Q 1234 2150 1697 2047 
L 1894 2003 
Q 2506 1872 2764 1633 
Q 3022 1394 3022 966 
Q 3022 478 2636 193 
Q 2250 -91 1575 -91 
Q 1294 -91 989 -36 
Q 684 19 347 128 
L 347 722 
Q 666 556 975 473 
Q 1284 391 1588 391 
Q 1994 391 2212 530 
Q 2431 669 2431 922 
Q 2431 1156 2273 1281 
Q 2116 1406 1581 1522 
L 1381 1569 
Q 847 1681 609 1914 
Q 372 2147 372 2553 
Q 372 3047 722 3315 
Q 1072 3584 1716 3584 
Q 2034 3584 2315 3537 
Q 2597 3491 2834 3397 
z
" transform="scale(0.015625)"/>
       <path id="DejaVuSans-53" d="M 1159 525 
L 1159 -1331 
L 581 -1331 
L 581 3500 
L 1159 3500 
L 1159 2969 
Q 1341 3281 1617 3432 
Q 1894 3584 2278 3584 
Q 2916 3584 3314 3078 
Q 3713 2572 3713 1747 
Q 3713 922 3314 415 
Q 2916 -91 2278 -91 
Q 1894 -91 1617 61 
Q 1341 213 1159 525 
z
M 3116 1747 
Q 3116 2381 2855 2742 
Q 2594 3103 2138 3103 
Q 1681 3103 1420 2742 
Q 1159 2381 1159 1747 
Q 1159 1113 1420 752 
Q 1681 391 2138 391 
Q 2594 391 2855 752 
Q 3116 1113 3116 1747 
z
" transform="scale(0.015625)"/>
       <path id="DejaVuSans-55" d="M 2631 2963 
Q 2534 3019 2420 3045 
Q 2306 3072 2169 3072 
Q 1681 3072 1420 2755 
Q 1159 2438 1159 1844 
L 1159 0 
L 581 0 
L 581 3500 
L 1159 3500 
L 1159 2956 
Q 1341 3275 1631 3429 
Q 1922 3584 2338 3584 
Q 2397 3584 2469 3576 
Q 2541 3569 2628 3553 
L 2631 2963 
z
" transform="scale(0.015625)"/>
       <path id="DejaVuSans-4e" d="M 581 4863 
L 1159 4863 
L 1159 1991 
L 2875 3500 
L 3609 3500 
L 1753 1863 
L 3688 0 
L 2938 0 
L 1159 1709 
L 1159 0 
L 581 0 
L 581 4863 
z
" transform="scale(0.015625)"/>
       <path id="DejaVuSans-5a" d="M 269 3500 
L 844 3500 
L 1563 769 
L 2278 3500 
L 2956 3500 
L 3675 769 
L 4391 3500 
L 4966 3500 
L 4050 0 
L 3372 0 
L 2619 2869 
L 1863 0 
L 1184 0 
L 269 3500 
z
" transform="scale(0.015625)"/>
       <path id="DejaVuSans-47" d="M 2906 2969 
L 2906 4863 
L 3481 4863 
L 3481 0 
L 2906 0 
L 2906 525 
Q 2725 213 2448 61 
Q 2172 -91 1784 -91 
Q 1150 -91 751 415 
Q 353 922 353 1747 
Q 353 2572 751 3078 
Q 1150 3584 1784 3584 
Q 2172 3584 2448 3432 
Q 2725 3281 2906 2969 
z
M 947 1747 
Q 947 1113 1208 752 
Q 1469 391 1925 391 
Q 2381 391 2643 752 
Q 2906 1113 2906 1747 
Q 2906 2381 2643 2742 
Q 2381 3103 1925 3103 
Q 1469 3103 1208 2742 
Q 947 2381 947 1747 
z
" transform="scale(0.015625)"/>
       <path id="DejaVuSans-b" d="M 1984 4856 
Q 1566 4138 1362 3434 
Q 1159 2731 1159 2009 
Q 1159 1288 1364 580 
Q 1569 -128 1984 -844 
L 1484 -844 
Q 1016 -109 783 600 
Q 550 1309 550 2009 
Q 550 2706 781 3412 
Q 1013 4119 1484 4856 
L 1984 4856 
z
" transform="scale(0.015625)"/>
       <path id="DejaVuSans-26" d="M 4122 4306 
L 4122 3641 
Q 3803 3938 3442 4084 
Q 3081 4231 2675 4231 
Q 1875 4231 1450 3742 
Q 1025 3253 1025 2328 
Q 1025 1406 1450 917 
Q 1875 428 2675 428 
Q 3081 428 3442 575 
Q 3803 722 4122 1019 
L 4122 359 
Q 3791 134 3420 21 
Q 3050 -91 2638 -91 
Q 1578 -91 968 557 
Q 359 1206 359 2328 
Q 359 3453 968 4101 
Q 1578 4750 2638 4750 
Q 3056 4750 3426 4639 
Q 3797 4528 4122 4306 
z
" transform="scale(0.015625)"/>
       <path id="DejaVuSans-31" d="M 628 4666 
L 1478 4666 
L 3547 763 
L 3547 4666 
L 4159 4666 
L 4159 0 
L 3309 0 
L 1241 3903 
L 1241 0 
L 628 0 
L 628 4666 
z
" transform="scale(0.015625)"/>
       <path id="DejaVuSans-36" d="M 3425 4513 
L 3425 3897 
Q 3066 4069 2747 4153 
Q 2428 4238 2131 4238 
Q 1616 4238 1336 4038 
Q 1056 3838 1056 3469 
Q 1056 3159 1242 3001 
Q 1428 2844 1947 2747 
L 2328 2669 
Q 3034 2534 3370 2195 
Q 3706 1856 3706 1288 
Q 3706 609 3251 259 
Q 2797 -91 1919 -91 
Q 1588 -91 1214 -16 
Q 841 59 441 206 
L 441 856 
Q 825 641 1194 531 
Q 1563 422 1919 422 
Q 2459 422 2753 634 
Q 3047 847 3047 1241 
Q 3047 1584 2836 1778 
Q 2625 1972 2144 2069 
L 1759 2144 
Q 1053 2284 737 2584 
Q 422 2884 422 3419 
Q 422 4038 858 4394 
Q 1294 4750 2059 4750 
Q 2388 4750 2728 4690 
Q 3069 4631 3425 4513 
z
" transform="scale(0.015625)"/>
       <path id="DejaVuSans-5c" d="M 2059 -325 
Q 1816 -950 1584 -1140 
Q 1353 -1331 966 -1331 
L 506 -1331 
L 506 -850 
L 844 -850 
Q 1081 -850 1212 -737 
Q 1344 -625 1503 -206 
L 1606 56 
L 191 3500 
L 800 3500 
L 1894 763 
L 2988 3500 
L 3597 3500 
L 2059 -325 
z
" transform="scale(0.015625)"/>
       <path id="DejaVuSans-c" d="M 513 4856 
L 1013 4856 
Q 1481 4119 1714 3412 
Q 1947 2706 1947 2009 
Q 1947 1309 1714 600 
Q 1481 -109 1013 -844 
L 513 -844 
Q 928 -128 1133 580 
Q 1338 1288 1338 2009 
Q 1338 2731 1133 3434 
Q 928 4138 513 4856 
z
" transform="scale(0.015625)"/>
      </defs>
      <use xlink:href="#DejaVuSans-329"/>
      <use xlink:href="#DejaVuSans-3" transform="translate(68.40625 0)"/>
      <use xlink:href="#DejaVuSans-50" transform="translate(100.1875 0)"/>
      <use xlink:href="#DejaVuSans-48" transform="translate(197.59375 0)"/>
      <use xlink:href="#DejaVuSans-51" transform="translate(259.125 0)"/>
      <use xlink:href="#DejaVuSans-57" transform="translate(322.5 0)"/>
      <use xlink:href="#DejaVuSans-4c" transform="translate(361.703125 0)"/>
      <use xlink:href="#DejaVuSans-52" transform="translate(389.484375 0)"/>
      <use xlink:href="#DejaVuSans-51" transform="translate(450.671875 0)"/>
      <use xlink:href="#DejaVuSans-56" transform="translate(514.046875 0)"/>
      <use xlink:href="#DejaVuSans-3" transform="translate(566.140625 0)"/>
      <use xlink:href="#DejaVuSans-53" transform="translate(597.921875 0)"/>
      <use xlink:href="#DejaVuSans-48" transform="translate(661.40625 0)"/>
      <use xlink:href="#DejaVuSans-55" transform="translate(722.9375 0)"/>
      <use xlink:href="#DejaVuSans-3" transform="translate(764.046875 0)"/>
      <use xlink:href="#DejaVuSans-14" transform="translate(795.828125 0)"/>
      <use xlink:href="#DejaVuSans-13" transform="translate(859.453125 0)"/>
      <use xlink:href="#DejaVuSans-4e" transform="translate(923.078125 0)"/>
      <use xlink:href="#DejaVuSans-3" transform="translate(980.984375 0)"/>
      <use xlink:href="#DejaVuSans-5a" transform="translate(1012.765625 0)"/>
      <use xlink:href="#DejaVuSans-52" transform="translate(1094.546875 0)"/>
      <use xlink:href="#DejaVuSans-55" transform="translate(1155.734375 0)"/>
      <use xlink:href="#DejaVuSans-47" transform="translate(1195.09375 0)"/>
      <use xlink:href="#DejaVuSans-56" transform="translate(1258.578125 0)"/>
      <use xlink:href="#DejaVuSans-3" transform="translate(1310.671875 0)"/>
      <use xlink:href="#DejaVuSans-3" transform="translate(1342.453125 0)"/>
      <use xlink:href="#DejaVuSans-b" transform="translate(1374.234375 0)"/>
      <use xlink:href="#DejaVuSans-26" transform="translate(1413.25 0)"/>
      <use xlink:href="#DejaVuSans-31" transform="translate(1483.078125 0)"/>
      <use xlink:href="#DejaVuSans-36" transform="translate(1557.890625 0)"/>
      <use xlink:href="#DejaVuSans-3" transform="translate(1621.375 0)"/>
      <use xlink:href="#DejaVuSans-c9c" transform="translate(1653.15625 0)"/>
      <use xlink:href="#DejaVuSans-3" transform="translate(1736.953125 0)"/>
      <use xlink:href="#DejaVuSans-26" transform="translate(1768.734375 0)"/>
      <use xlink:href="#DejaVuSans-52" transform="translate(1838.5625 0)"/>
      <use xlink:href="#DejaVuSans-36" transform="translate(1899.75 0)"/>
      <use xlink:href="#DejaVuSans-5c" transform="translate(1963.234375 0)"/>
      <use xlink:href="#DejaVuSans-31" transform="translate(2022.421875 0)"/>
      <use xlink:href="#DejaVuSans-48" transform="translate(2097.234375 0)"/>
      <use xlink:href="#DejaVuSans-c" transform="translate(2158.765625 0)"/>
     </g>
    </g>
   </g>
   <g id="matplotlib.axis_2">
    <g id="ytick_1">
     <g id="line2d_15">
      <path d="M 116.996719 491.734439 
L 647.096719 491.734439 
" clip-path="url(#pacb3313ce5)" style="fill: none; stroke: #e6e6e6; stroke-width: 0.7; stroke-linecap: square"/>
     </g>
     <g id="line2d_16">
      <defs>
       <path id="m55635b722d" d="M 0 0 
L -3.5 0 
" style="stroke: #000000; stroke-width: 0.8"/>
      </defs>
      <g>
       <use xlink:href="#m55635b722d" x="116.996719" y="491.734439" style="stroke: #000000; stroke-width: 0.8"/>
      </g>
     </g>
     <g id="text_9">
      <!-- behavior -->
      <g transform="translate(61.713594 495.91358) scale(0.11 -0.11)">
       <defs>
        <path id="DejaVuSans-45" d="M 3116 1747 
Q 3116 2381 2855 2742 
Q 2594 3103 2138 3103 
Q 1681 3103 1420 2742 
Q 1159 2381 1159 1747 
Q 1159 1113 1420 752 
Q 1681 391 2138 391 
Q 2594 391 2855 752 
Q 3116 1113 3116 1747 
z
M 1159 2969 
Q 1341 3281 1617 3432 
Q 1894 3584 2278 3584 
Q 2916 3584 3314 3078 
Q 3713 2572 3713 1747 
Q 3713 922 3314 415 
Q 2916 -91 2278 -91 
Q 1894 -91 1617 61 
Q 1341 213 1159 525 
L 1159 0 
L 581 0 
L 581 4863 
L 1159 4863 
L 1159 2969 
z
" transform="scale(0.015625)"/>
        <path id="DejaVuSans-4b" d="M 3513 2113 
L 3513 0 
L 2938 0 
L 2938 2094 
Q 2938 2591 2744 2837 
Q 2550 3084 2163 3084 
Q 1697 3084 1428 2787 
Q 1159 2491 1159 1978 
L 1159 0 
L 581 0 
L 581 4863 
L 1159 4863 
L 1159 2956 
Q 1366 3272 1645 3428 
Q 1925 3584 2291 3584 
Q 2894 3584 3203 3211 
Q 3513 2838 3513 2113 
z
" transform="scale(0.015625)"/>
        <path id="DejaVuSans-44" d="M 2194 1759 
Q 1497 1759 1228 1600 
Q 959 1441 959 1056 
Q 959 750 1161 570 
Q 1363 391 1709 391 
Q 2188 391 2477 730 
Q 2766 1069 2766 1631 
L 2766 1759 
L 2194 1759 
z
M 3341 1997 
L 3341 0 
L 2766 0 
L 2766 531 
Q 2569 213 2275 61 
Q 1981 -91 1556 -91 
Q 1019 -91 701 211 
Q 384 513 384 1019 
Q 384 1609 779 1909 
Q 1175 2209 1959 2209 
L 2766 2209 
L 2766 2266 
Q 2766 2663 2505 2880 
Q 2244 3097 1772 3097 
Q 1472 3097 1187 3025 
Q 903 2953 641 2809 
L 641 3341 
Q 956 3463 1253 3523 
Q 1550 3584 1831 3584 
Q 2591 3584 2966 3190 
Q 3341 2797 3341 1997 
z
" transform="scale(0.015625)"/>
        <path id="DejaVuSans-59" d="M 191 3500 
L 800 3500 
L 1894 563 
L 2988 3500 
L 3597 3500 
L 2284 0 
L 1503 0 
L 191 3500 
z
" transform="scale(0.015625)"/>
       </defs>
       <use xlink:href="#DejaVuSans-45"/>
       <use xlink:href="#DejaVuSans-48" transform="translate(63.484375 0)"/>
       <use xlink:href="#DejaVuSans-4b" transform="translate(125.015625 0)"/>
       <use xlink:href="#DejaVuSans-44" transform="translate(188.390625 0)"/>
       <use xlink:href="#DejaVuSans-59" transform="translate(249.671875 0)"/>
       <use xlink:href="#DejaVuSans-4c" transform="translate(308.859375 0)"/>
       <use xlink:href="#DejaVuSans-52" transform="translate(336.640625 0)"/>
       <use xlink:href="#DejaVuSans-55" transform="translate(397.828125 0)"/>
      </g>
     </g>
    </g>
    <g id="ytick_2">
     <g id="line2d_17">
      <path d="M 116.996719 472.675616 
L 647.096719 472.675616 
" clip-path="url(#pacb3313ce5)" style="fill: none; stroke: #e6e6e6; stroke-width: 0.7; stroke-linecap: square"/>
     </g>
     <g id="line2d_18">
      <g>
       <use xlink:href="#m55635b722d" x="116.996719" y="472.675616" style="stroke: #000000; stroke-width: 0.8"/>
      </g>
     </g>
     <g id="text_10">
      <!-- cortex -->
      <g transform="translate(75.296875 476.854327) scale(0.11 -0.11)">
       <defs>
        <path id="DejaVuSans-46" d="M 3122 3366 
L 3122 2828 
Q 2878 2963 2633 3030 
Q 2388 3097 2138 3097 
Q 1578 3097 1268 2742 
Q 959 2388 959 1747 
Q 959 1106 1268 751 
Q 1578 397 2138 397 
Q 2388 397 2633 464 
Q 2878 531 3122 666 
L 3122 134 
Q 2881 22 2623 -34 
Q 2366 -91 2075 -91 
Q 1284 -91 818 406 
Q 353 903 353 1747 
Q 353 2603 823 3093 
Q 1294 3584 2113 3584 
Q 2378 3584 2631 3529 
Q 2884 3475 3122 3366 
z
" transform="scale(0.015625)"/>
        <path id="DejaVuSans-5b" d="M 3513 3500 
L 2247 1797 
L 3578 0 
L 2900 0 
L 1881 1375 
L 863 0 
L 184 0 
L 1544 1831 
L 300 3500 
L 978 3500 
L 1906 2253 
L 2834 3500 
L 3513 3500 
z
" transform="scale(0.015625)"/>
       </defs>
       <use xlink:href="#DejaVuSans-46"/>
       <use xlink:href="#DejaVuSans-52" transform="translate(54.984375 0)"/>
       <use xlink:href="#DejaVuSans-55" transform="translate(116.171875 0)"/>
       <use xlink:href="#DejaVuSans-57" transform="translate(157.28125 0)"/>
       <use xlink:href="#DejaVuSans-48" transform="translate(196.484375 0)"/>
       <use xlink:href="#DejaVuSans-5b" transform="translate(256.265625 0)"/>
      </g>
     </g>
    </g>
    <g id="ytick_3">
     <g id="line2d_19">
      <path d="M 116.996719 453.616792 
L 647.096719 453.616792 
" clip-path="url(#pacb3313ce5)" style="fill: none; stroke: #e6e6e6; stroke-width: 0.7; stroke-linecap: square"/>
     </g>
     <g id="line2d_20">
      <g>
       <use xlink:href="#m55635b722d" x="116.996719" y="453.616792" style="stroke: #000000; stroke-width: 0.8"/>
      </g>
     </g>
     <g id="text_11">
      <!-- primate -->
      <g transform="translate(66.899062 457.795933) scale(0.11 -0.11)">
       <use xlink:href="#DejaVuSans-53"/>
       <use xlink:href="#DejaVuSans-55" transform="translate(63.484375 0)"/>
       <use xlink:href="#DejaVuSans-4c" transform="translate(104.59375 0)"/>
       <use xlink:href="#DejaVuSans-50" transform="translate(132.375 0)"/>
       <use xlink:href="#DejaVuSans-44" transform="translate(229.78125 0)"/>
       <use xlink:href="#DejaVuSans-57" transform="translate(291.0625 0)"/>
       <use xlink:href="#DejaVuSans-48" transform="translate(330.265625 0)"/>
      </g>
     </g>
    </g>
    <g id="ytick_4">
     <g id="line2d_21">
      <path d="M 116.996719 434.557969 
L 647.096719 434.557969 
" clip-path="url(#pacb3313ce5)" style="fill: none; stroke: #e6e6e6; stroke-width: 0.7; stroke-linecap: square"/>
     </g>
     <g id="line2d_22">
      <g>
       <use xlink:href="#m55635b722d" x="116.996719" y="434.557969" style="stroke: #000000; stroke-width: 0.8"/>
      </g>
     </g>
     <g id="text_12">
      <!-- mouse -->
      <g transform="translate(73.081406 438.73668) scale(0.11 -0.11)">
       <defs>
        <path id="DejaVuSans-58" d="M 544 1381 
L 544 3500 
L 1119 3500 
L 1119 1403 
Q 1119 906 1312 657 
Q 1506 409 1894 409 
Q 2359 409 2629 706 
Q 2900 1003 2900 1516 
L 2900 3500 
L 3475 3500 
L 3475 0 
L 2900 0 
L 2900 538 
Q 2691 219 2414 64 
Q 2138 -91 1772 -91 
Q 1169 -91 856 284 
Q 544 659 544 1381 
z
M 1991 3584 
L 1991 3584 
z
" transform="scale(0.015625)"/>
       </defs>
       <use xlink:href="#DejaVuSans-50"/>
       <use xlink:href="#DejaVuSans-52" transform="translate(97.40625 0)"/>
       <use xlink:href="#DejaVuSans-58" transform="translate(158.59375 0)"/>
       <use xlink:href="#DejaVuSans-56" transform="translate(221.96875 0)"/>
       <use xlink:href="#DejaVuSans-48" transform="translate(274.0625 0)"/>
      </g>
     </g>
    </g>
    <g id="ytick_5">
     <g id="line2d_23">
      <path d="M 116.996719 415.499145 
L 647.096719 415.499145 
" clip-path="url(#pacb3313ce5)" style="fill: none; stroke: #e6e6e6; stroke-width: 0.7; stroke-linecap: square"/>
     </g>
     <g id="line2d_24">
      <g>
       <use xlink:href="#m55635b722d" x="116.996719" y="415.499145" style="stroke: #000000; stroke-width: 0.8"/>
      </g>
     </g>
     <g id="text_13">
      <!-- decision -->
      <g transform="translate(64.652656 419.678286) scale(0.11 -0.11)">
       <use xlink:href="#DejaVuSans-47"/>
       <use xlink:href="#DejaVuSans-48" transform="translate(63.484375 0)"/>
       <use xlink:href="#DejaVuSans-46" transform="translate(125.015625 0)"/>
       <use xlink:href="#DejaVuSans-4c" transform="translate(180 0)"/>
       <use xlink:href="#DejaVuSans-56" transform="translate(207.78125 0)"/>
       <use xlink:href="#DejaVuSans-4c" transform="translate(259.875 0)"/>
       <use xlink:href="#DejaVuSans-52" transform="translate(287.65625 0)"/>
       <use xlink:href="#DejaVuSans-51" transform="translate(348.84375 0)"/>
      </g>
     </g>
    </g>
    <g id="ytick_6">
     <g id="line2d_25">
      <path d="M 116.996719 396.440322 
L 647.096719 396.440322 
" clip-path="url(#pacb3313ce5)" style="fill: none; stroke: #e6e6e6; stroke-width: 0.7; stroke-linecap: square"/>
     </g>
     <g id="line2d_26">
      <g>
       <use xlink:href="#m55635b722d" x="116.996719" y="396.440322" style="stroke: #000000; stroke-width: 0.8"/>
      </g>
     </g>
     <g id="text_14">
      <!-- visual -->
      <g transform="translate(77.931719 400.619462) scale(0.11 -0.11)">
       <defs>
        <path id="DejaVuSans-4f" d="M 603 4863 
L 1178 4863 
L 1178 0 
L 603 0 
L 603 4863 
z
" transform="scale(0.015625)"/>
       </defs>
       <use xlink:href="#DejaVuSans-59"/>
       <use xlink:href="#DejaVuSans-4c" transform="translate(59.1875 0)"/>
       <use xlink:href="#DejaVuSans-56" transform="translate(86.96875 0)"/>
       <use xlink:href="#DejaVuSans-58" transform="translate(139.0625 0)"/>
       <use xlink:href="#DejaVuSans-44" transform="translate(202.4375 0)"/>
       <use xlink:href="#DejaVuSans-4f" transform="translate(263.71875 0)"/>
      </g>
     </g>
    </g>
    <g id="ytick_7">
     <g id="line2d_27">
      <path d="M 116.996719 377.381498 
L 647.096719 377.381498 
" clip-path="url(#pacb3313ce5)" style="fill: none; stroke: #e6e6e6; stroke-width: 0.7; stroke-linecap: square"/>
     </g>
     <g id="line2d_28">
      <g>
       <use xlink:href="#m55635b722d" x="116.996719" y="377.381498" style="stroke: #000000; stroke-width: 0.8"/>
      </g>
     </g>
     <g id="text_15">
      <!-- population -->
      <g transform="translate(51.46125 381.560639) scale(0.11 -0.11)">
       <use xlink:href="#DejaVuSans-53"/>
       <use xlink:href="#DejaVuSans-52" transform="translate(63.484375 0)"/>
       <use xlink:href="#DejaVuSans-53" transform="translate(124.671875 0)"/>
       <use xlink:href="#DejaVuSans-58" transform="translate(188.15625 0)"/>
       <use xlink:href="#DejaVuSans-4f" transform="translate(251.53125 0)"/>
       <use xlink:href="#DejaVuSans-44" transform="translate(279.3125 0)"/>
       <use xlink:href="#DejaVuSans-57" transform="translate(340.59375 0)"/>
       <use xlink:href="#DejaVuSans-4c" transform="translate(379.796875 0)"/>
       <use xlink:href="#DejaVuSans-52" transform="translate(407.578125 0)"/>
       <use xlink:href="#DejaVuSans-51" transform="translate(468.765625 0)"/>
      </g>
     </g>
    </g>
    <g id="ytick_8">
     <g id="line2d_29">
      <path d="M 116.996719 358.322675 
L 647.096719 358.322675 
" clip-path="url(#pacb3313ce5)" style="fill: none; stroke: #e6e6e6; stroke-width: 0.7; stroke-linecap: square"/>
     </g>
     <g id="line2d_30">
      <g>
       <use xlink:href="#m55635b722d" x="116.996719" y="358.322675" style="stroke: #000000; stroke-width: 0.8"/>
      </g>
     </g>
     <g id="text_16">
      <!-- Bayesian -->
      <g transform="translate(59.93125 362.501815) scale(0.11 -0.11)">
       <defs>
        <path id="DejaVuSans-25" d="M 1259 2228 
L 1259 519 
L 2272 519 
Q 2781 519 3026 730 
Q 3272 941 3272 1375 
Q 3272 1813 3026 2020 
Q 2781 2228 2272 2228 
L 1259 2228 
z
M 1259 4147 
L 1259 2741 
L 2194 2741 
Q 2656 2741 2882 2914 
Q 3109 3088 3109 3444 
Q 3109 3797 2882 3972 
Q 2656 4147 2194 4147 
L 1259 4147 
z
M 628 4666 
L 2241 4666 
Q 2963 4666 3353 4366 
Q 3744 4066 3744 3513 
Q 3744 3084 3544 2831 
Q 3344 2578 2956 2516 
Q 3422 2416 3680 2098 
Q 3938 1781 3938 1306 
Q 3938 681 3513 340 
Q 3088 0 2303 0 
L 628 0 
L 628 4666 
z
" transform="scale(0.015625)"/>
       </defs>
       <use xlink:href="#DejaVuSans-25"/>
       <use xlink:href="#DejaVuSans-44" transform="translate(68.609375 0)"/>
       <use xlink:href="#DejaVuSans-5c" transform="translate(129.890625 0)"/>
       <use xlink:href="#DejaVuSans-48" transform="translate(189.078125 0)"/>
       <use xlink:href="#DejaVuSans-56" transform="translate(250.609375 0)"/>
       <use xlink:href="#DejaVuSans-4c" transform="translate(302.703125 0)"/>
       <use xlink:href="#DejaVuSans-44" transform="translate(330.484375 0)"/>
       <use xlink:href="#DejaVuSans-51" transform="translate(391.765625 0)"/>
      </g>
     </g>
    </g>
    <g id="ytick_9">
     <g id="line2d_31">
      <path d="M 116.996719 339.263851 
L 647.096719 339.263851 
" clip-path="url(#pacb3313ce5)" style="fill: none; stroke: #e6e6e6; stroke-width: 0.7; stroke-linecap: square"/>
     </g>
     <g id="line2d_32">
      <g>
       <use xlink:href="#m55635b722d" x="116.996719" y="339.263851" style="stroke: #000000; stroke-width: 0.8"/>
      </g>
     </g>
     <g id="text_17">
      <!-- calcium imaging -->
      <g transform="translate(19.360156 343.442992) scale(0.11 -0.11)">
       <defs>
        <path id="DejaVuSans-4a" d="M 2906 1791 
Q 2906 2416 2648 2759 
Q 2391 3103 1925 3103 
Q 1463 3103 1205 2759 
Q 947 2416 947 1791 
Q 947 1169 1205 825 
Q 1463 481 1925 481 
Q 2391 481 2648 825 
Q 2906 1169 2906 1791 
z
M 3481 434 
Q 3481 -459 3084 -895 
Q 2688 -1331 1869 -1331 
Q 1566 -1331 1297 -1286 
Q 1028 -1241 775 -1147 
L 775 -588 
Q 1028 -725 1275 -790 
Q 1522 -856 1778 -856 
Q 2344 -856 2625 -561 
Q 2906 -266 2906 331 
L 2906 616 
Q 2728 306 2450 153 
Q 2172 0 1784 0 
Q 1141 0 747 490 
Q 353 981 353 1791 
Q 353 2603 747 3093 
Q 1141 3584 1784 3584 
Q 2172 3584 2450 3431 
Q 2728 3278 2906 2969 
L 2906 3500 
L 3481 3500 
L 3481 434 
z
" transform="scale(0.015625)"/>
       </defs>
       <use xlink:href="#DejaVuSans-46"/>
       <use xlink:href="#DejaVuSans-44" transform="translate(54.984375 0)"/>
       <use xlink:href="#DejaVuSans-4f" transform="translate(116.265625 0)"/>
       <use xlink:href="#DejaVuSans-46" transform="translate(144.046875 0)"/>
       <use xlink:href="#DejaVuSans-4c" transform="translate(199.03125 0)"/>
       <use xlink:href="#DejaVuSans-58" transform="translate(226.8125 0)"/>
       <use xlink:href="#DejaVuSans-50" transform="translate(290.1875 0)"/>
       <use xlink:href="#DejaVuSans-3" transform="translate(387.59375 0)"/>
       <use xlink:href="#DejaVuSans-4c" transform="translate(419.375 0)"/>
       <use xlink:href="#DejaVuSans-50" transform="translate(447.15625 0)"/>
       <use xlink:href="#DejaVuSans-44" transform="translate(544.5625 0)"/>
       <use xlink:href="#DejaVuSans-4a" transform="translate(605.84375 0)"/>
       <use xlink:href="#DejaVuSans-4c" transform="translate(669.328125 0)"/>
       <use xlink:href="#DejaVuSans-51" transform="translate(697.109375 0)"/>
       <use xlink:href="#DejaVuSans-4a" transform="translate(760.484375 0)"/>
      </g>
     </g>
    </g>
    <g id="ytick_10">
     <g id="line2d_33">
      <path d="M 116.996719 320.205028 
L 647.096719 320.205028 
" clip-path="url(#pacb3313ce5)" style="fill: none; stroke: #e6e6e6; stroke-width: 0.7; stroke-linecap: square"/>
     </g>
     <g id="line2d_34">
      <g>
       <use xlink:href="#m55635b722d" x="116.996719" y="320.205028" style="stroke: #000000; stroke-width: 0.8"/>
      </g>
     </g>
     <g id="text_18">
      <!-- prefrontal -->
      <g transform="translate(56.002187 324.384168) scale(0.11 -0.11)">
       <defs>
        <path id="DejaVuSans-49" d="M 2375 4863 
L 2375 4384 
L 1825 4384 
Q 1516 4384 1395 4259 
Q 1275 4134 1275 3809 
L 1275 3500 
L 2222 3500 
L 2222 3053 
L 1275 3053 
L 1275 0 
L 697 0 
L 697 3053 
L 147 3053 
L 147 3500 
L 697 3500 
L 697 3744 
Q 697 4328 969 4595 
Q 1241 4863 1831 4863 
L 2375 4863 
z
" transform="scale(0.015625)"/>
       </defs>
       <use xlink:href="#DejaVuSans-53"/>
       <use xlink:href="#DejaVuSans-55" transform="translate(63.484375 0)"/>
       <use xlink:href="#DejaVuSans-48" transform="translate(102.390625 0)"/>
       <use xlink:href="#DejaVuSans-49" transform="translate(163.921875 0)"/>
       <use xlink:href="#DejaVuSans-55" transform="translate(199.125 0)"/>
       <use xlink:href="#DejaVuSans-52" transform="translate(238.03125 0)"/>
       <use xlink:href="#DejaVuSans-51" transform="translate(299.21875 0)"/>
       <use xlink:href="#DejaVuSans-57" transform="translate(362.59375 0)"/>
       <use xlink:href="#DejaVuSans-44" transform="translate(401.796875 0)"/>
       <use xlink:href="#DejaVuSans-4f" transform="translate(463.078125 0)"/>
      </g>
     </g>
    </g>
    <g id="ytick_11">
     <g id="line2d_35">
      <path d="M 116.996719 301.146204 
L 647.096719 301.146204 
" clip-path="url(#pacb3313ce5)" style="fill: none; stroke: #e6e6e6; stroke-width: 0.7; stroke-linecap: square"/>
     </g>
     <g id="line2d_36">
      <g>
       <use xlink:href="#m55635b722d" x="116.996719" y="301.146204" style="stroke: #000000; stroke-width: 0.8"/>
      </g>
     </g>
     <g id="text_19">
      <!-- navigation -->
      <g transform="translate(51.923594 305.325345) scale(0.11 -0.11)">
       <use xlink:href="#DejaVuSans-51"/>
       <use xlink:href="#DejaVuSans-44" transform="translate(63.375 0)"/>
       <use xlink:href="#DejaVuSans-59" transform="translate(124.65625 0)"/>
       <use xlink:href="#DejaVuSans-4c" transform="translate(183.84375 0)"/>
       <use xlink:href="#DejaVuSans-4a" transform="translate(211.625 0)"/>
       <use xlink:href="#DejaVuSans-44" transform="translate(275.109375 0)"/>
       <use xlink:href="#DejaVuSans-57" transform="translate(336.390625 0)"/>
       <use xlink:href="#DejaVuSans-4c" transform="translate(375.59375 0)"/>
       <use xlink:href="#DejaVuSans-52" transform="translate(403.375 0)"/>
       <use xlink:href="#DejaVuSans-51" transform="translate(464.5625 0)"/>
      </g>
     </g>
    </g>
    <g id="ytick_12">
     <g id="line2d_37">
      <path d="M 116.996719 282.087381 
L 647.096719 282.087381 
" clip-path="url(#pacb3313ce5)" style="fill: none; stroke: #e6e6e6; stroke-width: 0.7; stroke-linecap: square"/>
     </g>
     <g id="line2d_38">
      <g>
       <use xlink:href="#m55635b722d" x="116.996719" y="282.087381" style="stroke: #000000; stroke-width: 0.8"/>
      </g>
     </g>
     <g id="text_20">
      <!-- dimensionality -->
      <g transform="translate(29.339219 286.266521) scale(0.11 -0.11)">
       <use xlink:href="#DejaVuSans-47"/>
       <use xlink:href="#DejaVuSans-4c" transform="translate(63.484375 0)"/>
       <use xlink:href="#DejaVuSans-50" transform="translate(91.265625 0)"/>
       <use xlink:href="#DejaVuSans-48" transform="translate(188.671875 0)"/>
       <use xlink:href="#DejaVuSans-51" transform="translate(250.203125 0)"/>
       <use xlink:href="#DejaVuSans-56" transform="translate(313.578125 0)"/>
       <use xlink:href="#DejaVuSans-4c" transform="translate(365.671875 0)"/>
       <use xlink:href="#DejaVuSans-52" transform="translate(393.453125 0)"/>
       <use xlink:href="#DejaVuSans-51" transform="translate(454.640625 0)"/>
       <use xlink:href="#DejaVuSans-44" transform="translate(518.015625 0)"/>
       <use xlink:href="#DejaVuSans-4f" transform="translate(579.296875 0)"/>
       <use xlink:href="#DejaVuSans-4c" transform="translate(607.078125 0)"/>
       <use xlink:href="#DejaVuSans-57" transform="translate(634.859375 0)"/>
       <use xlink:href="#DejaVuSans-5c" transform="translate(674.0625 0)"/>
      </g>
     </g>
    </g>
    <g id="ytick_13">
     <g id="line2d_39">
      <path d="M 116.996719 263.028557 
L 647.096719 263.028557 
" clip-path="url(#pacb3313ce5)" style="fill: none; stroke: #e6e6e6; stroke-width: 0.7; stroke-linecap: square"/>
     </g>
     <g id="line2d_40">
      <g>
       <use xlink:href="#m55635b722d" x="116.996719" y="263.028557" style="stroke: #000000; stroke-width: 0.8"/>
      </g>
     </g>
     <g id="text_21">
      <!-- LLM -->
      <g transform="translate(88.247656 267.207268) scale(0.11 -0.11)">
       <defs>
        <path id="DejaVuSans-2f" d="M 628 4666 
L 1259 4666 
L 1259 531 
L 3531 531 
L 3531 0 
L 628 0 
L 628 4666 
z
" transform="scale(0.015625)"/>
        <path id="DejaVuSans-30" d="M 628 4666 
L 1569 4666 
L 2759 1491 
L 3956 4666 
L 4897 4666 
L 4897 0 
L 4281 0 
L 4281 4097 
L 3078 897 
L 2444 897 
L 1241 4097 
L 1241 0 
L 628 0 
L 628 4666 
z
" transform="scale(0.015625)"/>
       </defs>
       <use xlink:href="#DejaVuSans-2f"/>
       <use xlink:href="#DejaVuSans-2f" transform="translate(55.71875 0)"/>
       <use xlink:href="#DejaVuSans-30" transform="translate(111.4375 0)"/>
      </g>
     </g>
    </g>
    <g id="ytick_14">
     <g id="line2d_41">
      <path d="M 116.996719 243.969733 
L 647.096719 243.969733 
" clip-path="url(#pacb3313ce5)" style="fill: none; stroke: #e6e6e6; stroke-width: 0.7; stroke-linecap: square"/>
     </g>
     <g id="line2d_42">
      <g>
       <use xlink:href="#m55635b722d" x="116.996719" y="243.969733" style="stroke: #000000; stroke-width: 0.8"/>
      </g>
     </g>
     <g id="text_22">
      <!-- noise -->
      <g transform="translate(80.740156 248.148874) scale(0.11 -0.11)">
       <use xlink:href="#DejaVuSans-51"/>
       <use xlink:href="#DejaVuSans-52" transform="translate(63.375 0)"/>
       <use xlink:href="#DejaVuSans-4c" transform="translate(124.5625 0)"/>
       <use xlink:href="#DejaVuSans-56" transform="translate(152.34375 0)"/>
       <use xlink:href="#DejaVuSans-48" transform="translate(204.4375 0)"/>
      </g>
     </g>
    </g>
    <g id="ytick_15">
     <g id="line2d_43">
      <path d="M 116.996719 224.91091 
L 647.096719 224.91091 
" clip-path="url(#pacb3313ce5)" style="fill: none; stroke: #e6e6e6; stroke-width: 0.7; stroke-linecap: square"/>
     </g>
     <g id="line2d_44">
      <g>
       <use xlink:href="#m55635b722d" x="116.996719" y="224.91091" style="stroke: #000000; stroke-width: 0.8"/>
      </g>
     </g>
     <g id="text_23">
      <!-- connectomics -->
      <g transform="translate(33.866406 229.090051) scale(0.11 -0.11)">
       <use xlink:href="#DejaVuSans-46"/>
       <use xlink:href="#DejaVuSans-52" transform="translate(54.984375 0)"/>
       <use xlink:href="#DejaVuSans-51" transform="translate(116.171875 0)"/>
       <use xlink:href="#DejaVuSans-51" transform="translate(179.546875 0)"/>
       <use xlink:href="#DejaVuSans-48" transform="translate(242.921875 0)"/>
       <use xlink:href="#DejaVuSans-46" transform="translate(304.453125 0)"/>
       <use xlink:href="#DejaVuSans-57" transform="translate(359.4375 0)"/>
       <use xlink:href="#DejaVuSans-52" transform="translate(398.640625 0)"/>
       <use xlink:href="#DejaVuSans-50" transform="translate(459.828125 0)"/>
       <use xlink:href="#DejaVuSans-4c" transform="translate(557.234375 0)"/>
       <use xlink:href="#DejaVuSans-46" transform="translate(585.015625 0)"/>
       <use xlink:href="#DejaVuSans-56" transform="translate(640 0)"/>
      </g>
     </g>
    </g>
    <g id="ytick_16">
     <g id="line2d_45">
      <path d="M 116.996719 205.852086 
L 647.096719 205.852086 
" clip-path="url(#pacb3313ce5)" style="fill: none; stroke: #e6e6e6; stroke-width: 0.7; stroke-linecap: square"/>
     </g>
     <g id="line2d_46">
      <g>
       <use xlink:href="#m55635b722d" x="116.996719" y="205.852086" style="stroke: #000000; stroke-width: 0.8"/>
      </g>
     </g>
     <g id="text_24">
      <!-- information theory -->
      <g transform="translate(7.2 210.031227) scale(0.11 -0.11)">
       <use xlink:href="#DejaVuSans-4c"/>
       <use xlink:href="#DejaVuSans-51" transform="translate(27.78125 0)"/>
       <use xlink:href="#DejaVuSans-49" transform="translate(91.15625 0)"/>
       <use xlink:href="#DejaVuSans-52" transform="translate(126.359375 0)"/>
       <use xlink:href="#DejaVuSans-55" transform="translate(187.546875 0)"/>
       <use xlink:href="#DejaVuSans-50" transform="translate(226.90625 0)"/>
       <use xlink:href="#DejaVuSans-44" transform="translate(324.3125 0)"/>
       <use xlink:href="#DejaVuSans-57" transform="translate(385.59375 0)"/>
       <use xlink:href="#DejaVuSans-4c" transform="translate(424.796875 0)"/>
       <use xlink:href="#DejaVuSans-52" transform="translate(452.578125 0)"/>
       <use xlink:href="#DejaVuSans-51" transform="translate(513.765625 0)"/>
       <use xlink:href="#DejaVuSans-3" transform="translate(577.140625 0)"/>
       <use xlink:href="#DejaVuSans-57" transform="translate(608.921875 0)"/>
       <use xlink:href="#DejaVuSans-4b" transform="translate(648.125 0)"/>
       <use xlink:href="#DejaVuSans-48" transform="translate(711.5 0)"/>
       <use xlink:href="#DejaVuSans-52" transform="translate(773.03125 0)"/>
       <use xlink:href="#DejaVuSans-55" transform="translate(834.21875 0)"/>
       <use xlink:href="#DejaVuSans-5c" transform="translate(875.328125 0)"/>
      </g>
     </g>
    </g>
    <g id="ytick_17">
     <g id="line2d_47">
      <path d="M 116.996719 186.793263 
L 647.096719 186.793263 
" clip-path="url(#pacb3313ce5)" style="fill: none; stroke: #e6e6e6; stroke-width: 0.7; stroke-linecap: square"/>
     </g>
     <g id="line2d_48">
      <g>
       <use xlink:href="#m55635b722d" x="116.996719" y="186.793263" style="stroke: #000000; stroke-width: 0.8"/>
      </g>
     </g>
     <g id="text_25">
      <!-- evolution -->
      <g transform="translate(58.889688 190.972403) scale(0.11 -0.11)">
       <use xlink:href="#DejaVuSans-48"/>
       <use xlink:href="#DejaVuSans-59" transform="translate(61.53125 0)"/>
       <use xlink:href="#DejaVuSans-52" transform="translate(120.71875 0)"/>
       <use xlink:href="#DejaVuSans-4f" transform="translate(181.90625 0)"/>
       <use xlink:href="#DejaVuSans-58" transform="translate(209.6875 0)"/>
       <use xlink:href="#DejaVuSans-57" transform="translate(273.0625 0)"/>
       <use xlink:href="#DejaVuSans-4c" transform="translate(312.265625 0)"/>
       <use xlink:href="#DejaVuSans-52" transform="translate(340.046875 0)"/>
       <use xlink:href="#DejaVuSans-51" transform="translate(401.234375 0)"/>
      </g>
     </g>
    </g>
    <g id="ytick_18">
     <g id="line2d_49">
      <path d="M 116.996719 167.734439 
L 647.096719 167.734439 
" clip-path="url(#pacb3313ce5)" style="fill: none; stroke: #e6e6e6; stroke-width: 0.7; stroke-linecap: square"/>
     </g>
     <g id="line2d_50">
      <g>
       <use xlink:href="#m55635b722d" x="116.996719" y="167.734439" style="stroke: #000000; stroke-width: 0.8"/>
      </g>
     </g>
     <g id="text_26">
      <!-- fMRI -->
      <g transform="translate(85.745156 171.91358) scale(0.11 -0.11)">
       <defs>
        <path id="DejaVuSans-35" d="M 2841 2188 
Q 3044 2119 3236 1894 
Q 3428 1669 3622 1275 
L 4263 0 
L 3584 0 
L 2988 1197 
Q 2756 1666 2539 1819 
Q 2322 1972 1947 1972 
L 1259 1972 
L 1259 0 
L 628 0 
L 628 4666 
L 2053 4666 
Q 2853 4666 3247 4331 
Q 3641 3997 3641 3322 
Q 3641 2881 3436 2590 
Q 3231 2300 2841 2188 
z
M 1259 4147 
L 1259 2491 
L 2053 2491 
Q 2509 2491 2742 2702 
Q 2975 2913 2975 3322 
Q 2975 3731 2742 3939 
Q 2509 4147 2053 4147 
L 1259 4147 
z
" transform="scale(0.015625)"/>
        <path id="DejaVuSans-2c" d="M 628 4666 
L 1259 4666 
L 1259 0 
L 628 0 
L 628 4666 
z
" transform="scale(0.015625)"/>
       </defs>
       <use xlink:href="#DejaVuSans-49"/>
       <use xlink:href="#DejaVuSans-30" transform="translate(35.203125 0)"/>
       <use xlink:href="#DejaVuSans-35" transform="translate(121.484375 0)"/>
       <use xlink:href="#DejaVuSans-2c" transform="translate(190.96875 0)"/>
      </g>
     </g>
    </g>
    <g id="ytick_19">
     <g id="line2d_51">
      <path d="M 116.996719 148.675616 
L 647.096719 148.675616 
" clip-path="url(#pacb3313ce5)" style="fill: none; stroke: #e6e6e6; stroke-width: 0.7; stroke-linecap: square"/>
     </g>
     <g id="line2d_52">
      <g>
       <use xlink:href="#m55635b722d" x="116.996719" y="148.675616" style="stroke: #000000; stroke-width: 0.8"/>
      </g>
     </g>
     <g id="text_27">
      <!-- development -->
      <g transform="translate(37.429375 152.854756) scale(0.11 -0.11)">
       <use xlink:href="#DejaVuSans-47"/>
       <use xlink:href="#DejaVuSans-48" transform="translate(63.484375 0)"/>
       <use xlink:href="#DejaVuSans-59" transform="translate(125.015625 0)"/>
       <use xlink:href="#DejaVuSans-48" transform="translate(184.203125 0)"/>
       <use xlink:href="#DejaVuSans-4f" transform="translate(245.734375 0)"/>
       <use xlink:href="#DejaVuSans-52" transform="translate(273.515625 0)"/>
       <use xlink:href="#DejaVuSans-53" transform="translate(334.703125 0)"/>
       <use xlink:href="#DejaVuSans-50" transform="translate(398.1875 0)"/>
       <use xlink:href="#DejaVuSans-48" transform="translate(495.59375 0)"/>
       <use xlink:href="#DejaVuSans-51" transform="translate(557.125 0)"/>
       <use xlink:href="#DejaVuSans-57" transform="translate(620.5 0)"/>
      </g>
     </g>
    </g>
    <g id="ytick_20">
     <g id="line2d_53">
      <path d="M 116.996719 129.616792 
L 647.096719 129.616792 
" clip-path="url(#pacb3313ce5)" style="fill: none; stroke: #e6e6e6; stroke-width: 0.7; stroke-linecap: square"/>
     </g>
     <g id="line2d_54">
      <g>
       <use xlink:href="#m55635b722d" x="116.996719" y="129.616792" style="stroke: #000000; stroke-width: 0.8"/>
      </g>
     </g>
     <g id="text_28">
      <!-- spiking -->
      <g transform="translate(70.847031 133.795933) scale(0.11 -0.11)">
       <use xlink:href="#DejaVuSans-56"/>
       <use xlink:href="#DejaVuSans-53" transform="translate(52.09375 0)"/>
       <use xlink:href="#DejaVuSans-4c" transform="translate(115.578125 0)"/>
       <use xlink:href="#DejaVuSans-4e" transform="translate(143.359375 0)"/>
       <use xlink:href="#DejaVuSans-4c" transform="translate(201.265625 0)"/>
       <use xlink:href="#DejaVuSans-51" transform="translate(229.046875 0)"/>
       <use xlink:href="#DejaVuSans-4a" transform="translate(292.421875 0)"/>
      </g>
     </g>
    </g>
    <g id="ytick_21">
     <g id="line2d_55">
      <path d="M 116.996719 110.557969 
L 647.096719 110.557969 
" clip-path="url(#pacb3313ce5)" style="fill: none; stroke: #e6e6e6; stroke-width: 0.7; stroke-linecap: square"/>
     </g>
     <g id="line2d_56">
      <g>
       <use xlink:href="#m55635b722d" x="116.996719" y="110.557969" style="stroke: #000000; stroke-width: 0.8"/>
      </g>
     </g>
     <g id="text_29">
      <!-- dendritic -->
      <g transform="translate(61.295938 114.737109) scale(0.11 -0.11)">
       <use xlink:href="#DejaVuSans-47"/>
       <use xlink:href="#DejaVuSans-48" transform="translate(63.484375 0)"/>
       <use xlink:href="#DejaVuSans-51" transform="translate(125.015625 0)"/>
       <use xlink:href="#DejaVuSans-47" transform="translate(188.390625 0)"/>
       <use xlink:href="#DejaVuSans-55" transform="translate(251.875 0)"/>
       <use xlink:href="#DejaVuSans-4c" transform="translate(292.984375 0)"/>
       <use xlink:href="#DejaVuSans-57" transform="translate(320.765625 0)"/>
       <use xlink:href="#DejaVuSans-4c" transform="translate(359.96875 0)"/>
       <use xlink:href="#DejaVuSans-46" transform="translate(387.75 0)"/>
      </g>
     </g>
    </g>
    <g id="ytick_22">
     <g id="line2d_57">
      <path d="M 116.996719 91.499145 
L 647.096719 91.499145 
" clip-path="url(#pacb3313ce5)" style="fill: none; stroke: #e6e6e6; stroke-width: 0.7; stroke-linecap: square"/>
     </g>
     <g id="line2d_58">
      <g>
       <use xlink:href="#m55635b722d" x="116.996719" y="91.499145" style="stroke: #000000; stroke-width: 0.8"/>
      </g>
     </g>
     <g id="text_30">
      <!-- plasticity -->
      <g transform="translate(60.190781 95.678286) scale(0.11 -0.11)">
       <use xlink:href="#DejaVuSans-53"/>
       <use xlink:href="#DejaVuSans-4f" transform="translate(63.484375 0)"/>
       <use xlink:href="#DejaVuSans-44" transform="translate(91.265625 0)"/>
       <use xlink:href="#DejaVuSans-56" transform="translate(152.546875 0)"/>
       <use xlink:href="#DejaVuSans-57" transform="translate(204.640625 0)"/>
       <use xlink:href="#DejaVuSans-4c" transform="translate(243.84375 0)"/>
       <use xlink:href="#DejaVuSans-46" transform="translate(271.625 0)"/>
       <use xlink:href="#DejaVuSans-4c" transform="translate(326.609375 0)"/>
       <use xlink:href="#DejaVuSans-57" transform="translate(354.390625 0)"/>
       <use xlink:href="#DejaVuSans-5c" transform="translate(393.59375 0)"/>
      </g>
     </g>
    </g>
    <g id="ytick_23">
     <g id="line2d_59">
      <path d="M 116.996719 72.440322 
L 647.096719 72.440322 
" clip-path="url(#pacb3313ce5)" style="fill: none; stroke: #e6e6e6; stroke-width: 0.7; stroke-linecap: square"/>
     </g>
     <g id="line2d_60">
      <g>
       <use xlink:href="#m55635b722d" x="116.996719" y="72.440322" style="stroke: #000000; stroke-width: 0.8"/>
      </g>
     </g>
     <g id="text_31">
      <!-- inhibition -->
      <g transform="translate(58.832969 76.619462) scale(0.11 -0.11)">
       <use xlink:href="#DejaVuSans-4c"/>
       <use xlink:href="#DejaVuSans-51" transform="translate(27.78125 0)"/>
       <use xlink:href="#DejaVuSans-4b" transform="translate(91.15625 0)"/>
       <use xlink:href="#DejaVuSans-4c" transform="translate(154.53125 0)"/>
       <use xlink:href="#DejaVuSans-45" transform="translate(182.3125 0)"/>
       <use xlink:href="#DejaVuSans-4c" transform="translate(245.796875 0)"/>
       <use xlink:href="#DejaVuSans-57" transform="translate(273.578125 0)"/>
       <use xlink:href="#DejaVuSans-4c" transform="translate(312.78125 0)"/>
       <use xlink:href="#DejaVuSans-52" transform="translate(340.5625 0)"/>
       <use xlink:href="#DejaVuSans-51" transform="translate(401.75 0)"/>
      </g>
     </g>
    </g>
    <g id="ytick_24">
     <g id="line2d_61">
      <path d="M 116.996719 53.381498 
L 647.096719 53.381498 
" clip-path="url(#pacb3313ce5)" style="fill: none; stroke: #e6e6e6; stroke-width: 0.7; stroke-linecap: square"/>
     </g>
     <g id="line2d_62">
      <g>
       <use xlink:href="#m55635b722d" x="116.996719" y="53.381498" style="stroke: #000000; stroke-width: 0.8"/>
      </g>
     </g>
     <g id="text_32">
      <!-- oscillation -->
      <g transform="translate(54.508594 57.560639) scale(0.11 -0.11)">
       <use xlink:href="#DejaVuSans-52"/>
       <use xlink:href="#DejaVuSans-56" transform="translate(61.1875 0)"/>
       <use xlink:href="#DejaVuSans-46" transform="translate(113.28125 0)"/>
       <use xlink:href="#DejaVuSans-4c" transform="translate(168.265625 0)"/>
       <use xlink:href="#DejaVuSans-4f" transform="translate(196.046875 0)"/>
       <use xlink:href="#DejaVuSans-4f" transform="translate(223.828125 0)"/>
       <use xlink:href="#DejaVuSans-44" transform="translate(251.609375 0)"/>
       <use xlink:href="#DejaVuSans-57" transform="translate(312.890625 0)"/>
       <use xlink:href="#DejaVuSans-4c" transform="translate(352.09375 0)"/>
       <use xlink:href="#DejaVuSans-52" transform="translate(379.875 0)"/>
       <use xlink:href="#DejaVuSans-51" transform="translate(441.0625 0)"/>
      </g>
     </g>
    </g>
   </g>
   <g id="line2d_63">
    <path d="M 477.029505 522.037969 
L 477.029505 23.077969 
" clip-path="url(#pacb3313ce5)" style="fill: none; stroke: #333333; stroke-width: 0.8; stroke-linecap: square"/>
   </g>
   <g id="patch_27">
    <path d="M 116.996719 522.037969 
L 116.996719 23.077969 
" style="fill: none; stroke: #444444; stroke-width: 0.8; stroke-linejoin: miter; stroke-linecap: square"/>
   </g>
   <g id="patch_28">
    <path d="M 116.996719 522.037969 
L 647.096719 522.037969 
" style="fill: none; stroke: #444444; stroke-width: 0.8; stroke-linejoin: miter; stroke-linecap: square"/>
   </g>
   <g id="text_33">
    <!-- more CNS → -->
    <g style="fill: #2e86ab" transform="translate(575.043156 502.079569) scale(0.1 -0.1)">
     <defs>
      <path id="DejaVuSans-c1c" d="M 5050 2147 
L 5050 1866 
L 3822 638 
L 3447 1013 
L 4175 1741 
L 366 1741 
L 366 2272 
L 4175 2272 
L 3447 3000 
L 3822 3375 
L 5050 2147 
z
" transform="scale(0.015625)"/>
     </defs>
     <use xlink:href="#DejaVuSans-50"/>
     <use xlink:href="#DejaVuSans-52" transform="translate(97.40625 0)"/>
     <use xlink:href="#DejaVuSans-55" transform="translate(158.59375 0)"/>
     <use xlink:href="#DejaVuSans-48" transform="translate(197.5 0)"/>
     <use xlink:href="#DejaVuSans-3" transform="translate(259.03125 0)"/>
     <use xlink:href="#DejaVuSans-26" transform="translate(290.8125 0)"/>
     <use xlink:href="#DejaVuSans-31" transform="translate(360.640625 0)"/>
     <use xlink:href="#DejaVuSans-36" transform="translate(435.453125 0)"/>
     <use xlink:href="#DejaVuSans-3" transform="translate(498.9375 0)"/>
     <use xlink:href="#DejaVuSans-c1c" transform="translate(530.71875 0)"/>
    </g>
   </g>
   <g id="text_34">
    <!-- ← more CoSyNe -->
    <g style="fill: #d1495b" transform="translate(127.598719 43.036369) scale(0.1 -0.1)">
     <defs>
      <path id="DejaVuSans-c1a" d="M 313 1866 
L 313 2147 
L 1541 3375 
L 1916 3000 
L 1188 2272 
L 4997 2272 
L 4997 1741 
L 1188 1741 
L 1916 1013 
L 1541 638 
L 313 1866 
z
" transform="scale(0.015625)"/>
     </defs>
     <use xlink:href="#DejaVuSans-c1a"/>
     <use xlink:href="#DejaVuSans-3" transform="translate(83.796875 0)"/>
     <use xlink:href="#DejaVuSans-50" transform="translate(115.578125 0)"/>
     <use xlink:href="#DejaVuSans-52" transform="translate(212.984375 0)"/>
     <use xlink:href="#DejaVuSans-55" transform="translate(274.171875 0)"/>
     <use xlink:href="#DejaVuSans-48" transform="translate(313.078125 0)"/>
     <use xlink:href="#DejaVuSans-3" transform="translate(374.609375 0)"/>
     <use xlink:href="#DejaVuSans-26" transform="translate(406.390625 0)"/>
     <use xlink:href="#DejaVuSans-52" transform="translate(476.21875 0)"/>
     <use xlink:href="#DejaVuSans-36" transform="translate(537.40625 0)"/>
     <use xlink:href="#DejaVuSans-5c" transform="translate(600.890625 0)"/>
     <use xlink:href="#DejaVuSans-31" transform="translate(660.078125 0)"/>
     <use xlink:href="#DejaVuSans-48" transform="translate(734.890625 0)"/>
    </g>
   </g>
   <g id="text_35">
    <!-- Two communities, two vocabularies -->
    <g transform="translate(251.511484 17.077969) scale(0.13 -0.13)">
     <defs>
      <path id="DejaVuSans-Bold-37" d="M 31 4666 
L 4331 4666 
L 4331 3756 
L 2784 3756 
L 2784 0 
L 1581 0 
L 1581 3756 
L 31 3756 
L 31 4666 
z
" transform="scale(0.015625)"/>
      <path id="DejaVuSans-Bold-5a" d="M 225 3500 
L 1313 3500 
L 1900 1088 
L 2491 3500 
L 3425 3500 
L 4013 1113 
L 4603 3500 
L 5691 3500 
L 4769 0 
L 3547 0 
L 2956 2406 
L 2369 0 
L 1147 0 
L 225 3500 
z
" transform="scale(0.015625)"/>
      <path id="DejaVuSans-Bold-52" d="M 2203 2784 
Q 1831 2784 1636 2517 
Q 1441 2250 1441 1747 
Q 1441 1244 1636 976 
Q 1831 709 2203 709 
Q 2569 709 2762 976 
Q 2956 1244 2956 1747 
Q 2956 2250 2762 2517 
Q 2569 2784 2203 2784 
z
M 2203 3584 
Q 3106 3584 3614 3096 
Q 4122 2609 4122 1747 
Q 4122 884 3614 396 
Q 3106 -91 2203 -91 
Q 1297 -91 786 396 
Q 275 884 275 1747 
Q 275 2609 786 3096 
Q 1297 3584 2203 3584 
z
" transform="scale(0.015625)"/>
      <path id="DejaVuSans-Bold-3" transform="scale(0.015625)"/>
      <path id="DejaVuSans-Bold-46" d="M 3366 3391 
L 3366 2478 
Q 3138 2634 2908 2709 
Q 2678 2784 2431 2784 
Q 1963 2784 1702 2511 
Q 1441 2238 1441 1747 
Q 1441 1256 1702 982 
Q 1963 709 2431 709 
Q 2694 709 2930 787 
Q 3166 866 3366 1019 
L 3366 103 
Q 3103 6 2833 -42 
Q 2563 -91 2291 -91 
Q 1344 -91 809 395 
Q 275 881 275 1747 
Q 275 2613 809 3098 
Q 1344 3584 2291 3584 
Q 2566 3584 2833 3536 
Q 3100 3488 3366 3391 
z
" transform="scale(0.015625)"/>
      <path id="DejaVuSans-Bold-50" d="M 3781 2919 
Q 3994 3244 4286 3414 
Q 4578 3584 4928 3584 
Q 5531 3584 5847 3212 
Q 6163 2841 6163 2131 
L 6163 0 
L 5038 0 
L 5038 1825 
Q 5041 1866 5042 1909 
Q 5044 1953 5044 2034 
Q 5044 2406 4934 2573 
Q 4825 2741 4581 2741 
Q 4263 2741 4089 2478 
Q 3916 2216 3909 1719 
L 3909 0 
L 2784 0 
L 2784 1825 
Q 2784 2406 2684 2573 
Q 2584 2741 2328 2741 
Q 2006 2741 1831 2477 
Q 1656 2213 1656 1722 
L 1656 0 
L 531 0 
L 531 3500 
L 1656 3500 
L 1656 2988 
Q 1863 3284 2130 3434 
Q 2397 3584 2719 3584 
Q 3081 3584 3359 3409 
Q 3638 3234 3781 2919 
z
" transform="scale(0.015625)"/>
      <path id="DejaVuSans-Bold-58" d="M 500 1363 
L 500 3500 
L 1625 3500 
L 1625 3150 
Q 1625 2866 1622 2436 
Q 1619 2006 1619 1863 
Q 1619 1441 1641 1255 
Q 1663 1069 1716 984 
Q 1784 875 1895 815 
Q 2006 756 2150 756 
Q 2500 756 2700 1025 
Q 2900 1294 2900 1772 
L 2900 3500 
L 4019 3500 
L 4019 0 
L 2900 0 
L 2900 506 
Q 2647 200 2364 54 
Q 2081 -91 1741 -91 
Q 1134 -91 817 281 
Q 500 653 500 1363 
z
" transform="scale(0.015625)"/>
      <path id="DejaVuSans-Bold-51" d="M 4056 2131 
L 4056 0 
L 2931 0 
L 2931 347 
L 2931 1631 
Q 2931 2084 2911 2256 
Q 2891 2428 2841 2509 
Q 2775 2619 2662 2680 
Q 2550 2741 2406 2741 
Q 2056 2741 1856 2470 
Q 1656 2200 1656 1722 
L 1656 0 
L 538 0 
L 538 3500 
L 1656 3500 
L 1656 2988 
Q 1909 3294 2193 3439 
Q 2478 3584 2822 3584 
Q 3428 3584 3742 3212 
Q 4056 2841 4056 2131 
z
" transform="scale(0.015625)"/>
      <path id="DejaVuSans-Bold-4c" d="M 538 3500 
L 1656 3500 
L 1656 0 
L 538 0 
L 538 3500 
z
M 538 4863 
L 1656 4863 
L 1656 3950 
L 538 3950 
L 538 4863 
z
" transform="scale(0.015625)"/>
      <path id="DejaVuSans-Bold-57" d="M 1759 4494 
L 1759 3500 
L 2913 3500 
L 2913 2700 
L 1759 2700 
L 1759 1216 
Q 1759 972 1856 886 
Q 1953 800 2241 800 
L 2816 800 
L 2816 0 
L 1856 0 
Q 1194 0 917 276 
Q 641 553 641 1216 
L 641 2700 
L 84 2700 
L 84 3500 
L 641 3500 
L 641 4494 
L 1759 4494 
z
" transform="scale(0.015625)"/>
      <path id="DejaVuSans-Bold-48" d="M 4031 1759 
L 4031 1441 
L 1416 1441 
Q 1456 1047 1700 850 
Q 1944 653 2381 653 
Q 2734 653 3104 758 
Q 3475 863 3866 1075 
L 3866 213 
Q 3469 63 3072 -14 
Q 2675 -91 2278 -91 
Q 1328 -91 801 392 
Q 275 875 275 1747 
Q 275 2603 792 3093 
Q 1309 3584 2216 3584 
Q 3041 3584 3536 3087 
Q 4031 2591 4031 1759 
z
M 2881 2131 
Q 2881 2450 2695 2645 
Q 2509 2841 2209 2841 
Q 1884 2841 1681 2658 
Q 1478 2475 1428 2131 
L 2881 2131 
z
" transform="scale(0.015625)"/>
      <path id="DejaVuSans-Bold-56" d="M 3272 3391 
L 3272 2541 
Q 2913 2691 2578 2766 
Q 2244 2841 1947 2841 
Q 1628 2841 1473 2761 
Q 1319 2681 1319 2516 
Q 1319 2381 1436 2309 
Q 1553 2238 1856 2203 
L 2053 2175 
Q 2913 2066 3209 1816 
Q 3506 1566 3506 1031 
Q 3506 472 3093 190 
Q 2681 -91 1863 -91 
Q 1516 -91 1145 -36 
Q 775 19 384 128 
L 384 978 
Q 719 816 1070 734 
Q 1422 653 1784 653 
Q 2113 653 2278 743 
Q 2444 834 2444 1013 
Q 2444 1163 2330 1236 
Q 2216 1309 1875 1350 
L 1678 1375 
Q 931 1469 631 1722 
Q 331 1975 331 2491 
Q 331 3047 712 3315 
Q 1094 3584 1881 3584 
Q 2191 3584 2531 3537 
Q 2872 3491 3272 3391 
z
" transform="scale(0.015625)"/>
      <path id="DejaVuSans-Bold-f" d="M 653 1209 
L 1778 1209 
L 1778 256 
L 1006 -909 
L 341 -909 
L 653 256 
L 653 1209 
z
" transform="scale(0.015625)"/>
      <path id="DejaVuSans-Bold-59" d="M 97 3500 
L 1216 3500 
L 2088 1081 
L 2956 3500 
L 4078 3500 
L 2700 0 
L 1472 0 
L 97 3500 
z
" transform="scale(0.015625)"/>
      <path id="DejaVuSans-Bold-44" d="M 2106 1575 
Q 1756 1575 1579 1456 
Q 1403 1338 1403 1106 
Q 1403 894 1545 773 
Q 1688 653 1941 653 
Q 2256 653 2472 879 
Q 2688 1106 2688 1447 
L 2688 1575 
L 2106 1575 
z
M 3816 1997 
L 3816 0 
L 2688 0 
L 2688 519 
Q 2463 200 2181 54 
Q 1900 -91 1497 -91 
Q 953 -91 614 226 
Q 275 544 275 1050 
Q 275 1666 698 1953 
Q 1122 2241 2028 2241 
L 2688 2241 
L 2688 2328 
Q 2688 2594 2478 2717 
Q 2269 2841 1825 2841 
Q 1466 2841 1156 2769 
Q 847 2697 581 2553 
L 581 3406 
Q 941 3494 1303 3539 
Q 1666 3584 2028 3584 
Q 2975 3584 3395 3211 
Q 3816 2838 3816 1997 
z
" transform="scale(0.015625)"/>
      <path id="DejaVuSans-Bold-45" d="M 2400 722 
Q 2759 722 2948 984 
Q 3138 1247 3138 1747 
Q 3138 2247 2948 2509 
Q 2759 2772 2400 2772 
Q 2041 2772 1848 2508 
Q 1656 2244 1656 1747 
Q 1656 1250 1848 986 
Q 2041 722 2400 722 
z
M 1656 2988 
Q 1888 3294 2169 3439 
Q 2450 3584 2816 3584 
Q 3463 3584 3878 3070 
Q 4294 2556 4294 1747 
Q 4294 938 3878 423 
Q 3463 -91 2816 -91 
Q 2450 -91 2169 54 
Q 1888 200 1656 506 
L 1656 0 
L 538 0 
L 538 4863 
L 1656 4863 
L 1656 2988 
z
" transform="scale(0.015625)"/>
      <path id="DejaVuSans-Bold-4f" d="M 538 4863 
L 1656 4863 
L 1656 0 
L 538 0 
L 538 4863 
z
" transform="scale(0.015625)"/>
      <path id="DejaVuSans-Bold-55" d="M 3138 2547 
Q 2991 2616 2845 2648 
Q 2700 2681 2553 2681 
Q 2122 2681 1889 2404 
Q 1656 2128 1656 1613 
L 1656 0 
L 538 0 
L 538 3500 
L 1656 3500 
L 1656 2925 
Q 1872 3269 2151 3426 
Q 2431 3584 2822 3584 
Q 2878 3584 2943 3579 
Q 3009 3575 3134 3559 
L 3138 2547 
z
" transform="scale(0.015625)"/>
     </defs>
     <use xlink:href="#DejaVuSans-Bold-37"/>
     <use xlink:href="#DejaVuSans-Bold-5a" transform="translate(57.234375 0)"/>
     <use xlink:href="#DejaVuSans-Bold-52" transform="translate(149.625 0)"/>
     <use xlink:href="#DejaVuSans-Bold-3" transform="translate(218.328125 0)"/>
     <use xlink:href="#DejaVuSans-Bold-46" transform="translate(253.140625 0)"/>
     <use xlink:href="#DejaVuSans-Bold-52" transform="translate(312.421875 0)"/>
     <use xlink:href="#DejaVuSans-Bold-50" transform="translate(381.125 0)"/>
     <use xlink:href="#DejaVuSans-Bold-50" transform="translate(485.328125 0)"/>
     <use xlink:href="#DejaVuSans-Bold-58" transform="translate(589.53125 0)"/>
     <use xlink:href="#DejaVuSans-Bold-51" transform="translate(660.71875 0)"/>
     <use xlink:href="#DejaVuSans-Bold-4c" transform="translate(731.90625 0)"/>
     <use xlink:href="#DejaVuSans-Bold-57" transform="translate(766.1875 0)"/>
     <use xlink:href="#DejaVuSans-Bold-4c" transform="translate(813.984375 0)"/>
     <use xlink:href="#DejaVuSans-Bold-48" transform="translate(848.265625 0)"/>
     <use xlink:href="#DejaVuSans-Bold-56" transform="translate(916.09375 0)"/>
     <use xlink:href="#DejaVuSans-Bold-f" transform="translate(975.609375 0)"/>
     <use xlink:href="#DejaVuSans-Bold-3" transform="translate(1013.59375 0)"/>
     <use xlink:href="#DejaVuSans-Bold-57" transform="translate(1048.40625 0)"/>
     <use xlink:href="#DejaVuSans-Bold-5a" transform="translate(1096.203125 0)"/>
     <use xlink:href="#DejaVuSans-Bold-52" transform="translate(1188.59375 0)"/>
     <use xlink:href="#DejaVuSans-Bold-3" transform="translate(1257.296875 0)"/>
     <use xlink:href="#DejaVuSans-Bold-59" transform="translate(1292.109375 0)"/>
     <use xlink:href="#DejaVuSans-Bold-52" transform="translate(1357.296875 0)"/>
     <use xlink:href="#DejaVuSans-Bold-46" transform="translate(1426 0)"/>
     <use xlink:href="#DejaVuSans-Bold-44" transform="translate(1485.28125 0)"/>
     <use xlink:href="#DejaVuSans-Bold-45" transform="translate(1552.765625 0)"/>
     <use xlink:href="#DejaVuSans-Bold-58" transform="translate(1624.34375 0)"/>
     <use xlink:href="#DejaVuSans-Bold-4f" transform="translate(1695.53125 0)"/>
     <use xlink:href="#DejaVuSans-Bold-44" transform="translate(1729.8125 0)"/>
     <use xlink:href="#DejaVuSans-Bold-55" transform="translate(1797.296875 0)"/>
     <use xlink:href="#DejaVuSans-Bold-4c" transform="translate(1846.609375 0)"/>
     <use xlink:href="#DejaVuSans-Bold-48" transform="translate(1880.890625 0)"/>
     <use xlink:href="#DejaVuSans-Bold-56" transform="translate(1948.71875 0)"/>
    </g>
   </g>
  </g>
 </g>
 <defs>
  <clipPath id="pacb3313ce5">
   <rect x="116.996719" y="23.077969" width="530.1" height="498.96"/>
  </clipPath>
 </defs>
</svg>
