<?xml version="1.0" encoding="utf-8" standalone="no"?>
<!DOCTYPE svg PUBLIC "-//W3C//DTD SVG 1.1//EN"
  "http://www.w3.org/Graphics/SVG/1.1/DTD/svg11.dtd">
<svg xmlns:xlink="http://www.w3.org/1999/xlink" width="730.493047pt" height="440.269969pt" viewBox="0 0 730.493047 440.269969" xmlns="http://www.w3.org/2000/svg" version="1.1">
 <metadata>
  <rdf:RDF xmlns:dc="http://purl.org/dc/elements/1.1/" xmlns:cc="http://creativecommons.org/ns#" xmlns:rdf="http://www.w3.org/1999/02/22-rdf-syntax-ns#">
   <cc:Work>
    <dc:type rdf:resource="http://purl.org/dc/dcmitype/StillImage"/>
    <dc:date>2026-06-28T15:46:47.746545</dc:date>
    <dc:format>image/svg+xml</dc:format>
    <dc:creator>
     <cc:Agent>
      <dc:title>Matplotlib v3.11.0, https://matplotlib.org/</dc:title>
     </cc:Agent>
    </dc:creator>
   </cc:Work>
  </rdf:RDF>
 </metadata>
 <defs>
  <style type="text/css">*{stroke-linejoin: round; stroke-linecap: butt}</style>
 </defs>
 <g id="figure_1">
  <g id="patch_1">
   <path d="M 0 440.269969 
L 730.493047 440.269969 
L 730.493047 0 
L 0 0 
z
" style="fill: #ffffff"/>
  </g>
  <g id="axes_1">
   <g id="patch_2">
    <path d="M 53.693047 400.069969 
L 723.293047 400.069969 
L 723.293047 23.077969 
L 53.693047 23.077969 
z
" style="fill: #ffffff"/>
   </g>
   <g id="matplotlib.axis_1">
    <g id="xtick_1">
     <g id="line2d_1">
      <path d="M 101.038501 400.069969 
L 101.038501 23.077969 
" clip-path="url(#pde63cde7cb)" style="fill: none; stroke: #e6e6e6; stroke-width: 0.7; stroke-linecap: square"/>
     </g>
     <g id="line2d_2">
      <defs>
       <path id="m2e3f92fe04" d="M 0 0 
L 0 3.5 
" style="stroke: #000000; stroke-width: 0.8"/>
      </defs>
      <g>
       <use xlink:href="#m2e3f92fe04" x="101.038501" y="400.069969" style="stroke: #000000; stroke-width: 0.8"/>
      </g>
     </g>
     <g id="text_1">
      <!-- 2007.5 -->
      <g transform="translate(81.793658 415.427391) scale(0.11 -0.11)">
       <defs>
        <path id="DejaVuSans-15" d="M 1228 531 
L 3431 531 
L 3431 0 
L 469 0 
L 469 531 
Q 828 903 1448 1529 
Q 2069 2156 2228 2338 
Q 2531 2678 2651 2914 
Q 2772 3150 2772 3378 
Q 2772 3750 2511 3984 
Q 2250 4219 1831 4219 
Q 1534 4219 1204 4116 
Q 875 4013 500 3803 
L 500 4441 
Q 881 4594 1212 4672 
Q 1544 4750 1819 4750 
Q 2544 4750 2975 4387 
Q 3406 4025 3406 3419 
Q 3406 3131 3298 2873 
Q 3191 2616 2906 2266 
Q 2828 2175 2409 1742 
Q 1991 1309 1228 531 
z
" transform="scale(0.015625)"/>
        <path id="DejaVuSans-13" d="M 2034 4250 
Q 1547 4250 1301 3770 
Q 1056 3291 1056 2328 
Q 1056 1369 1301 889 
Q 1547 409 2034 409 
Q 2525 409 2770 889 
Q 3016 1369 3016 2328 
Q 3016 3291 2770 3770 
Q 2525 4250 2034 4250 
z
M 2034 4750 
Q 2819 4750 3233 4129 
Q 3647 3509 3647 2328 
Q 3647 1150 3233 529 
Q 2819 -91 2034 -91 
Q 1250 -91 836 529 
Q 422 1150 422 2328 
Q 422 3509 836 4129 
Q 1250 4750 2034 4750 
z
" transform="scale(0.015625)"/>
        <path id="DejaVuSans-1a" d="M 525 4666 
L 3525 4666 
L 3525 4397 
L 1831 0 
L 1172 0 
L 2766 4134 
L 525 4134 
L 525 4666 
z
" transform="scale(0.015625)"/>
        <path id="DejaVuSans-11" d="M 684 794 
L 1344 794 
L 1344 0 
L 684 0 
L 684 794 
z
" transform="scale(0.015625)"/>
        <path id="DejaVuSans-18" d="M 691 4666 
L 3169 4666 
L 3169 4134 
L 1269 4134 
L 1269 2991 
Q 1406 3038 1543 3061 
Q 1681 3084 1819 3084 
Q 2600 3084 3056 2656 
Q 3513 2228 3513 1497 
Q 3513 744 3044 326 
Q 2575 -91 1722 -91 
Q 1428 -91 1123 -41 
Q 819 9 494 109 
L 494 744 
Q 775 591 1075 516 
Q 1375 441 1709 441 
Q 2250 441 2565 725 
Q 2881 1009 2881 1497 
Q 2881 1984 2565 2268 
Q 2250 2553 1709 2553 
Q 1456 2553 1204 2497 
Q 953 2441 691 2322 
L 691 4666 
z
" transform="scale(0.015625)"/>
       </defs>
       <use xlink:href="#DejaVuSans-15"/>
       <use xlink:href="#DejaVuSans-13" transform="translate(63.625 0)"/>
       <use xlink:href="#DejaVuSans-13" transform="translate(127.25 0)"/>
       <use xlink:href="#DejaVuSans-1a" transform="translate(190.875 0)"/>
       <use xlink:href="#DejaVuSans-11" transform="translate(254.5 0)"/>
       <use xlink:href="#DejaVuSans-18" transform="translate(286.28125 0)"/>
      </g>
     </g>
    </g>
    <g id="xtick_2">
     <g id="line2d_3">
      <path d="M 185.583956 400.069969 
L 185.583956 23.077969 
" clip-path="url(#pde63cde7cb)" style="fill: none; stroke: #e6e6e6; stroke-width: 0.7; stroke-linecap: square"/>
     </g>
     <g id="line2d_4">
      <g>
       <use xlink:href="#m2e3f92fe04" x="185.583956" y="400.069969" style="stroke: #000000; stroke-width: 0.8"/>
      </g>
     </g>
     <g id="text_2">
      <!-- 2010.0 -->
      <g transform="translate(166.339112 415.427391) scale(0.11 -0.11)">
       <defs>
        <path id="DejaVuSans-14" d="M 794 531 
L 1825 531 
L 1825 4091 
L 703 3866 
L 703 4441 
L 1819 4666 
L 2450 4666 
L 2450 531 
L 3481 531 
L 3481 0 
L 794 0 
L 794 531 
z
" transform="scale(0.015625)"/>
       </defs>
       <use xlink:href="#DejaVuSans-15"/>
       <use xlink:href="#DejaVuSans-13" transform="translate(63.625 0)"/>
       <use xlink:href="#DejaVuSans-14" transform="translate(127.25 0)"/>
       <use xlink:href="#DejaVuSans-13" transform="translate(190.875 0)"/>
       <use xlink:href="#DejaVuSans-11" transform="translate(254.5 0)"/>
       <use xlink:href="#DejaVuSans-13" transform="translate(286.28125 0)"/>
      </g>
     </g>
    </g>
    <g id="xtick_3">
     <g id="line2d_5">
      <path d="M 270.129411 400.069969 
L 270.129411 23.077969 
" clip-path="url(#pde63cde7cb)" style="fill: none; stroke: #e6e6e6; stroke-width: 0.7; stroke-linecap: square"/>
     </g>
     <g id="line2d_6">
      <g>
       <use xlink:href="#m2e3f92fe04" x="270.129411" y="400.069969" style="stroke: #000000; stroke-width: 0.8"/>
      </g>
     </g>
     <g id="text_3">
      <!-- 2012.5 -->
      <g transform="translate(250.884567 415.427391) scale(0.11 -0.11)">
       <use xlink:href="#DejaVuSans-15"/>
       <use xlink:href="#DejaVuSans-13" transform="translate(63.625 0)"/>
       <use xlink:href="#DejaVuSans-14" transform="translate(127.25 0)"/>
       <use xlink:href="#DejaVuSans-15" transform="translate(190.875 0)"/>
       <use xlink:href="#DejaVuSans-11" transform="translate(254.5 0)"/>
       <use xlink:href="#DejaVuSans-18" transform="translate(286.28125 0)"/>
      </g>
     </g>
    </g>
    <g id="xtick_4">
     <g id="line2d_7">
      <path d="M 354.674865 400.069969 
L 354.674865 23.077969 
" clip-path="url(#pde63cde7cb)" style="fill: none; stroke: #e6e6e6; stroke-width: 0.7; stroke-linecap: square"/>
     </g>
     <g id="line2d_8">
      <g>
       <use xlink:href="#m2e3f92fe04" x="354.674865" y="400.069969" style="stroke: #000000; stroke-width: 0.8"/>
      </g>
     </g>
     <g id="text_4">
      <!-- 2015.0 -->
      <g transform="translate(335.430021 415.427391) scale(0.11 -0.11)">
       <use xlink:href="#DejaVuSans-15"/>
       <use xlink:href="#DejaVuSans-13" transform="translate(63.625 0)"/>
       <use xlink:href="#DejaVuSans-14" transform="translate(127.25 0)"/>
       <use xlink:href="#DejaVuSans-18" transform="translate(190.875 0)"/>
       <use xlink:href="#DejaVuSans-11" transform="translate(254.5 0)"/>
       <use xlink:href="#DejaVuSans-13" transform="translate(286.28125 0)"/>
      </g>
     </g>
    </g>
    <g id="xtick_5">
     <g id="line2d_9">
      <path d="M 439.22032 400.069969 
L 439.22032 23.077969 
" clip-path="url(#pde63cde7cb)" style="fill: none; stroke: #e6e6e6; stroke-width: 0.7; stroke-linecap: square"/>
     </g>
     <g id="line2d_10">
      <g>
       <use xlink:href="#m2e3f92fe04" x="439.22032" y="400.069969" style="stroke: #000000; stroke-width: 0.8"/>
      </g>
     </g>
     <g id="text_5">
      <!-- 2017.5 -->
      <g transform="translate(419.975476 415.427391) scale(0.11 -0.11)">
       <use xlink:href="#DejaVuSans-15"/>
       <use xlink:href="#DejaVuSans-13" transform="translate(63.625 0)"/>
       <use xlink:href="#DejaVuSans-14" transform="translate(127.25 0)"/>
       <use xlink:href="#DejaVuSans-1a" transform="translate(190.875 0)"/>
       <use xlink:href="#DejaVuSans-11" transform="translate(254.5 0)"/>
       <use xlink:href="#DejaVuSans-18" transform="translate(286.28125 0)"/>
      </g>
     </g>
    </g>
    <g id="xtick_6">
     <g id="line2d_11">
      <path d="M 523.765774 400.069969 
L 523.765774 23.077969 
" clip-path="url(#pde63cde7cb)" style="fill: none; stroke: #e6e6e6; stroke-width: 0.7; stroke-linecap: square"/>
     </g>
     <g id="line2d_12">
      <g>
       <use xlink:href="#m2e3f92fe04" x="523.765774" y="400.069969" style="stroke: #000000; stroke-width: 0.8"/>
      </g>
     </g>
     <g id="text_6">
      <!-- 2020.0 -->
      <g transform="translate(504.52093 415.427391) scale(0.11 -0.11)">
       <use xlink:href="#DejaVuSans-15"/>
       <use xlink:href="#DejaVuSans-13" transform="translate(63.625 0)"/>
       <use xlink:href="#DejaVuSans-15" transform="translate(127.25 0)"/>
       <use xlink:href="#DejaVuSans-13" transform="translate(190.875 0)"/>
       <use xlink:href="#DejaVuSans-11" transform="translate(254.5 0)"/>
       <use xlink:href="#DejaVuSans-13" transform="translate(286.28125 0)"/>
      </g>
     </g>
    </g>
    <g id="xtick_7">
     <g id="line2d_13">
      <path d="M 608.311229 400.069969 
L 608.311229 23.077969 
" clip-path="url(#pde63cde7cb)" style="fill: none; stroke: #e6e6e6; stroke-width: 0.7; stroke-linecap: square"/>
     </g>
     <g id="line2d_14">
      <g>
       <use xlink:href="#m2e3f92fe04" x="608.311229" y="400.069969" style="stroke: #000000; stroke-width: 0.8"/>
      </g>
     </g>
     <g id="text_7">
      <!-- 2022.5 -->
      <g transform="translate(589.066385 415.427391) scale(0.11 -0.11)">
       <use xlink:href="#DejaVuSans-15"/>
       <use xlink:href="#DejaVuSans-13" transform="translate(63.625 0)"/>
       <use xlink:href="#DejaVuSans-15" transform="translate(127.25 0)"/>
       <use xlink:href="#DejaVuSans-15" transform="translate(190.875 0)"/>
       <use xlink:href="#DejaVuSans-11" transform="translate(254.5 0)"/>
       <use xlink:href="#DejaVuSans-18" transform="translate(286.28125 0)"/>
      </g>
     </g>
    </g>
    <g id="xtick_8">
     <g id="line2d_15">
      <path d="M 692.856683 400.069969 
L 692.856683 23.077969 
" clip-path="url(#pde63cde7cb)" style="fill: none; stroke: #e6e6e6; stroke-width: 0.7; stroke-linecap: square"/>
     </g>
     <g id="line2d_16">
      <g>
       <use xlink:href="#m2e3f92fe04" x="692.856683" y="400.069969" style="stroke: #000000; stroke-width: 0.8"/>
      </g>
     </g>
     <g id="text_8">
      <!-- 2025.0 -->
      <g transform="translate(673.611839 415.427391) scale(0.11 -0.11)">
       <use xlink:href="#DejaVuSans-15"/>
       <use xlink:href="#DejaVuSans-13" transform="translate(63.625 0)"/>
       <use xlink:href="#DejaVuSans-15" transform="translate(127.25 0)"/>
       <use xlink:href="#DejaVuSans-18" transform="translate(190.875 0)"/>
       <use xlink:href="#DejaVuSans-11" transform="translate(254.5 0)"/>
       <use xlink:href="#DejaVuSans-13" transform="translate(286.28125 0)"/>
      </g>
     </g>
    </g>
    <g id="text_9">
     <!-- year -->
     <g transform="translate(376.222031 430.427391) scale(0.11 -0.11)">
      <defs>
       <path id="DejaVuSans-5c" d="M 2059 -325 
Q 1816 -950 1584 -1140 
Q 1353 -1331 966 -1331 
L 506 -1331 
L 506 -850 
L 844 -850 
Q 1081 -850 1212 -737 
Q 1344 -625 1503 -206 
L 1606 56 
L 191 3500 
L 800 3500 
L 1894 763 
L 2988 3500 
L 3597 3500 
L 2059 -325 
z
" transform="scale(0.015625)"/>
       <path id="DejaVuSans-48" d="M 3597 1894 
L 3597 1613 
L 953 1613 
Q 991 1019 1311 708 
Q 1631 397 2203 397 
Q 2534 397 2845 478 
Q 3156 559 3463 722 
L 3463 178 
Q 3153 47 2828 -22 
Q 2503 -91 2169 -91 
Q 1331 -91 842 396 
Q 353 884 353 1716 
Q 353 2575 817 3079 
Q 1281 3584 2069 3584 
Q 2775 3584 3186 3129 
Q 3597 2675 3597 1894 
z
M 3022 2063 
Q 3016 2534 2758 2815 
Q 2500 3097 2075 3097 
Q 1594 3097 1305 2825 
Q 1016 2553 972 2059 
L 3022 2063 
z
" transform="scale(0.015625)"/>
       <path id="DejaVuSans-44" d="M 2194 1759 
Q 1497 1759 1228 1600 
Q 959 1441 959 1056 
Q 959 750 1161 570 
Q 1363 391 1709 391 
Q 2188 391 2477 730 
Q 2766 1069 2766 1631 
L 2766 1759 
L 2194 1759 
z
M 3341 1997 
L 3341 0 
L 2766 0 
L 2766 531 
Q 2569 213 2275 61 
Q 1981 -91 1556 -91 
Q 1019 -91 701 211 
Q 384 513 384 1019 
Q 384 1609 779 1909 
Q 1175 2209 1959 2209 
L 2766 2209 
L 2766 2266 
Q 2766 2663 2505 2880 
Q 2244 3097 1772 3097 
Q 1472 3097 1187 3025 
Q 903 2953 641 2809 
L 641 3341 
Q 956 3463 1253 3523 
Q 1550 3584 1831 3584 
Q 2591 3584 2966 3190 
Q 3341 2797 3341 1997 
z
" transform="scale(0.015625)"/>
       <path id="DejaVuSans-55" d="M 2631 2963 
Q 2534 3019 2420 3045 
Q 2306 3072 2169 3072 
Q 1681 3072 1420 2755 
Q 1159 2438 1159 1844 
L 1159 0 
L 581 0 
L 581 3500 
L 1159 3500 
L 1159 2956 
Q 1341 3275 1631 3429 
Q 1922 3584 2338 3584 
Q 2397 3584 2469 3576 
Q 2541 3569 2628 3553 
L 2631 2963 
z
" transform="scale(0.015625)"/>
      </defs>
      <use xlink:href="#DejaVuSans-5c"/>
      <use xlink:href="#DejaVuSans-48" transform="translate(59.1875 0)"/>
      <use xlink:href="#DejaVuSans-44" transform="translate(120.71875 0)"/>
      <use xlink:href="#DejaVuSans-55" transform="translate(182 0)"/>
     </g>
    </g>
   </g>
   <g id="matplotlib.axis_2">
    <g id="ytick_1">
     <g id="line2d_17">
      <path d="M 53.693047 340.600217 
L 723.293047 340.600217 
" clip-path="url(#pde63cde7cb)" style="fill: none; stroke: #e6e6e6; stroke-width: 0.7; stroke-linecap: square"/>
     </g>
     <g id="line2d_18">
      <defs>
       <path id="mf451df581d" d="M 0 0 
L -3.5 0 
" style="stroke: #000000; stroke-width: 0.8"/>
      </defs>
      <g>
       <use xlink:href="#mf451df581d" x="53.693047" y="340.600217" style="stroke: #000000; stroke-width: 0.8"/>
      </g>
     </g>
     <g id="text_10">
      <!-- 0.02 -->
      <g transform="translate(22.200859 344.778928) scale(0.11 -0.11)">
       <use xlink:href="#DejaVuSans-13"/>
       <use xlink:href="#DejaVuSans-11" transform="translate(63.625 0)"/>
       <use xlink:href="#DejaVuSans-13" transform="translate(95.40625 0)"/>
       <use xlink:href="#DejaVuSans-15" transform="translate(159.03125 0)"/>
      </g>
     </g>
    </g>
    <g id="ytick_2">
     <g id="line2d_19">
      <path d="M 53.693047 263.723612 
L 723.293047 263.723612 
" clip-path="url(#pde63cde7cb)" style="fill: none; stroke: #e6e6e6; stroke-width: 0.7; stroke-linecap: square"/>
     </g>
     <g id="line2d_20">
      <g>
       <use xlink:href="#mf451df581d" x="53.693047" y="263.723612" style="stroke: #000000; stroke-width: 0.8"/>
      </g>
     </g>
     <g id="text_11">
      <!-- 0.04 -->
      <g transform="translate(22.200859 267.902323) scale(0.11 -0.11)">
       <defs>
        <path id="DejaVuSans-17" d="M 2419 4116 
L 825 1625 
L 2419 1625 
L 2419 4116 
z
M 2253 4666 
L 3047 4666 
L 3047 1625 
L 3713 1625 
L 3713 1100 
L 3047 1100 
L 3047 0 
L 2419 0 
L 2419 1100 
L 313 1100 
L 313 1709 
L 2253 4666 
z
" transform="scale(0.015625)"/>
       </defs>
       <use xlink:href="#DejaVuSans-13"/>
       <use xlink:href="#DejaVuSans-11" transform="translate(63.625 0)"/>
       <use xlink:href="#DejaVuSans-13" transform="translate(95.40625 0)"/>
       <use xlink:href="#DejaVuSans-17" transform="translate(159.03125 0)"/>
      </g>
     </g>
    </g>
    <g id="ytick_3">
     <g id="line2d_21">
      <path d="M 53.693047 186.847007 
L 723.293047 186.847007 
" clip-path="url(#pde63cde7cb)" style="fill: none; stroke: #e6e6e6; stroke-width: 0.7; stroke-linecap: square"/>
     </g>
     <g id="line2d_22">
      <g>
       <use xlink:href="#mf451df581d" x="53.693047" y="186.847007" style="stroke: #000000; stroke-width: 0.8"/>
      </g>
     </g>
     <g id="text_12">
      <!-- 0.06 -->
      <g transform="translate(22.200859 191.025718) scale(0.11 -0.11)">
       <defs>
        <path id="DejaVuSans-19" d="M 2113 2584 
Q 1688 2584 1439 2293 
Q 1191 2003 1191 1497 
Q 1191 994 1439 701 
Q 1688 409 2113 409 
Q 2538 409 2786 701 
Q 3034 994 3034 1497 
Q 3034 2003 2786 2293 
Q 2538 2584 2113 2584 
z
M 3366 4563 
L 3366 3988 
Q 3128 4100 2886 4159 
Q 2644 4219 2406 4219 
Q 1781 4219 1451 3797 
Q 1122 3375 1075 2522 
Q 1259 2794 1537 2939 
Q 1816 3084 2150 3084 
Q 2853 3084 3261 2657 
Q 3669 2231 3669 1497 
Q 3669 778 3244 343 
Q 2819 -91 2113 -91 
Q 1303 -91 875 529 
Q 447 1150 447 2328 
Q 447 3434 972 4092 
Q 1497 4750 2381 4750 
Q 2619 4750 2861 4703 
Q 3103 4656 3366 4563 
z
" transform="scale(0.015625)"/>
       </defs>
       <use xlink:href="#DejaVuSans-13"/>
       <use xlink:href="#DejaVuSans-11" transform="translate(63.625 0)"/>
       <use xlink:href="#DejaVuSans-13" transform="translate(95.40625 0)"/>
       <use xlink:href="#DejaVuSans-19" transform="translate(159.03125 0)"/>
      </g>
     </g>
    </g>
    <g id="ytick_4">
     <g id="line2d_23">
      <path d="M 53.693047 109.970401 
L 723.293047 109.970401 
" clip-path="url(#pde63cde7cb)" style="fill: none; stroke: #e6e6e6; stroke-width: 0.7; stroke-linecap: square"/>
     </g>
     <g id="line2d_24">
      <g>
       <use xlink:href="#mf451df581d" x="53.693047" y="109.970401" style="stroke: #000000; stroke-width: 0.8"/>
      </g>
     </g>
     <g id="text_13">
      <!-- 0.08 -->
      <g transform="translate(22.200859 114.149112) scale(0.11 -0.11)">
       <defs>
        <path id="DejaVuSans-1b" d="M 2034 2216 
Q 1584 2216 1326 1975 
Q 1069 1734 1069 1313 
Q 1069 891 1326 650 
Q 1584 409 2034 409 
Q 2484 409 2743 651 
Q 3003 894 3003 1313 
Q 3003 1734 2745 1975 
Q 2488 2216 2034 2216 
z
M 1403 2484 
Q 997 2584 770 2862 
Q 544 3141 544 3541 
Q 544 4100 942 4425 
Q 1341 4750 2034 4750 
Q 2731 4750 3128 4425 
Q 3525 4100 3525 3541 
Q 3525 3141 3298 2862 
Q 3072 2584 2669 2484 
Q 3125 2378 3379 2068 
Q 3634 1759 3634 1313 
Q 3634 634 3220 271 
Q 2806 -91 2034 -91 
Q 1263 -91 848 271 
Q 434 634 434 1313 
Q 434 1759 690 2068 
Q 947 2378 1403 2484 
z
M 1172 3481 
Q 1172 3119 1398 2916 
Q 1625 2713 2034 2713 
Q 2441 2713 2670 2916 
Q 2900 3119 2900 3481 
Q 2900 3844 2670 4047 
Q 2441 4250 2034 4250 
Q 1625 4250 1398 4047 
Q 1172 3844 1172 3481 
z
" transform="scale(0.015625)"/>
       </defs>
       <use xlink:href="#DejaVuSans-13"/>
       <use xlink:href="#DejaVuSans-11" transform="translate(63.625 0)"/>
       <use xlink:href="#DejaVuSans-13" transform="translate(95.40625 0)"/>
       <use xlink:href="#DejaVuSans-1b" transform="translate(159.03125 0)"/>
      </g>
     </g>
    </g>
    <g id="ytick_5">
     <g id="line2d_25">
      <path d="M 53.693047 33.093796 
L 723.293047 33.093796 
" clip-path="url(#pde63cde7cb)" style="fill: none; stroke: #e6e6e6; stroke-width: 0.7; stroke-linecap: square"/>
     </g>
     <g id="line2d_26">
      <g>
       <use xlink:href="#mf451df581d" x="53.693047" y="33.093796" style="stroke: #000000; stroke-width: 0.8"/>
      </g>
     </g>
     <g id="text_14">
      <!-- 0.10 -->
      <g transform="translate(22.200859 37.272507) scale(0.11 -0.11)">
       <use xlink:href="#DejaVuSans-13"/>
       <use xlink:href="#DejaVuSans-11" transform="translate(63.625 0)"/>
       <use xlink:href="#DejaVuSans-14" transform="translate(95.40625 0)"/>
       <use xlink:href="#DejaVuSans-13" transform="translate(159.03125 0)"/>
      </g>
     </g>
    </g>
    <g id="text_15">
     <!-- share of abstracts (smoothed) -->
     <g transform="translate(15.558281 294.687562) rotate(-90) scale(0.11 -0.11)">
      <defs>
       <path id="DejaVuSans-56" d="M 2834 3397 
L 2834 2853 
Q 2591 2978 2328 3040 
Q 2066 3103 1784 3103 
Q 1356 3103 1142 2972 
Q 928 2841 928 2578 
Q 928 2378 1081 2264 
Q 1234 2150 1697 2047 
L 1894 2003 
Q 2506 1872 2764 1633 
Q 3022 1394 3022 966 
Q 3022 478 2636 193 
Q 2250 -91 1575 -91 
Q 1294 -91 989 -36 
Q 684 19 347 128 
L 347 722 
Q 666 556 975 473 
Q 1284 391 1588 391 
Q 1994 391 2212 530 
Q 2431 669 2431 922 
Q 2431 1156 2273 1281 
Q 2116 1406 1581 1522 
L 1381 1569 
Q 847 1681 609 1914 
Q 372 2147 372 2553 
Q 372 3047 722 3315 
Q 1072 3584 1716 3584 
Q 2034 3584 2315 3537 
Q 2597 3491 2834 3397 
z
" transform="scale(0.015625)"/>
       <path id="DejaVuSans-4b" d="M 3513 2113 
L 3513 0 
L 2938 0 
L 2938 2094 
Q 2938 2591 2744 2837 
Q 2550 3084 2163 3084 
Q 1697 3084 1428 2787 
Q 1159 2491 1159 1978 
L 1159 0 
L 581 0 
L 581 4863 
L 1159 4863 
L 1159 2956 
Q 1366 3272 1645 3428 
Q 1925 3584 2291 3584 
Q 2894 3584 3203 3211 
Q 3513 2838 3513 2113 
z
" transform="scale(0.015625)"/>
       <path id="DejaVuSans-3" transform="scale(0.015625)"/>
       <path id="DejaVuSans-52" d="M 1959 3097 
Q 1497 3097 1228 2736 
Q 959 2375 959 1747 
Q 959 1119 1226 758 
Q 1494 397 1959 397 
Q 2419 397 2687 759 
Q 2956 1122 2956 1747 
Q 2956 2369 2687 2733 
Q 2419 3097 1959 3097 
z
M 1959 3584 
Q 2709 3584 3137 3096 
Q 3566 2609 3566 1747 
Q 3566 888 3137 398 
Q 2709 -91 1959 -91 
Q 1206 -91 779 398 
Q 353 888 353 1747 
Q 353 2609 779 3096 
Q 1206 3584 1959 3584 
z
" transform="scale(0.015625)"/>
       <path id="DejaVuSans-49" d="M 2375 4863 
L 2375 4384 
L 1825 4384 
Q 1516 4384 1395 4259 
Q 1275 4134 1275 3809 
L 1275 3500 
L 2222 3500 
L 2222 3053 
L 1275 3053 
L 1275 0 
L 697 0 
L 697 3053 
L 147 3053 
L 147 3500 
L 697 3500 
L 697 3744 
Q 697 4328 969 4595 
Q 1241 4863 1831 4863 
L 2375 4863 
z
" transform="scale(0.015625)"/>
       <path id="DejaVuSans-45" d="M 3116 1747 
Q 3116 2381 2855 2742 
Q 2594 3103 2138 3103 
Q 1681 3103 1420 2742 
Q 1159 2381 1159 1747 
Q 1159 1113 1420 752 
Q 1681 391 2138 391 
Q 2594 391 2855 752 
Q 3116 1113 3116 1747 
z
M 1159 2969 
Q 1341 3281 1617 3432 
Q 1894 3584 2278 3584 
Q 2916 3584 3314 3078 
Q 3713 2572 3713 1747 
Q 3713 922 3314 415 
Q 2916 -91 2278 -91 
Q 1894 -91 1617 61 
Q 1341 213 1159 525 
L 1159 0 
L 581 0 
L 581 4863 
L 1159 4863 
L 1159 2969 
z
" transform="scale(0.015625)"/>
       <path id="DejaVuSans-57" d="M 1172 4494 
L 1172 3500 
L 2356 3500 
L 2356 3053 
L 1172 3053 
L 1172 1153 
Q 1172 725 1289 603 
Q 1406 481 1766 481 
L 2356 481 
L 2356 0 
L 1766 0 
Q 1100 0 847 248 
Q 594 497 594 1153 
L 594 3053 
L 172 3053 
L 172 3500 
L 594 3500 
L 594 4494 
L 1172 4494 
z
" transform="scale(0.015625)"/>
       <path id="DejaVuSans-46" d="M 3122 3366 
L 3122 2828 
Q 2878 2963 2633 3030 
Q 2388 3097 2138 3097 
Q 1578 3097 1268 2742 
Q 959 2388 959 1747 
Q 959 1106 1268 751 
Q 1578 397 2138 397 
Q 2388 397 2633 464 
Q 2878 531 3122 666 
L 3122 134 
Q 2881 22 2623 -34 
Q 2366 -91 2075 -91 
Q 1284 -91 818 406 
Q 353 903 353 1747 
Q 353 2603 823 3093 
Q 1294 3584 2113 3584 
Q 2378 3584 2631 3529 
Q 2884 3475 3122 3366 
z
" transform="scale(0.015625)"/>
       <path id="DejaVuSans-b" d="M 1984 4856 
Q 1566 4138 1362 3434 
Q 1159 2731 1159 2009 
Q 1159 1288 1364 580 
Q 1569 -128 1984 -844 
L 1484 -844 
Q 1016 -109 783 600 
Q 550 1309 550 2009 
Q 550 2706 781 3412 
Q 1013 4119 1484 4856 
L 1984 4856 
z
" transform="scale(0.015625)"/>
       <path id="DejaVuSans-50" d="M 3328 2828 
Q 3544 3216 3844 3400 
Q 4144 3584 4550 3584 
Q 5097 3584 5394 3201 
Q 5691 2819 5691 2113 
L 5691 0 
L 5113 0 
L 5113 2094 
Q 5113 2597 4934 2840 
Q 4756 3084 4391 3084 
Q 3944 3084 3684 2787 
Q 3425 2491 3425 1978 
L 3425 0 
L 2847 0 
L 2847 2094 
Q 2847 2600 2669 2842 
Q 2491 3084 2119 3084 
Q 1678 3084 1418 2786 
Q 1159 2488 1159 1978 
L 1159 0 
L 581 0 
L 581 3500 
L 1159 3500 
L 1159 2956 
Q 1356 3278 1631 3431 
Q 1906 3584 2284 3584 
Q 2666 3584 2933 3390 
Q 3200 3197 3328 2828 
z
" transform="scale(0.015625)"/>
       <path id="DejaVuSans-47" d="M 2906 2969 
L 2906 4863 
L 3481 4863 
L 3481 0 
L 2906 0 
L 2906 525 
Q 2725 213 2448 61 
Q 2172 -91 1784 -91 
Q 1150 -91 751 415 
Q 353 922 353 1747 
Q 353 2572 751 3078 
Q 1150 3584 1784 3584 
Q 2172 3584 2448 3432 
Q 2725 3281 2906 2969 
z
M 947 1747 
Q 947 1113 1208 752 
Q 1469 391 1925 391 
Q 2381 391 2643 752 
Q 2906 1113 2906 1747 
Q 2906 2381 2643 2742 
Q 2381 3103 1925 3103 
Q 1469 3103 1208 2742 
Q 947 2381 947 1747 
z
" transform="scale(0.015625)"/>
       <path id="DejaVuSans-c" d="M 513 4856 
L 1013 4856 
Q 1481 4119 1714 3412 
Q 1947 2706 1947 2009 
Q 1947 1309 1714 600 
Q 1481 -109 1013 -844 
L 513 -844 
Q 928 -128 1133 580 
Q 1338 1288 1338 2009 
Q 1338 2731 1133 3434 
Q 928 4138 513 4856 
z
" transform="scale(0.015625)"/>
      </defs>
      <use xlink:href="#DejaVuSans-56"/>
      <use xlink:href="#DejaVuSans-4b" transform="translate(52.09375 0)"/>
      <use xlink:href="#DejaVuSans-44" transform="translate(115.46875 0)"/>
      <use xlink:href="#DejaVuSans-55" transform="translate(176.75 0)"/>
      <use xlink:href="#DejaVuSans-48" transform="translate(215.65625 0)"/>
      <use xlink:href="#DejaVuSans-3" transform="translate(277.1875 0)"/>
      <use xlink:href="#DejaVuSans-52" transform="translate(308.96875 0)"/>
      <use xlink:href="#DejaVuSans-49" transform="translate(370.15625 0)"/>
      <use xlink:href="#DejaVuSans-3" transform="translate(405.359375 0)"/>
      <use xlink:href="#DejaVuSans-44" transform="translate(437.140625 0)"/>
      <use xlink:href="#DejaVuSans-45" transform="translate(498.421875 0)"/>
      <use xlink:href="#DejaVuSans-56" transform="translate(561.90625 0)"/>
      <use xlink:href="#DejaVuSans-57" transform="translate(614 0)"/>
      <use xlink:href="#DejaVuSans-55" transform="translate(653.203125 0)"/>
      <use xlink:href="#DejaVuSans-44" transform="translate(694.3125 0)"/>
      <use xlink:href="#DejaVuSans-46" transform="translate(755.59375 0)"/>
      <use xlink:href="#DejaVuSans-57" transform="translate(810.578125 0)"/>
      <use xlink:href="#DejaVuSans-56" transform="translate(849.78125 0)"/>
      <use xlink:href="#DejaVuSans-3" transform="translate(901.875 0)"/>
      <use xlink:href="#DejaVuSans-b" transform="translate(933.65625 0)"/>
      <use xlink:href="#DejaVuSans-56" transform="translate(972.671875 0)"/>
      <use xlink:href="#DejaVuSans-50" transform="translate(1024.765625 0)"/>
      <use xlink:href="#DejaVuSans-52" transform="translate(1122.171875 0)"/>
      <use xlink:href="#DejaVuSans-52" transform="translate(1183.359375 0)"/>
      <use xlink:href="#DejaVuSans-57" transform="translate(1244.546875 0)"/>
      <use xlink:href="#DejaVuSans-4b" transform="translate(1283.75 0)"/>
      <use xlink:href="#DejaVuSans-48" transform="translate(1347.125 0)"/>
      <use xlink:href="#DejaVuSans-47" transform="translate(1408.65625 0)"/>
      <use xlink:href="#DejaVuSans-c" transform="translate(1472.140625 0)"/>
     </g>
    </g>
   </g>
   <g id="line2d_27">
    <path d="M 84.129411 129.414386 
L 117.947592 68.085422 
L 151.765774 100.386094 
L 185.583956 81.117327 
L 219.402138 129.679455 
L 253.22032 111.996098 
L 287.038501 96.514551 
L 320.856683 102.165371 
L 354.674865 88.264482 
L 388.493047 93.441075 
L 422.311229 56.050775 
L 456.129411 68.744423 
L 489.947592 40.213969 
L 523.765774 137.491248 
L 557.583956 139.949071 
L 591.402138 185.06023 
L 625.22032 124.852949 
L 659.038501 147.445258 
L 692.856683 139.28856 
" clip-path="url(#pde63cde7cb)" style="fill: none; stroke: #2e86ab; stroke-width: 1.9; stroke-linecap: square"/>
   </g>
   <g id="line2d_28">
    <path d="M 84.129411 303.775211 
L 117.947592 299.929889 
L 151.765774 309.273474 
L 185.583956 280.16906 
L 219.402138 267.521095 
L 253.22032 229.752307 
L 287.038501 232.690031 
L 320.856683 251.382645 
L 354.674865 234.82653 
L 388.493047 251.491118 
L 422.311229 233.461367 
L 456.129411 227.661683 
L 489.947592 228.238056 
L 523.765774 195.46932 
L 557.583956 226.806563 
L 591.402138 215.250573 
L 625.22032 269.917307 
L 659.038501 281.213461 
L 692.856683 308.226094 
" clip-path="url(#pde63cde7cb)" style="fill: none; stroke: #d1495b; stroke-width: 1.9; stroke-linecap: square"/>
   </g>
   <g id="line2d_29">
    <path d="M 84.129411 246.924405 
L 117.947592 258.818132 
L 151.765774 261.078677 
L 185.583956 275.377117 
L 219.402138 265.940372 
L 253.22032 282.320475 
L 287.038501 284.595262 
L 320.856683 299.321075 
L 354.674865 323.973028 
L 388.493047 326.864458 
L 422.311229 312.801508 
L 456.129411 275.298971 
L 489.947592 273.569853 
L 523.765774 294.863427 
L 557.583956 303.488565 
L 591.402138 312.117037 
L 625.22032 320.679702 
L 659.038501 300.876567 
L 692.856683 299.663027 
" clip-path="url(#pde63cde7cb)" style="fill: none; stroke: #e8a33d; stroke-width: 1.9; stroke-linecap: square"/>
   </g>
   <g id="line2d_30">
    <path d="M 84.129411 355.57873 
L 117.947592 356.944108 
L 151.765774 356.542233 
L 185.583956 382.933969 
L 219.402138 359.89498 
L 253.22032 346.274707 
L 287.038501 334.406821 
L 320.856683 364.812725 
L 354.674865 294.501297 
L 388.493047 255.824529 
L 422.311229 230.526575 
L 456.129411 270.155141 
L 489.947592 257.47494 
L 523.765774 208.1736 
L 557.583956 101.463121 
L 591.402138 114.885189 
L 625.22032 121.802478 
L 659.038501 224.025701 
L 692.856683 216.1015 
" clip-path="url(#pde63cde7cb)" style="fill: none; stroke: #3c896d; stroke-width: 1.9; stroke-linecap: square"/>
   </g>
   <g id="line2d_31">
    <path d="M 84.129411 309.46488 
L 117.947592 310.145442 
L 151.765774 302.660527 
L 185.583956 299.51032 
L 219.402138 262.30864 
L 253.22032 255.485726 
L 287.038501 250.260216 
L 320.856683 287.084106 
L 354.674865 287.370454 
L 388.493047 297.148463 
L 422.311229 291.518165 
L 456.129411 297.333481 
L 489.947592 314.912852 
L 523.765774 302.18205 
L 557.583956 297.425707 
L 591.402138 294.720749 
L 625.22032 293.075375 
L 659.038501 290.35593 
L 692.856683 277.539118 
" clip-path="url(#pde63cde7cb)" style="fill: none; stroke: #6a4c93; stroke-width: 1.9; stroke-linecap: square"/>
   </g>
   <g id="line2d_32">
    <path d="M 84.129411 265.874674 
L 117.947592 281.085304 
L 151.765774 277.870307 
L 185.583956 269.347247 
L 219.402138 262.364358 
L 253.22032 278.744462 
L 287.038501 301.999279 
L 320.856683 280.83677 
L 354.674865 293.514173 
L 388.493047 287.342679 
L 422.311229 317.74629 
L 456.129411 292.218302 
L 489.947592 299.422962 
L 523.765774 278.425859 
L 557.583956 295.767165 
L 591.402138 311.89419 
L 625.22032 318.207056 
L 659.038501 330.688609 
L 692.856683 325.352228 
" clip-path="url(#pde63cde7cb)" style="fill: none; stroke: #1b998b; stroke-width: 1.9; stroke-linecap: square"/>
   </g>
   <g id="line2d_33">
    <path d="M 84.129411 308.822498 
L 117.947592 296.872307 
L 151.765774 305.412143 
L 185.583956 293.318848 
L 219.402138 323.355872 
L 253.22032 308.483453 
L 287.038501 306.676623 
L 320.856683 277.206284 
L 354.674865 309.381377 
L 388.493047 303.209883 
L 422.311229 305.346838 
L 456.129411 283.16422 
L 489.947592 311.118301 
L 523.765774 340.364267 
L 557.583956 363.076372 
L 591.402138 366.911248 
L 625.22032 359.255219 
L 659.038501 359.603866 
L 692.856683 356.039204 
" clip-path="url(#pde63cde7cb)" style="fill: none; stroke: #c1666b; stroke-width: 1.9; stroke-linecap: square"/>
   </g>
   <g id="line2d_34">
    <path d="M 84.129411 349.246679 
L 117.947592 355.93396 
L 151.765774 382.50792 
L 185.583956 361.471536 
L 219.402138 365.440119 
L 253.22032 346.555725 
L 287.038501 337.534572 
L 320.856683 302.020475 
L 354.674865 308.710604 
L 388.493047 293.476186 
L 422.311229 316.278894 
L 456.129411 320.155771 
L 489.947592 320.732144 
L 523.765774 296.87497 
L 557.583956 247.217843 
L 591.402138 252.576398 
L 625.22032 245.524793 
L 659.038501 298.17045 
L 692.856683 308.28976 
" clip-path="url(#pde63cde7cb)" style="fill: none; stroke: #8d99ae; stroke-width: 1.9; stroke-linecap: square"/>
   </g>
   <g id="line2d_35">
    <path d="M 84.129411 363.14966 
L 117.947592 349.146515 
L 151.765774 359.293849 
L 185.583956 329.751907 
L 219.402138 349.776589 
L 253.22032 316.965274 
L 287.038501 302.341646 
L 320.856683 270.794351 
L 354.674865 273.449577 
L 388.493047 309.452549 
L 422.311229 315.889004 
L 456.129411 327.691595 
L 489.947592 313.858647 
L 523.765774 345.650774 
L 557.583956 358.326768 
L 591.402138 373.495074 
L 625.22032 339.110102 
L 659.038501 325.791796 
L 692.856683 311.664054 
" clip-path="url(#pde63cde7cb)" style="fill: none; stroke: #587291; stroke-width: 1.9; stroke-linecap: square"/>
   </g>
   <g id="line2d_36">
    <path d="M 84.129411 235.545067 
L 117.947592 270.499226 
L 151.765774 288.784522 
L 185.583956 310.695962 
L 219.402138 300.123172 
L 253.22032 333.522229 
L 287.038501 351.083581 
L 320.856683 347.67812 
L 354.674865 361.188535 
L 388.493047 338.103728 
L 422.311229 332.30708 
L 456.129411 321.567504 
L 489.947592 313.786471 
L 523.765774 348.438668 
L 557.583956 365.165518 
L 591.402138 364.377999 
L 625.22032 367.23222 
L 659.038501 346.731792 
L 692.856683 374.788819 
" clip-path="url(#pde63cde7cb)" style="fill: none; stroke: #b56576; stroke-width: 1.9; stroke-linecap: square"/>
   </g>
   <g id="patch_3">
    <path d="M 53.693047 400.069969 
L 53.693047 23.077969 
" style="fill: none; stroke: #444444; stroke-width: 0.8; stroke-linejoin: miter; stroke-linecap: square"/>
   </g>
   <g id="patch_4">
    <path d="M 53.693047 400.069969 
L 723.293047 400.069969 
" style="fill: none; stroke: #444444; stroke-width: 0.8; stroke-linejoin: miter; stroke-linecap: square"/>
   </g>
   <g id="text_16">
    <!-- Data-driven topics over time (BERTopic, volume-normalised) -->
    <g transform="translate(167.265547 17.077969) scale(0.13 -0.13)">
     <defs>
      <path id="DejaVuSans-Bold-27" d="M 1791 3756 
L 1791 909 
L 2222 909 
Q 2959 909 3348 1275 
Q 3738 1641 3738 2338 
Q 3738 3031 3350 3393 
Q 2963 3756 2222 3756 
L 1791 3756 
z
M 588 4666 
L 1856 4666 
Q 2919 4666 3439 4514 
Q 3959 4363 4331 4000 
Q 4659 3684 4818 3271 
Q 4978 2859 4978 2338 
Q 4978 1809 4818 1395 
Q 4659 981 4331 666 
Q 3956 303 3431 151 
Q 2906 0 1856 0 
L 588 0 
L 588 4666 
z
" transform="scale(0.015625)"/>
      <path id="DejaVuSans-Bold-44" d="M 2106 1575 
Q 1756 1575 1579 1456 
Q 1403 1338 1403 1106 
Q 1403 894 1545 773 
Q 1688 653 1941 653 
Q 2256 653 2472 879 
Q 2688 1106 2688 1447 
L 2688 1575 
L 2106 1575 
z
M 3816 1997 
L 3816 0 
L 2688 0 
L 2688 519 
Q 2463 200 2181 54 
Q 1900 -91 1497 -91 
Q 953 -91 614 226 
Q 275 544 275 1050 
Q 275 1666 698 1953 
Q 1122 2241 2028 2241 
L 2688 2241 
L 2688 2328 
Q 2688 2594 2478 2717 
Q 2269 2841 1825 2841 
Q 1466 2841 1156 2769 
Q 847 2697 581 2553 
L 581 3406 
Q 941 3494 1303 3539 
Q 1666 3584 2028 3584 
Q 2975 3584 3395 3211 
Q 3816 2838 3816 1997 
z
" transform="scale(0.015625)"/>
      <path id="DejaVuSans-Bold-57" d="M 1759 4494 
L 1759 3500 
L 2913 3500 
L 2913 2700 
L 1759 2700 
L 1759 1216 
Q 1759 972 1856 886 
Q 1953 800 2241 800 
L 2816 800 
L 2816 0 
L 1856 0 
Q 1194 0 917 276 
Q 641 553 641 1216 
L 641 2700 
L 84 2700 
L 84 3500 
L 641 3500 
L 641 4494 
L 1759 4494 
z
" transform="scale(0.015625)"/>
      <path id="DejaVuSans-Bold-10" d="M 347 2297 
L 2309 2297 
L 2309 1388 
L 347 1388 
L 347 2297 
z
" transform="scale(0.015625)"/>
      <path id="DejaVuSans-Bold-47" d="M 2919 2988 
L 2919 4863 
L 4044 4863 
L 4044 0 
L 2919 0 
L 2919 506 
Q 2688 197 2409 53 
Q 2131 -91 1766 -91 
Q 1119 -91 703 423 
Q 288 938 288 1747 
Q 288 2556 703 3070 
Q 1119 3584 1766 3584 
Q 2128 3584 2408 3439 
Q 2688 3294 2919 2988 
z
M 2181 722 
Q 2541 722 2730 984 
Q 2919 1247 2919 1747 
Q 2919 2247 2730 2509 
Q 2541 2772 2181 2772 
Q 1825 2772 1636 2509 
Q 1447 2247 1447 1747 
Q 1447 1247 1636 984 
Q 1825 722 2181 722 
z
" transform="scale(0.015625)"/>
      <path id="DejaVuSans-Bold-55" d="M 3138 2547 
Q 2991 2616 2845 2648 
Q 2700 2681 2553 2681 
Q 2122 2681 1889 2404 
Q 1656 2128 1656 1613 
L 1656 0 
L 538 0 
L 538 3500 
L 1656 3500 
L 1656 2925 
Q 1872 3269 2151 3426 
Q 2431 3584 2822 3584 
Q 2878 3584 2943 3579 
Q 3009 3575 3134 3559 
L 3138 2547 
z
" transform="scale(0.015625)"/>
      <path id="DejaVuSans-Bold-4c" d="M 538 3500 
L 1656 3500 
L 1656 0 
L 538 0 
L 538 3500 
z
M 538 4863 
L 1656 4863 
L 1656 3950 
L 538 3950 
L 538 4863 
z
" transform="scale(0.015625)"/>
      <path id="DejaVuSans-Bold-59" d="M 97 3500 
L 1216 3500 
L 2088 1081 
L 2956 3500 
L 4078 3500 
L 2700 0 
L 1472 0 
L 97 3500 
z
" transform="scale(0.015625)"/>
      <path id="DejaVuSans-Bold-48" d="M 4031 1759 
L 4031 1441 
L 1416 1441 
Q 1456 1047 1700 850 
Q 1944 653 2381 653 
Q 2734 653 3104 758 
Q 3475 863 3866 1075 
L 3866 213 
Q 3469 63 3072 -14 
Q 2675 -91 2278 -91 
Q 1328 -91 801 392 
Q 275 875 275 1747 
Q 275 2603 792 3093 
Q 1309 3584 2216 3584 
Q 3041 3584 3536 3087 
Q 4031 2591 4031 1759 
z
M 2881 2131 
Q 2881 2450 2695 2645 
Q 2509 2841 2209 2841 
Q 1884 2841 1681 2658 
Q 1478 2475 1428 2131 
L 2881 2131 
z
" transform="scale(0.015625)"/>
      <path id="DejaVuSans-Bold-51" d="M 4056 2131 
L 4056 0 
L 2931 0 
L 2931 347 
L 2931 1631 
Q 2931 2084 2911 2256 
Q 2891 2428 2841 2509 
Q 2775 2619 2662 2680 
Q 2550 2741 2406 2741 
Q 2056 2741 1856 2470 
Q 1656 2200 1656 1722 
L 1656 0 
L 538 0 
L 538 3500 
L 1656 3500 
L 1656 2988 
Q 1909 3294 2193 3439 
Q 2478 3584 2822 3584 
Q 3428 3584 3742 3212 
Q 4056 2841 4056 2131 
z
" transform="scale(0.015625)"/>
      <path id="DejaVuSans-Bold-3" transform="scale(0.015625)"/>
      <path id="DejaVuSans-Bold-52" d="M 2203 2784 
Q 1831 2784 1636 2517 
Q 1441 2250 1441 1747 
Q 1441 1244 1636 976 
Q 1831 709 2203 709 
Q 2569 709 2762 976 
Q 2956 1244 2956 1747 
Q 2956 2250 2762 2517 
Q 2569 2784 2203 2784 
z
M 2203 3584 
Q 3106 3584 3614 3096 
Q 4122 2609 4122 1747 
Q 4122 884 3614 396 
Q 3106 -91 2203 -91 
Q 1297 -91 786 396 
Q 275 884 275 1747 
Q 275 2609 786 3096 
Q 1297 3584 2203 3584 
z
" transform="scale(0.015625)"/>
      <path id="DejaVuSans-Bold-53" d="M 1656 506 
L 1656 -1331 
L 538 -1331 
L 538 3500 
L 1656 3500 
L 1656 2988 
Q 1888 3294 2169 3439 
Q 2450 3584 2816 3584 
Q 3463 3584 3878 3070 
Q 4294 2556 4294 1747 
Q 4294 938 3878 423 
Q 3463 -91 2816 -91 
Q 2450 -91 2169 54 
Q 1888 200 1656 506 
z
M 2400 2772 
Q 2041 2772 1848 2508 
Q 1656 2244 1656 1747 
Q 1656 1250 1848 986 
Q 2041 722 2400 722 
Q 2759 722 2948 984 
Q 3138 1247 3138 1747 
Q 3138 2247 2948 2509 
Q 2759 2772 2400 2772 
z
" transform="scale(0.015625)"/>
      <path id="DejaVuSans-Bold-46" d="M 3366 3391 
L 3366 2478 
Q 3138 2634 2908 2709 
Q 2678 2784 2431 2784 
Q 1963 2784 1702 2511 
Q 1441 2238 1441 1747 
Q 1441 1256 1702 982 
Q 1963 709 2431 709 
Q 2694 709 2930 787 
Q 3166 866 3366 1019 
L 3366 103 
Q 3103 6 2833 -42 
Q 2563 -91 2291 -91 
Q 1344 -91 809 395 
Q 275 881 275 1747 
Q 275 2613 809 3098 
Q 1344 3584 2291 3584 
Q 2566 3584 2833 3536 
Q 3100 3488 3366 3391 
z
" transform="scale(0.015625)"/>
      <path id="DejaVuSans-Bold-56" d="M 3272 3391 
L 3272 2541 
Q 2913 2691 2578 2766 
Q 2244 2841 1947 2841 
Q 1628 2841 1473 2761 
Q 1319 2681 1319 2516 
Q 1319 2381 1436 2309 
Q 1553 2238 1856 2203 
L 2053 2175 
Q 2913 2066 3209 1816 
Q 3506 1566 3506 1031 
Q 3506 472 3093 190 
Q 2681 -91 1863 -91 
Q 1516 -91 1145 -36 
Q 775 19 384 128 
L 384 978 
Q 719 816 1070 734 
Q 1422 653 1784 653 
Q 2113 653 2278 743 
Q 2444 834 2444 1013 
Q 2444 1163 2330 1236 
Q 2216 1309 1875 1350 
L 1678 1375 
Q 931 1469 631 1722 
Q 331 1975 331 2491 
Q 331 3047 712 3315 
Q 1094 3584 1881 3584 
Q 2191 3584 2531 3537 
Q 2872 3491 3272 3391 
z
" transform="scale(0.015625)"/>
      <path id="DejaVuSans-Bold-50" d="M 3781 2919 
Q 3994 3244 4286 3414 
Q 4578 3584 4928 3584 
Q 5531 3584 5847 3212 
Q 6163 2841 6163 2131 
L 6163 0 
L 5038 0 
L 5038 1825 
Q 5041 1866 5042 1909 
Q 5044 1953 5044 2034 
Q 5044 2406 4934 2573 
Q 4825 2741 4581 2741 
Q 4263 2741 4089 2478 
Q 3916 2216 3909 1719 
L 3909 0 
L 2784 0 
L 2784 1825 
Q 2784 2406 2684 2573 
Q 2584 2741 2328 2741 
Q 2006 2741 1831 2477 
Q 1656 2213 1656 1722 
L 1656 0 
L 531 0 
L 531 3500 
L 1656 3500 
L 1656 2988 
Q 1863 3284 2130 3434 
Q 2397 3584 2719 3584 
Q 3081 3584 3359 3409 
Q 3638 3234 3781 2919 
z
" transform="scale(0.015625)"/>
      <path id="DejaVuSans-Bold-b" d="M 2413 -844 
L 1484 -844 
Q 1006 -72 778 623 
Q 550 1319 550 2003 
Q 550 2688 779 3389 
Q 1009 4091 1484 4856 
L 2413 4856 
Q 2013 4116 1813 3408 
Q 1613 2700 1613 2009 
Q 1613 1319 1811 609 
Q 2009 -100 2413 -844 
z
" transform="scale(0.015625)"/>
      <path id="DejaVuSans-Bold-25" d="M 2456 2859 
Q 2741 2859 2887 2984 
Q 3034 3109 3034 3353 
Q 3034 3594 2887 3720 
Q 2741 3847 2456 3847 
L 1791 3847 
L 1791 2859 
L 2456 2859 
z
M 2497 819 
Q 2859 819 3042 972 
Q 3225 1125 3225 1434 
Q 3225 1738 3044 1889 
Q 2863 2041 2497 2041 
L 1791 2041 
L 1791 819 
L 2497 819 
z
M 3616 2497 
Q 4003 2384 4215 2081 
Q 4428 1778 4428 1338 
Q 4428 663 3972 331 
Q 3516 0 2584 0 
L 588 0 
L 588 4666 
L 2394 4666 
Q 3366 4666 3802 4372 
Q 4238 4078 4238 3431 
Q 4238 3091 4078 2852 
Q 3919 2613 3616 2497 
z
" transform="scale(0.015625)"/>
      <path id="DejaVuSans-Bold-28" d="M 588 4666 
L 3834 4666 
L 3834 3756 
L 1791 3756 
L 1791 2888 
L 3713 2888 
L 3713 1978 
L 1791 1978 
L 1791 909 
L 3903 909 
L 3903 0 
L 588 0 
L 588 4666 
z
" transform="scale(0.015625)"/>
      <path id="DejaVuSans-Bold-35" d="M 2297 2597 
Q 2675 2597 2839 2737 
Q 3003 2878 3003 3200 
Q 3003 3519 2839 3656 
Q 2675 3794 2297 3794 
L 1791 3794 
L 1791 2597 
L 2297 2597 
z
M 1791 1766 
L 1791 0 
L 588 0 
L 588 4666 
L 2425 4666 
Q 3347 4666 3776 4356 
Q 4206 4047 4206 3378 
Q 4206 2916 3982 2619 
Q 3759 2322 3309 2181 
Q 3556 2125 3751 1926 
Q 3947 1728 4147 1325 
L 4800 0 
L 3519 0 
L 2950 1159 
Q 2778 1509 2601 1637 
Q 2425 1766 2131 1766 
L 1791 1766 
z
" transform="scale(0.015625)"/>
      <path id="DejaVuSans-Bold-37" d="M 31 4666 
L 4331 4666 
L 4331 3756 
L 2784 3756 
L 2784 0 
L 1581 0 
L 1581 3756 
L 31 3756 
L 31 4666 
z
" transform="scale(0.015625)"/>
      <path id="DejaVuSans-Bold-f" d="M 653 1209 
L 1778 1209 
L 1778 256 
L 1006 -909 
L 341 -909 
L 653 256 
L 653 1209 
z
" transform="scale(0.015625)"/>
      <path id="DejaVuSans-Bold-4f" d="M 538 4863 
L 1656 4863 
L 1656 0 
L 538 0 
L 538 4863 
z
" transform="scale(0.015625)"/>
      <path id="DejaVuSans-Bold-58" d="M 500 1363 
L 500 3500 
L 1625 3500 
L 1625 3150 
Q 1625 2866 1622 2436 
Q 1619 2006 1619 1863 
Q 1619 1441 1641 1255 
Q 1663 1069 1716 984 
Q 1784 875 1895 815 
Q 2006 756 2150 756 
Q 2500 756 2700 1025 
Q 2900 1294 2900 1772 
L 2900 3500 
L 4019 3500 
L 4019 0 
L 2900 0 
L 2900 506 
Q 2647 200 2364 54 
Q 2081 -91 1741 -91 
Q 1134 -91 817 281 
Q 500 653 500 1363 
z
" transform="scale(0.015625)"/>
      <path id="DejaVuSans-Bold-c" d="M 513 -844 
Q 913 -100 1113 609 
Q 1313 1319 1313 2009 
Q 1313 2700 1113 3408 
Q 913 4116 513 4856 
L 1441 4856 
Q 1916 4091 2145 3389 
Q 2375 2688 2375 2003 
Q 2375 1319 2147 623 
Q 1919 -72 1441 -844 
L 513 -844 
z
" transform="scale(0.015625)"/>
     </defs>
     <use xlink:href="#DejaVuSans-Bold-27"/>
     <use xlink:href="#DejaVuSans-Bold-44" transform="translate(83.015625 0)"/>
     <use xlink:href="#DejaVuSans-Bold-57" transform="translate(150.5 0)"/>
     <use xlink:href="#DejaVuSans-Bold-44" transform="translate(198.296875 0)"/>
     <use xlink:href="#DejaVuSans-Bold-10" transform="translate(265.78125 0)"/>
     <use xlink:href="#DejaVuSans-Bold-47" transform="translate(307.28125 0)"/>
     <use xlink:href="#DejaVuSans-Bold-55" transform="translate(378.859375 0)"/>
     <use xlink:href="#DejaVuSans-Bold-4c" transform="translate(428.171875 0)"/>
     <use xlink:href="#DejaVuSans-Bold-59" transform="translate(462.453125 0)"/>
     <use xlink:href="#DejaVuSans-Bold-48" transform="translate(527.640625 0)"/>
     <use xlink:href="#DejaVuSans-Bold-51" transform="translate(595.46875 0)"/>
     <use xlink:href="#DejaVuSans-Bold-3" transform="translate(666.65625 0)"/>
     <use xlink:href="#DejaVuSans-Bold-57" transform="translate(701.46875 0)"/>
     <use xlink:href="#DejaVuSans-Bold-52" transform="translate(749.265625 0)"/>
     <use xlink:href="#DejaVuSans-Bold-53" transform="translate(817.96875 0)"/>
     <use xlink:href="#DejaVuSans-Bold-4c" transform="translate(889.546875 0)"/>
     <use xlink:href="#DejaVuSans-Bold-46" transform="translate(923.828125 0)"/>
     <use xlink:href="#DejaVuSans-Bold-56" transform="translate(983.109375 0)"/>
     <use xlink:href="#DejaVuSans-Bold-3" transform="translate(1042.625 0)"/>
     <use xlink:href="#DejaVuSans-Bold-52" transform="translate(1077.4375 0)"/>
     <use xlink:href="#DejaVuSans-Bold-59" transform="translate(1146.140625 0)"/>
     <use xlink:href="#DejaVuSans-Bold-48" transform="translate(1211.328125 0)"/>
     <use xlink:href="#DejaVuSans-Bold-55" transform="translate(1279.15625 0)"/>
     <use xlink:href="#DejaVuSans-Bold-3" transform="translate(1328.46875 0)"/>
     <use xlink:href="#DejaVuSans-Bold-57" transform="translate(1363.28125 0)"/>
     <use xlink:href="#DejaVuSans-Bold-4c" transform="translate(1411.078125 0)"/>
     <use xlink:href="#DejaVuSans-Bold-50" transform="translate(1445.359375 0)"/>
     <use xlink:href="#DejaVuSans-Bold-48" transform="translate(1549.5625 0)"/>
     <use xlink:href="#DejaVuSans-Bold-3" transform="translate(1617.390625 0)"/>
     <use xlink:href="#DejaVuSans-Bold-b" transform="translate(1652.203125 0)"/>
     <use xlink:href="#DejaVuSans-Bold-25" transform="translate(1697.90625 0)"/>
     <use xlink:href="#DejaVuSans-Bold-28" transform="translate(1774.125 0)"/>
     <use xlink:href="#DejaVuSans-Bold-35" transform="translate(1842.4375 0)"/>
     <use xlink:href="#DejaVuSans-Bold-37" transform="translate(1914.953125 0)"/>
     <use xlink:href="#DejaVuSans-Bold-52" transform="translate(1969.890625 0)"/>
     <use xlink:href="#DejaVuSans-Bold-53" transform="translate(2038.59375 0)"/>
     <use xlink:href="#DejaVuSans-Bold-4c" transform="translate(2110.171875 0)"/>
     <use xlink:href="#DejaVuSans-Bold-46" transform="translate(2144.453125 0)"/>
     <use xlink:href="#DejaVuSans-Bold-f" transform="translate(2203.734375 0)"/>
     <use xlink:href="#DejaVuSans-Bold-3" transform="translate(2241.71875 0)"/>
     <use xlink:href="#DejaVuSans-Bold-59" transform="translate(2276.53125 0)"/>
     <use xlink:href="#DejaVuSans-Bold-52" transform="translate(2341.71875 0)"/>
     <use xlink:href="#DejaVuSans-Bold-4f" transform="translate(2410.421875 0)"/>
     <use xlink:href="#DejaVuSans-Bold-58" transform="translate(2444.703125 0)"/>
     <use xlink:href="#DejaVuSans-Bold-50" transform="translate(2515.890625 0)"/>
     <use xlink:href="#DejaVuSans-Bold-48" transform="translate(2620.09375 0)"/>
     <use xlink:href="#DejaVuSans-Bold-10" transform="translate(2687.921875 0)"/>
     <use xlink:href="#DejaVuSans-Bold-51" transform="translate(2729.421875 0)"/>
     <use xlink:href="#DejaVuSans-Bold-52" transform="translate(2800.609375 0)"/>
     <use xlink:href="#DejaVuSans-Bold-55" transform="translate(2869.3125 0)"/>
     <use xlink:href="#DejaVuSans-Bold-50" transform="translate(2918.625 0)"/>
     <use xlink:href="#DejaVuSans-Bold-44" transform="translate(3022.828125 0)"/>
     <use xlink:href="#DejaVuSans-Bold-4f" transform="translate(3090.3125 0)"/>
     <use xlink:href="#DejaVuSans-Bold-4c" transform="translate(3124.59375 0)"/>
     <use xlink:href="#DejaVuSans-Bold-56" transform="translate(3158.875 0)"/>
     <use xlink:href="#DejaVuSans-Bold-48" transform="translate(3218.390625 0)"/>
     <use xlink:href="#DejaVuSans-Bold-47" transform="translate(3286.21875 0)"/>
     <use xlink:href="#DejaVuSans-Bold-c" transform="translate(3357.796875 0)"/>
    </g>
   </g>
   <g id="legend_1">
    <g id="line2d_37">
     <path d="M 418.556797 33.556719 
L 426.556797 33.556719 
L 434.556797 33.556719 
" style="fill: none; stroke: #2e86ab; stroke-width: 1.9; stroke-linecap: square"/>
    </g>
    <g id="text_17">
     <!-- visual_v1_model_orientatio -->
     <g transform="translate(440.956797 36.356719) scale(0.08 -0.08)">
      <defs>
       <path id="DejaVuSans-59" d="M 191 3500 
L 800 3500 
L 1894 563 
L 2988 3500 
L 3597 3500 
L 2284 0 
L 1503 0 
L 191 3500 
z
" transform="scale(0.015625)"/>
       <path id="DejaVuSans-4c" d="M 603 3500 
L 1178 3500 
L 1178 0 
L 603 0 
L 603 3500 
z
M 603 4863 
L 1178 4863 
L 1178 4134 
L 603 4134 
L 603 4863 
z
" transform="scale(0.015625)"/>
       <path id="DejaVuSans-58" d="M 544 1381 
L 544 3500 
L 1119 3500 
L 1119 1403 
Q 1119 906 1312 657 
Q 1506 409 1894 409 
Q 2359 409 2629 706 
Q 2900 1003 2900 1516 
L 2900 3500 
L 3475 3500 
L 3475 0 
L 2900 0 
L 2900 538 
Q 2691 219 2414 64 
Q 2138 -91 1772 -91 
Q 1169 -91 856 284 
Q 544 659 544 1381 
z
M 1991 3584 
L 1991 3584 
z
" transform="scale(0.015625)"/>
       <path id="DejaVuSans-4f" d="M 603 4863 
L 1178 4863 
L 1178 0 
L 603 0 
L 603 4863 
z
" transform="scale(0.015625)"/>
       <path id="DejaVuSans-42" d="M 3263 -1063 
L 3263 -1509 
L -63 -1509 
L -63 -1063 
L 3263 -1063 
z
" transform="scale(0.015625)"/>
       <path id="DejaVuSans-51" d="M 3513 2113 
L 3513 0 
L 2938 0 
L 2938 2094 
Q 2938 2591 2744 2837 
Q 2550 3084 2163 3084 
Q 1697 3084 1428 2787 
Q 1159 2491 1159 1978 
L 1159 0 
L 581 0 
L 581 3500 
L 1159 3500 
L 1159 2956 
Q 1366 3272 1645 3428 
Q 1925 3584 2291 3584 
Q 2894 3584 3203 3211 
Q 3513 2838 3513 2113 
z
" transform="scale(0.015625)"/>
      </defs>
      <use xlink:href="#DejaVuSans-59"/>
      <use xlink:href="#DejaVuSans-4c" transform="translate(59.1875 0)"/>
      <use xlink:href="#DejaVuSans-56" transform="translate(86.96875 0)"/>
      <use xlink:href="#DejaVuSans-58" transform="translate(139.0625 0)"/>
      <use xlink:href="#DejaVuSans-44" transform="translate(202.4375 0)"/>
      <use xlink:href="#DejaVuSans-4f" transform="translate(263.71875 0)"/>
      <use xlink:href="#DejaVuSans-42" transform="translate(291.5 0)"/>
      <use xlink:href="#DejaVuSans-59" transform="translate(341.5 0)"/>
      <use xlink:href="#DejaVuSans-14" transform="translate(400.6875 0)"/>
      <use xlink:href="#DejaVuSans-42" transform="translate(464.3125 0)"/>
      <use xlink:href="#DejaVuSans-50" transform="translate(514.3125 0)"/>
      <use xlink:href="#DejaVuSans-52" transform="translate(611.71875 0)"/>
      <use xlink:href="#DejaVuSans-47" transform="translate(672.90625 0)"/>
      <use xlink:href="#DejaVuSans-48" transform="translate(736.390625 0)"/>
      <use xlink:href="#DejaVuSans-4f" transform="translate(797.921875 0)"/>
      <use xlink:href="#DejaVuSans-42" transform="translate(825.703125 0)"/>
      <use xlink:href="#DejaVuSans-52" transform="translate(875.703125 0)"/>
      <use xlink:href="#DejaVuSans-55" transform="translate(936.890625 0)"/>
      <use xlink:href="#DejaVuSans-4c" transform="translate(978 0)"/>
      <use xlink:href="#DejaVuSans-48" transform="translate(1005.78125 0)"/>
      <use xlink:href="#DejaVuSans-51" transform="translate(1067.3125 0)"/>
      <use xlink:href="#DejaVuSans-57" transform="translate(1130.6875 0)"/>
      <use xlink:href="#DejaVuSans-44" transform="translate(1169.890625 0)"/>
      <use xlink:href="#DejaVuSans-57" transform="translate(1231.171875 0)"/>
      <use xlink:href="#DejaVuSans-4c" transform="translate(1270.375 0)"/>
      <use xlink:href="#DejaVuSans-52" transform="translate(1298.15625 0)"/>
     </g>
    </g>
    <g id="line2d_38">
     <path d="M 418.556797 45.557344 
L 426.556797 45.557344 
L 434.556797 45.557344 
" style="fill: none; stroke: #d1495b; stroke-width: 1.9; stroke-linecap: square"/>
    </g>
    <g id="text_18">
     <!-- decision_reward_learning_t -->
     <g transform="translate(440.956797 48.357344) scale(0.08 -0.08)">
      <defs>
       <path id="DejaVuSans-5a" d="M 269 3500 
L 844 3500 
L 1563 769 
L 2278 3500 
L 2956 3500 
L 3675 769 
L 4391 3500 
L 4966 3500 
L 4050 0 
L 3372 0 
L 2619 2869 
L 1863 0 
L 1184 0 
L 269 3500 
z
" transform="scale(0.015625)"/>
       <path id="DejaVuSans-4a" d="M 2906 1791 
Q 2906 2416 2648 2759 
Q 2391 3103 1925 3103 
Q 1463 3103 1205 2759 
Q 947 2416 947 1791 
Q 947 1169 1205 825 
Q 1463 481 1925 481 
Q 2391 481 2648 825 
Q 2906 1169 2906 1791 
z
M 3481 434 
Q 3481 -459 3084 -895 
Q 2688 -1331 1869 -1331 
Q 1566 -1331 1297 -1286 
Q 1028 -1241 775 -1147 
L 775 -588 
Q 1028 -725 1275 -790 
Q 1522 -856 1778 -856 
Q 2344 -856 2625 -561 
Q 2906 -266 2906 331 
L 2906 616 
Q 2728 306 2450 153 
Q 2172 0 1784 0 
Q 1141 0 747 490 
Q 353 981 353 1791 
Q 353 2603 747 3093 
Q 1141 3584 1784 3584 
Q 2172 3584 2450 3431 
Q 2728 3278 2906 2969 
L 2906 3500 
L 3481 3500 
L 3481 434 
z
" transform="scale(0.015625)"/>
      </defs>
      <use xlink:href="#DejaVuSans-47"/>
      <use xlink:href="#DejaVuSans-48" transform="translate(63.484375 0)"/>
      <use xlink:href="#DejaVuSans-46" transform="translate(125.015625 0)"/>
      <use xlink:href="#DejaVuSans-4c" transform="translate(180 0)"/>
      <use xlink:href="#DejaVuSans-56" transform="translate(207.78125 0)"/>
      <use xlink:href="#DejaVuSans-4c" transform="translate(259.875 0)"/>
      <use xlink:href="#DejaVuSans-52" transform="translate(287.65625 0)"/>
      <use xlink:href="#DejaVuSans-51" transform="translate(348.84375 0)"/>
      <use xlink:href="#DejaVuSans-42" transform="translate(412.21875 0)"/>
      <use xlink:href="#DejaVuSans-55" transform="translate(462.21875 0)"/>
      <use xlink:href="#DejaVuSans-48" transform="translate(501.125 0)"/>
      <use xlink:href="#DejaVuSans-5a" transform="translate(562.65625 0)"/>
      <use xlink:href="#DejaVuSans-44" transform="translate(644.4375 0)"/>
      <use xlink:href="#DejaVuSans-55" transform="translate(705.71875 0)"/>
      <use xlink:href="#DejaVuSans-47" transform="translate(745.078125 0)"/>
      <use xlink:href="#DejaVuSans-42" transform="translate(808.5625 0)"/>
      <use xlink:href="#DejaVuSans-4f" transform="translate(858.5625 0)"/>
      <use xlink:href="#DejaVuSans-48" transform="translate(886.34375 0)"/>
      <use xlink:href="#DejaVuSans-44" transform="translate(947.875 0)"/>
      <use xlink:href="#DejaVuSans-55" transform="translate(1009.15625 0)"/>
      <use xlink:href="#DejaVuSans-51" transform="translate(1048.515625 0)"/>
      <use xlink:href="#DejaVuSans-4c" transform="translate(1111.890625 0)"/>
      <use xlink:href="#DejaVuSans-51" transform="translate(1139.671875 0)"/>
      <use xlink:href="#DejaVuSans-4a" transform="translate(1203.046875 0)"/>
      <use xlink:href="#DejaVuSans-42" transform="translate(1266.53125 0)"/>
      <use xlink:href="#DejaVuSans-57" transform="translate(1316.53125 0)"/>
     </g>
    </g>
    <g id="line2d_39">
     <path d="M 418.556797 57.557969 
L 426.556797 57.557969 
L 434.556797 57.557969 
" style="fill: none; stroke: #e8a33d; stroke-width: 1.9; stroke-linecap: square"/>
    </g>
    <g id="text_19">
     <!-- simulation_models_data_neu -->
     <g transform="translate(440.956797 60.357969) scale(0.08 -0.08)">
      <use xlink:href="#DejaVuSans-56"/>
      <use xlink:href="#DejaVuSans-4c" transform="translate(52.09375 0)"/>
      <use xlink:href="#DejaVuSans-50" transform="translate(79.875 0)"/>
      <use xlink:href="#DejaVuSans-58" transform="translate(177.28125 0)"/>
      <use xlink:href="#DejaVuSans-4f" transform="translate(240.65625 0)"/>
      <use xlink:href="#DejaVuSans-44" transform="translate(268.4375 0)"/>
      <use xlink:href="#DejaVuSans-57" transform="translate(329.71875 0)"/>
      <use xlink:href="#DejaVuSans-4c" transform="translate(368.921875 0)"/>
      <use xlink:href="#DejaVuSans-52" transform="translate(396.703125 0)"/>
      <use xlink:href="#DejaVuSans-51" transform="translate(457.890625 0)"/>
      <use xlink:href="#DejaVuSans-42" transform="translate(521.265625 0)"/>
      <use xlink:href="#DejaVuSans-50" transform="translate(571.265625 0)"/>
      <use xlink:href="#DejaVuSans-52" transform="translate(668.671875 0)"/>
      <use xlink:href="#DejaVuSans-47" transform="translate(729.859375 0)"/>
      <use xlink:href="#DejaVuSans-48" transform="translate(793.34375 0)"/>
      <use xlink:href="#DejaVuSans-4f" transform="translate(854.875 0)"/>
      <use xlink:href="#DejaVuSans-56" transform="translate(882.65625 0)"/>
      <use xlink:href="#DejaVuSans-42" transform="translate(934.75 0)"/>
      <use xlink:href="#DejaVuSans-47" transform="translate(984.75 0)"/>
      <use xlink:href="#DejaVuSans-44" transform="translate(1048.234375 0)"/>
      <use xlink:href="#DejaVuSans-57" transform="translate(1109.515625 0)"/>
      <use xlink:href="#DejaVuSans-44" transform="translate(1148.71875 0)"/>
      <use xlink:href="#DejaVuSans-42" transform="translate(1210 0)"/>
      <use xlink:href="#DejaVuSans-51" transform="translate(1260 0)"/>
      <use xlink:href="#DejaVuSans-48" transform="translate(1323.375 0)"/>
      <use xlink:href="#DejaVuSans-58" transform="translate(1384.90625 0)"/>
     </g>
    </g>
    <g id="line2d_40">
     <path d="M 418.556797 69.558594 
L 426.556797 69.558594 
L 434.556797 69.558594 
" style="fill: none; stroke: #3c896d; stroke-width: 1.9; stroke-linecap: square"/>
    </g>
    <g id="text_20">
     <!-- brain_functional_connectiv -->
     <g transform="translate(440.956797 72.358594) scale(0.08 -0.08)">
      <use xlink:href="#DejaVuSans-45"/>
      <use xlink:href="#DejaVuSans-55" transform="translate(63.484375 0)"/>
      <use xlink:href="#DejaVuSans-44" transform="translate(104.59375 0)"/>
      <use xlink:href="#DejaVuSans-4c" transform="translate(165.875 0)"/>
      <use xlink:href="#DejaVuSans-51" transform="translate(193.65625 0)"/>
      <use xlink:href="#DejaVuSans-42" transform="translate(257.03125 0)"/>
      <use xlink:href="#DejaVuSans-49" transform="translate(307.03125 0)"/>
      <use xlink:href="#DejaVuSans-58" transform="translate(342.234375 0)"/>
      <use xlink:href="#DejaVuSans-51" transform="translate(405.609375 0)"/>
      <use xlink:href="#DejaVuSans-46" transform="translate(468.984375 0)"/>
      <use xlink:href="#DejaVuSans-57" transform="translate(523.96875 0)"/>
      <use xlink:href="#DejaVuSans-4c" transform="translate(563.171875 0)"/>
      <use xlink:href="#DejaVuSans-52" transform="translate(590.953125 0)"/>
      <use xlink:href="#DejaVuSans-51" transform="translate(652.140625 0)"/>
      <use xlink:href="#DejaVuSans-44" transform="translate(715.515625 0)"/>
      <use xlink:href="#DejaVuSans-4f" transform="translate(776.796875 0)"/>
      <use xlink:href="#DejaVuSans-42" transform="translate(804.578125 0)"/>
      <use xlink:href="#DejaVuSans-46" transform="translate(854.578125 0)"/>
      <use xlink:href="#DejaVuSans-52" transform="translate(909.5625 0)"/>
      <use xlink:href="#DejaVuSans-51" transform="translate(970.75 0)"/>
      <use xlink:href="#DejaVuSans-51" transform="translate(1034.125 0)"/>
      <use xlink:href="#DejaVuSans-48" transform="translate(1097.5 0)"/>
      <use xlink:href="#DejaVuSans-46" transform="translate(1159.03125 0)"/>
      <use xlink:href="#DejaVuSans-57" transform="translate(1214.015625 0)"/>
      <use xlink:href="#DejaVuSans-4c" transform="translate(1253.21875 0)"/>
      <use xlink:href="#DejaVuSans-59" transform="translate(1281 0)"/>
     </g>
    </g>
    <g id="line2d_41">
     <path d="M 418.556797 81.559219 
L 426.556797 81.559219 
L 434.556797 81.559219 
" style="fill: none; stroke: #6a4c93; stroke-width: 1.9; stroke-linecap: square"/>
    </g>
    <g id="text_21">
     <!-- auditory_sound_model_frequ -->
     <g transform="translate(440.956797 84.359219) scale(0.08 -0.08)">
      <defs>
       <path id="DejaVuSans-54" d="M 947 1747 
Q 947 1113 1208 752 
Q 1469 391 1925 391 
Q 2381 391 2643 752 
Q 2906 1113 2906 1747 
Q 2906 2381 2643 2742 
Q 2381 3103 1925 3103 
Q 1469 3103 1208 2742 
Q 947 2381 947 1747 
z
M 2906 525 
Q 2725 213 2448 61 
Q 2172 -91 1784 -91 
Q 1150 -91 751 415 
Q 353 922 353 1747 
Q 353 2572 751 3078 
Q 1150 3584 1784 3584 
Q 2172 3584 2448 3432 
Q 2725 3281 2906 2969 
L 2906 3500 
L 3481 3500 
L 3481 -1331 
L 2906 -1331 
L 2906 525 
z
" transform="scale(0.015625)"/>
      </defs>
      <use xlink:href="#DejaVuSans-44"/>
      <use xlink:href="#DejaVuSans-58" transform="translate(61.28125 0)"/>
      <use xlink:href="#DejaVuSans-47" transform="translate(124.65625 0)"/>
      <use xlink:href="#DejaVuSans-4c" transform="translate(188.140625 0)"/>
      <use xlink:href="#DejaVuSans-57" transform="translate(215.921875 0)"/>
      <use xlink:href="#DejaVuSans-52" transform="translate(255.125 0)"/>
      <use xlink:href="#DejaVuSans-55" transform="translate(316.3125 0)"/>
      <use xlink:href="#DejaVuSans-5c" transform="translate(357.421875 0)"/>
      <use xlink:href="#DejaVuSans-42" transform="translate(416.609375 0)"/>
      <use xlink:href="#DejaVuSans-56" transform="translate(466.609375 0)"/>
      <use xlink:href="#DejaVuSans-52" transform="translate(518.703125 0)"/>
      <use xlink:href="#DejaVuSans-58" transform="translate(579.890625 0)"/>
      <use xlink:href="#DejaVuSans-51" transform="translate(643.265625 0)"/>
      <use xlink:href="#DejaVuSans-47" transform="translate(706.640625 0)"/>
      <use xlink:href="#DejaVuSans-42" transform="translate(770.125 0)"/>
      <use xlink:href="#DejaVuSans-50" transform="translate(820.125 0)"/>
      <use xlink:href="#DejaVuSans-52" transform="translate(917.53125 0)"/>
      <use xlink:href="#DejaVuSans-47" transform="translate(978.71875 0)"/>
      <use xlink:href="#DejaVuSans-48" transform="translate(1042.203125 0)"/>
      <use xlink:href="#DejaVuSans-4f" transform="translate(1103.734375 0)"/>
      <use xlink:href="#DejaVuSans-42" transform="translate(1131.515625 0)"/>
      <use xlink:href="#DejaVuSans-49" transform="translate(1181.515625 0)"/>
      <use xlink:href="#DejaVuSans-55" transform="translate(1216.71875 0)"/>
      <use xlink:href="#DejaVuSans-48" transform="translate(1255.625 0)"/>
      <use xlink:href="#DejaVuSans-54" transform="translate(1317.15625 0)"/>
      <use xlink:href="#DejaVuSans-58" transform="translate(1380.640625 0)"/>
     </g>
    </g>
    <g id="line2d_42">
     <path d="M 572.819297 33.556719 
L 580.819297 33.556719 
L 588.819297 33.556719 
" style="fill: none; stroke: #1b998b; stroke-width: 1.9; stroke-linecap: square"/>
    </g>
    <g id="text_22">
     <!-- phase_synchronization_gamm -->
     <g transform="translate(595.219297 36.356719) scale(0.08 -0.08)">
      <defs>
       <path id="DejaVuSans-53" d="M 1159 525 
L 1159 -1331 
L 581 -1331 
L 581 3500 
L 1159 3500 
L 1159 2969 
Q 1341 3281 1617 3432 
Q 1894 3584 2278 3584 
Q 2916 3584 3314 3078 
Q 3713 2572 3713 1747 
Q 3713 922 3314 415 
Q 2916 -91 2278 -91 
Q 1894 -91 1617 61 
Q 1341 213 1159 525 
z
M 3116 1747 
Q 3116 2381 2855 2742 
Q 2594 3103 2138 3103 
Q 1681 3103 1420 2742 
Q 1159 2381 1159 1747 
Q 1159 1113 1420 752 
Q 1681 391 2138 391 
Q 2594 391 2855 752 
Q 3116 1113 3116 1747 
z
" transform="scale(0.015625)"/>
       <path id="DejaVuSans-5d" d="M 353 3500 
L 3084 3500 
L 3084 2975 
L 922 459 
L 3084 459 
L 3084 0 
L 275 0 
L 275 525 
L 2438 3041 
L 353 3041 
L 353 3500 
z
" transform="scale(0.015625)"/>
      </defs>
      <use xlink:href="#DejaVuSans-53"/>
      <use xlink:href="#DejaVuSans-4b" transform="translate(63.484375 0)"/>
      <use xlink:href="#DejaVuSans-44" transform="translate(126.859375 0)"/>
      <use xlink:href="#DejaVuSans-56" transform="translate(188.140625 0)"/>
      <use xlink:href="#DejaVuSans-48" transform="translate(240.234375 0)"/>
      <use xlink:href="#DejaVuSans-42" transform="translate(301.765625 0)"/>
      <use xlink:href="#DejaVuSans-56" transform="translate(351.765625 0)"/>
      <use xlink:href="#DejaVuSans-5c" transform="translate(403.859375 0)"/>
      <use xlink:href="#DejaVuSans-51" transform="translate(463.046875 0)"/>
      <use xlink:href="#DejaVuSans-46" transform="translate(526.421875 0)"/>
      <use xlink:href="#DejaVuSans-4b" transform="translate(581.40625 0)"/>
      <use xlink:href="#DejaVuSans-55" transform="translate(644.78125 0)"/>
      <use xlink:href="#DejaVuSans-52" transform="translate(683.6875 0)"/>
      <use xlink:href="#DejaVuSans-51" transform="translate(744.875 0)"/>
      <use xlink:href="#DejaVuSans-4c" transform="translate(808.25 0)"/>
      <use xlink:href="#DejaVuSans-5d" transform="translate(836.03125 0)"/>
      <use xlink:href="#DejaVuSans-44" transform="translate(888.515625 0)"/>
      <use xlink:href="#DejaVuSans-57" transform="translate(949.796875 0)"/>
      <use xlink:href="#DejaVuSans-4c" transform="translate(989 0)"/>
      <use xlink:href="#DejaVuSans-52" transform="translate(1016.78125 0)"/>
      <use xlink:href="#DejaVuSans-51" transform="translate(1077.96875 0)"/>
      <use xlink:href="#DejaVuSans-42" transform="translate(1141.34375 0)"/>
      <use xlink:href="#DejaVuSans-4a" transform="translate(1191.34375 0)"/>
      <use xlink:href="#DejaVuSans-44" transform="translate(1254.828125 0)"/>
      <use xlink:href="#DejaVuSans-50" transform="translate(1316.109375 0)"/>
      <use xlink:href="#DejaVuSans-50" transform="translate(1413.515625 0)"/>
     </g>
    </g>
    <g id="line2d_43">
     <path d="M 572.819297 45.557344 
L 580.819297 45.557344 
L 588.819297 45.557344 
" style="fill: none; stroke: #c1666b; stroke-width: 1.9; stroke-linecap: square"/>
    </g>
    <g id="text_23">
     <!-- networks_network_neurons_d -->
     <g transform="translate(595.219297 48.357344) scale(0.08 -0.08)">
      <defs>
       <path id="DejaVuSans-4e" d="M 581 4863 
L 1159 4863 
L 1159 1991 
L 2875 3500 
L 3609 3500 
L 1753 1863 
L 3688 0 
L 2938 0 
L 1159 1709 
L 1159 0 
L 581 0 
L 581 4863 
z
" transform="scale(0.015625)"/>
      </defs>
      <use xlink:href="#DejaVuSans-51"/>
      <use xlink:href="#DejaVuSans-48" transform="translate(63.375 0)"/>
      <use xlink:href="#DejaVuSans-57" transform="translate(124.90625 0)"/>
      <use xlink:href="#DejaVuSans-5a" transform="translate(164.109375 0)"/>
      <use xlink:href="#DejaVuSans-52" transform="translate(245.890625 0)"/>
      <use xlink:href="#DejaVuSans-55" transform="translate(307.078125 0)"/>
      <use xlink:href="#DejaVuSans-4e" transform="translate(348.1875 0)"/>
      <use xlink:href="#DejaVuSans-56" transform="translate(406.09375 0)"/>
      <use xlink:href="#DejaVuSans-42" transform="translate(458.1875 0)"/>
      <use xlink:href="#DejaVuSans-51" transform="translate(508.1875 0)"/>
      <use xlink:href="#DejaVuSans-48" transform="translate(571.5625 0)"/>
      <use xlink:href="#DejaVuSans-57" transform="translate(633.09375 0)"/>
      <use xlink:href="#DejaVuSans-5a" transform="translate(672.296875 0)"/>
      <use xlink:href="#DejaVuSans-52" transform="translate(754.078125 0)"/>
      <use xlink:href="#DejaVuSans-55" transform="translate(815.265625 0)"/>
      <use xlink:href="#DejaVuSans-4e" transform="translate(856.375 0)"/>
      <use xlink:href="#DejaVuSans-42" transform="translate(914.28125 0)"/>
      <use xlink:href="#DejaVuSans-51" transform="translate(964.28125 0)"/>
      <use xlink:href="#DejaVuSans-48" transform="translate(1027.65625 0)"/>
      <use xlink:href="#DejaVuSans-58" transform="translate(1089.1875 0)"/>
      <use xlink:href="#DejaVuSans-55" transform="translate(1152.5625 0)"/>
      <use xlink:href="#DejaVuSans-52" transform="translate(1191.46875 0)"/>
      <use xlink:href="#DejaVuSans-51" transform="translate(1252.65625 0)"/>
      <use xlink:href="#DejaVuSans-56" transform="translate(1316.03125 0)"/>
      <use xlink:href="#DejaVuSans-42" transform="translate(1368.125 0)"/>
      <use xlink:href="#DejaVuSans-47" transform="translate(1418.125 0)"/>
     </g>
    </g>
    <g id="line2d_44">
     <path d="M 572.819297 57.557969 
L 580.819297 57.557969 
L 588.819297 57.557969 
" style="fill: none; stroke: #8d99ae; stroke-width: 1.9; stroke-linecap: square"/>
    </g>
    <g id="text_24">
     <!-- seizure_seizures_epilepsy_ -->
     <g transform="translate(595.219297 60.357969) scale(0.08 -0.08)">
      <use xlink:href="#DejaVuSans-56"/>
      <use xlink:href="#DejaVuSans-48" transform="translate(52.09375 0)"/>
      <use xlink:href="#DejaVuSans-4c" transform="translate(113.625 0)"/>
      <use xlink:href="#DejaVuSans-5d" transform="translate(141.40625 0)"/>
      <use xlink:href="#DejaVuSans-58" transform="translate(193.890625 0)"/>
      <use xlink:href="#DejaVuSans-55" transform="translate(257.265625 0)"/>
      <use xlink:href="#DejaVuSans-48" transform="translate(296.171875 0)"/>
      <use xlink:href="#DejaVuSans-42" transform="translate(357.703125 0)"/>
      <use xlink:href="#DejaVuSans-56" transform="translate(407.703125 0)"/>
      <use xlink:href="#DejaVuSans-48" transform="translate(459.796875 0)"/>
      <use xlink:href="#DejaVuSans-4c" transform="translate(521.328125 0)"/>
      <use xlink:href="#DejaVuSans-5d" transform="translate(549.109375 0)"/>
      <use xlink:href="#DejaVuSans-58" transform="translate(601.59375 0)"/>
      <use xlink:href="#DejaVuSans-55" transform="translate(664.96875 0)"/>
      <use xlink:href="#DejaVuSans-48" transform="translate(703.875 0)"/>
      <use xlink:href="#DejaVuSans-56" transform="translate(765.40625 0)"/>
      <use xlink:href="#DejaVuSans-42" transform="translate(817.5 0)"/>
      <use xlink:href="#DejaVuSans-48" transform="translate(867.5 0)"/>
      <use xlink:href="#DejaVuSans-53" transform="translate(929.03125 0)"/>
      <use xlink:href="#DejaVuSans-4c" transform="translate(992.515625 0)"/>
      <use xlink:href="#DejaVuSans-4f" transform="translate(1020.296875 0)"/>
      <use xlink:href="#DejaVuSans-48" transform="translate(1048.078125 0)"/>
      <use xlink:href="#DejaVuSans-53" transform="translate(1109.609375 0)"/>
      <use xlink:href="#DejaVuSans-56" transform="translate(1173.09375 0)"/>
      <use xlink:href="#DejaVuSans-5c" transform="translate(1225.1875 0)"/>
      <use xlink:href="#DejaVuSans-42" transform="translate(1284.375 0)"/>
     </g>
    </g>
    <g id="line2d_45">
     <path d="M 572.819297 69.558594 
L 580.819297 69.558594 
L 588.819297 69.558594 
" style="fill: none; stroke: #587291; stroke-width: 1.9; stroke-linecap: square"/>
    </g>
    <g id="text_25">
     <!-- network_networks_criticali -->
     <g transform="translate(595.219297 72.358594) scale(0.08 -0.08)">
      <use xlink:href="#DejaVuSans-51"/>
      <use xlink:href="#DejaVuSans-48" transform="translate(63.375 0)"/>
      <use xlink:href="#DejaVuSans-57" transform="translate(124.90625 0)"/>
      <use xlink:href="#DejaVuSans-5a" transform="translate(164.109375 0)"/>
      <use xlink:href="#DejaVuSans-52" transform="translate(245.890625 0)"/>
      <use xlink:href="#DejaVuSans-55" transform="translate(307.078125 0)"/>
      <use xlink:href="#DejaVuSans-4e" transform="translate(348.1875 0)"/>
      <use xlink:href="#DejaVuSans-42" transform="translate(406.09375 0)"/>
      <use xlink:href="#DejaVuSans-51" transform="translate(456.09375 0)"/>
      <use xlink:href="#DejaVuSans-48" transform="translate(519.46875 0)"/>
      <use xlink:href="#DejaVuSans-57" transform="translate(581 0)"/>
      <use xlink:href="#DejaVuSans-5a" transform="translate(620.203125 0)"/>
      <use xlink:href="#DejaVuSans-52" transform="translate(701.984375 0)"/>
      <use xlink:href="#DejaVuSans-55" transform="translate(763.171875 0)"/>
      <use xlink:href="#DejaVuSans-4e" transform="translate(804.28125 0)"/>
      <use xlink:href="#DejaVuSans-56" transform="translate(862.1875 0)"/>
      <use xlink:href="#DejaVuSans-42" transform="translate(914.28125 0)"/>
      <use xlink:href="#DejaVuSans-46" transform="translate(964.28125 0)"/>
      <use xlink:href="#DejaVuSans-55" transform="translate(1019.265625 0)"/>
      <use xlink:href="#DejaVuSans-4c" transform="translate(1060.375 0)"/>
      <use xlink:href="#DejaVuSans-57" transform="translate(1088.15625 0)"/>
      <use xlink:href="#DejaVuSans-4c" transform="translate(1127.359375 0)"/>
      <use xlink:href="#DejaVuSans-46" transform="translate(1155.140625 0)"/>
      <use xlink:href="#DejaVuSans-44" transform="translate(1210.125 0)"/>
      <use xlink:href="#DejaVuSans-4f" transform="translate(1271.40625 0)"/>
      <use xlink:href="#DejaVuSans-4c" transform="translate(1299.1875 0)"/>
     </g>
    </g>
    <g id="line2d_46">
     <path d="M 572.819297 81.559219 
L 580.819297 81.559219 
L 588.819297 81.559219 
" style="fill: none; stroke: #b56576; stroke-width: 1.9; stroke-linecap: square"/>
    </g>
    <g id="text_26">
     <!-- calcium_ca2_synaptic_relea -->
     <g transform="translate(595.219297 84.359219) scale(0.08 -0.08)">
      <use xlink:href="#DejaVuSans-46"/>
      <use xlink:href="#DejaVuSans-44" transform="translate(54.984375 0)"/>
      <use xlink:href="#DejaVuSans-4f" transform="translate(116.265625 0)"/>
      <use xlink:href="#DejaVuSans-46" transform="translate(144.046875 0)"/>
      <use xlink:href="#DejaVuSans-4c" transform="translate(199.03125 0)"/>
      <use xlink:href="#DejaVuSans-58" transform="translate(226.8125 0)"/>
      <use xlink:href="#DejaVuSans-50" transform="translate(290.1875 0)"/>
      <use xlink:href="#DejaVuSans-42" transform="translate(387.59375 0)"/>
      <use xlink:href="#DejaVuSans-46" transform="translate(437.59375 0)"/>
      <use xlink:href="#DejaVuSans-44" transform="translate(492.578125 0)"/>
      <use xlink:href="#DejaVuSans-15" transform="translate(553.859375 0)"/>
      <use xlink:href="#DejaVuSans-42" transform="translate(617.484375 0)"/>
      <use xlink:href="#DejaVuSans-56" transform="translate(667.484375 0)"/>
      <use xlink:href="#DejaVuSans-5c" transform="translate(719.578125 0)"/>
      <use xlink:href="#DejaVuSans-51" transform="translate(778.765625 0)"/>
      <use xlink:href="#DejaVuSans-44" transform="translate(842.140625 0)"/>
      <use xlink:href="#DejaVuSans-53" transform="translate(903.421875 0)"/>
      <use xlink:href="#DejaVuSans-57" transform="translate(966.90625 0)"/>
      <use xlink:href="#DejaVuSans-4c" transform="translate(1006.109375 0)"/>
      <use xlink:href="#DejaVuSans-46" transform="translate(1033.890625 0)"/>
      <use xlink:href="#DejaVuSans-42" transform="translate(1088.875 0)"/>
      <use xlink:href="#DejaVuSans-55" transform="translate(1138.875 0)"/>
      <use xlink:href="#DejaVuSans-48" transform="translate(1177.78125 0)"/>
      <use xlink:href="#DejaVuSans-4f" transform="translate(1239.3125 0)"/>
      <use xlink:href="#DejaVuSans-48" transform="translate(1267.09375 0)"/>
      <use xlink:href="#DejaVuSans-44" transform="translate(1328.625 0)"/>
     </g>
    </g>
   </g>
  </g>
 </g>
 <defs>
  <clipPath id="pde63cde7cb">
   <rect x="53.693047" y="23.077969" width="669.6" height="376.992"/>
  </clipPath>
 </defs>
</svg>
